<svg width="1152" height="587" viewBox="0 0 1152 587" fill="none" xmlns="http://www.w3.org/2000/svg">
<path d="M0 0H1152V587H0V0Z" fill="white" fill-opacity="0.01"/>
<path d="M384.34 190H383.397V186.714H379.813V190H378.876V182.891H379.813V185.947H383.397V182.891H384.34V190ZM390.023 186.714H386.942V189.233H390.521V190H386.005V182.891H390.473V183.662H386.942V185.947H390.023V186.714ZM395.614 188.145H392.636L391.967 190H391L393.715 182.891H394.535L397.255 190H396.293L395.614 188.145ZM392.919 187.373H395.336L394.125 184.048L392.919 187.373ZM398.212 190V182.891H400.219C400.837 182.891 401.384 183.027 401.859 183.301C402.335 183.574 402.701 183.963 402.958 184.468C403.218 184.972 403.35 185.552 403.354 186.206V186.66C403.354 187.331 403.223 187.918 402.963 188.423C402.706 188.927 402.336 189.315 401.854 189.585C401.376 189.855 400.818 189.993 400.18 190H398.212ZM399.149 183.662V189.233H400.136C400.858 189.233 401.42 189.009 401.82 188.56C402.224 188.11 402.426 187.471 402.426 186.641V186.226C402.426 185.418 402.235 184.792 401.854 184.346C401.477 183.896 400.94 183.669 400.243 183.662H399.149Z" fill="#4000C7"/>
<path d="M85.1863 207C83.5646 200.553 91.8523 186.272 137 187.029" stroke="#4000C7"/>
<rect x="297.824" y="196.125" width="18" height="70.7284" rx="5" transform="rotate(-90.1738 297.824 196.125)" fill="black"/>
<path d="M290.001 187.193L298.251 183.73L298.25 190.659L290.001 187.193Z" fill="black"/>
<path d="M307.157 190.549L307.156 185.505L306.237 185.505L306.237 184.737L307.156 184.737L307.155 184.141C307.155 183.518 307.322 183.036 307.655 182.696C307.988 182.356 308.458 182.186 309.067 182.185C309.296 182.185 309.524 182.216 309.749 182.277L309.696 183.082C309.527 183.05 309.348 183.034 309.159 183.034C308.836 183.034 308.588 183.129 308.412 183.319C308.237 183.505 308.149 183.774 308.149 184.125L308.149 184.737L309.39 184.737L309.39 185.505L308.149 185.505L308.15 190.548L307.157 190.549ZM312.775 190.655C311.987 190.655 311.346 190.397 310.852 189.882C310.358 189.363 310.11 188.67 310.11 187.803L310.11 187.621C310.11 187.044 310.219 186.53 310.438 186.079C310.659 185.624 310.967 185.27 311.361 185.016C311.759 184.758 312.188 184.629 312.65 184.629C313.406 184.629 313.993 184.877 314.412 185.375C314.831 185.873 315.041 186.585 315.041 187.513L315.041 187.926L311.104 187.927C311.118 188.5 311.285 188.963 311.604 189.318C311.926 189.669 312.334 189.844 312.828 189.844C313.179 189.844 313.476 189.772 313.72 189.629C313.963 189.486 314.176 189.296 314.359 189.06L314.966 189.532C314.479 190.281 313.749 190.655 312.775 190.655ZM312.65 185.445C312.249 185.445 311.913 185.592 311.641 185.886C311.369 186.176 311.2 186.584 311.136 187.11L314.047 187.11L314.047 187.035C314.018 186.53 313.882 186.14 313.639 185.864C313.395 185.585 313.066 185.445 312.65 185.445ZM319.784 190.546C319.727 190.432 319.68 190.228 319.644 189.934C319.182 190.414 318.631 190.654 317.99 190.654C317.417 190.654 316.946 190.493 316.577 190.171C316.212 189.845 316.029 189.433 316.029 188.936C316.029 188.331 316.258 187.861 316.717 187.528C317.178 187.192 317.827 187.023 318.661 187.023L319.628 187.023L319.628 186.566C319.627 186.219 319.524 185.943 319.316 185.739C319.108 185.532 318.802 185.428 318.397 185.428C318.043 185.428 317.746 185.518 317.506 185.697C317.266 185.876 317.146 186.092 317.146 186.347L316.147 186.347C316.147 186.057 316.249 185.777 316.453 185.509C316.661 185.237 316.94 185.022 317.291 184.864C317.645 184.707 318.034 184.628 318.456 184.628C319.126 184.627 319.651 184.796 320.03 185.132C320.41 185.465 320.607 185.925 320.621 186.512L320.622 189.187C320.622 189.721 320.69 190.145 320.826 190.46L320.826 190.546L319.784 190.546ZM318.135 189.789C318.446 189.789 318.742 189.709 319.021 189.547C319.3 189.386 319.503 189.177 319.628 188.919L319.628 187.727L318.849 187.727C317.632 187.727 317.023 188.083 317.023 188.796C317.023 189.107 317.127 189.351 317.335 189.526C317.542 189.702 317.809 189.789 318.135 189.789ZM323.526 183.327L323.527 184.734L324.612 184.734L324.612 185.502L323.527 185.502L323.527 189.106C323.527 189.339 323.576 189.514 323.673 189.633C323.769 189.747 323.934 189.804 324.167 189.804C324.281 189.804 324.439 189.783 324.639 189.74L324.64 190.545C324.378 190.617 324.124 190.653 323.877 190.653C323.433 190.653 323.098 190.519 322.872 190.25C322.647 189.982 322.534 189.601 322.534 189.106L322.533 185.502L321.475 185.503L321.475 184.734L322.533 184.734L322.533 183.327L323.526 183.327ZM325.977 191.217L325.123 191.217L328.387 182.724L329.236 182.724L325.977 191.217ZM333.695 189.002C333.695 188.734 333.593 188.526 333.389 188.379C333.188 188.229 332.835 188.1 332.33 187.993C331.829 187.885 331.43 187.757 331.133 187.606C330.839 187.456 330.621 187.277 330.477 187.069C330.338 186.862 330.268 186.615 330.268 186.328C330.268 185.852 330.468 185.449 330.869 185.12C331.274 184.79 331.789 184.625 332.416 184.625C333.075 184.625 333.608 184.795 334.016 185.135C334.428 185.475 334.634 185.91 334.634 186.44L333.635 186.44C333.635 186.168 333.519 185.934 333.286 185.737C333.057 185.54 332.767 185.441 332.416 185.441C332.054 185.442 331.771 185.52 331.567 185.678C331.363 185.836 331.261 186.041 331.261 186.296C331.261 186.536 331.356 186.716 331.546 186.838C331.736 186.96 332.078 187.076 332.572 187.187C333.07 187.298 333.473 187.43 333.781 187.584C334.089 187.738 334.316 187.924 334.463 188.143C334.613 188.358 334.688 188.621 334.689 188.932C334.689 189.451 334.481 189.869 334.066 190.184C333.65 190.495 333.112 190.651 332.449 190.651C331.984 190.652 331.572 190.569 331.214 190.405C330.856 190.24 330.574 190.011 330.37 189.717C330.17 189.42 330.069 189.1 330.069 188.756L331.063 188.756C331.081 189.089 331.214 189.354 331.461 189.551C331.711 189.744 332.041 189.84 332.449 189.84C332.825 189.84 333.126 189.765 333.351 189.615C333.58 189.461 333.695 189.257 333.695 189.002ZM337.063 190.543L336.069 190.543L336.068 184.732L337.062 184.732L337.063 190.543ZM335.987 183.19C335.987 183.029 336.036 182.893 336.132 182.782C336.232 182.671 336.379 182.616 336.573 182.616C336.766 182.616 336.913 182.671 337.013 182.782C337.113 182.893 337.164 183.029 337.164 183.19C337.164 183.351 337.113 183.486 337.013 183.593C336.913 183.7 336.766 183.754 336.573 183.754C336.379 183.754 336.233 183.701 336.132 183.593C336.036 183.486 335.987 183.351 335.987 183.19ZM338.421 187.589C338.421 186.683 338.63 185.963 339.049 185.43C339.468 184.892 340.023 184.624 340.714 184.624C341.423 184.623 341.976 184.874 342.374 185.375L342.422 184.731L343.33 184.731L343.331 190.402C343.331 191.154 343.107 191.747 342.66 192.18C342.216 192.614 341.618 192.83 340.866 192.831C340.447 192.831 340.037 192.741 339.636 192.562C339.235 192.383 338.929 192.138 338.717 191.827L339.233 191.23C339.659 191.757 340.18 192.02 340.796 192.02C341.279 192.019 341.655 191.883 341.924 191.611C342.196 191.339 342.332 190.956 342.332 190.462L342.332 189.962C341.934 190.421 341.392 190.65 340.704 190.65C340.024 190.65 339.473 190.376 339.05 189.828C338.631 189.281 338.421 188.534 338.421 187.589ZM339.42 187.701C339.42 188.357 339.555 188.872 339.823 189.248C340.092 189.621 340.468 189.807 340.951 189.807C341.578 189.807 342.038 189.522 342.332 188.952L342.331 186.299C342.027 185.744 341.57 185.467 340.961 185.467C340.478 185.467 340.1 185.655 339.828 186.031C339.556 186.407 339.42 186.964 339.42 187.701ZM345.774 184.73L345.806 185.461C346.25 184.902 346.83 184.622 347.546 184.622C348.774 184.622 349.394 185.315 349.405 186.701L349.406 190.541L348.412 190.541L348.411 186.695C348.408 186.276 348.311 185.967 348.121 185.766C347.935 185.566 347.643 185.466 347.246 185.466C346.923 185.466 346.64 185.552 346.397 185.724C346.153 185.896 345.964 186.121 345.828 186.4L345.828 190.542L344.835 190.542L344.834 184.73L345.774 184.73ZM354.492 189.965C354.105 190.42 353.538 190.648 352.789 190.648C352.17 190.648 351.697 190.469 351.371 190.111C351.049 189.749 350.886 189.216 350.882 188.51L350.882 184.729L351.875 184.729L351.876 188.483C351.876 189.364 352.234 189.805 352.95 189.804C353.71 189.804 354.214 189.521 354.465 188.956L354.464 184.729L355.458 184.728L355.459 190.54L354.514 190.54L354.492 189.965ZM361.882 187.697C361.882 188.582 361.68 189.294 361.276 189.835C360.871 190.376 360.323 190.646 359.632 190.647C358.927 190.647 358.372 190.423 357.967 189.975L357.968 192.774L356.974 192.774L356.972 184.728L357.88 184.728L357.929 185.372C358.333 184.871 358.895 184.62 359.615 184.62C360.313 184.62 360.865 184.883 361.269 185.409C361.678 185.936 361.882 186.668 361.882 187.606L361.882 187.697ZM360.888 187.585C360.888 186.93 360.749 186.412 360.469 186.033C360.19 185.653 359.807 185.463 359.32 185.463C358.718 185.464 358.267 185.73 357.966 186.264L357.967 189.041C358.264 189.571 358.719 189.836 359.331 189.836C359.808 189.835 360.185 189.647 360.464 189.271C360.747 188.892 360.889 188.33 360.888 187.585Z" fill="white"/>
<circle cx="145.5" cy="187.5" r="9.5" fill="#4000C7"/>
<circle cx="268.5" cy="187.5" r="9.5" fill="#4000C7"/>
<path d="M247.03 543.599C247.03 543.468 247.001 543.348 246.942 543.237C246.887 543.123 246.771 543.021 246.596 542.93C246.423 542.835 246.163 542.754 245.814 542.686C245.521 542.624 245.256 542.55 245.019 542.466C244.784 542.381 244.584 542.279 244.418 542.158C244.255 542.038 244.13 541.896 244.042 541.733C243.954 541.571 243.91 541.38 243.91 541.162C243.91 540.954 243.956 540.757 244.047 540.571C244.141 540.386 244.273 540.221 244.442 540.078C244.615 539.935 244.822 539.823 245.062 539.741C245.303 539.66 245.572 539.619 245.868 539.619C246.291 539.619 246.653 539.694 246.952 539.844C247.252 539.993 247.481 540.194 247.641 540.444C247.8 540.692 247.88 540.967 247.88 541.27H246.977C246.977 541.123 246.933 540.981 246.845 540.845C246.76 540.705 246.635 540.589 246.469 540.498C246.306 540.407 246.106 540.361 245.868 540.361C245.618 540.361 245.414 540.4 245.258 540.479C245.105 540.553 244.993 540.649 244.921 540.767C244.853 540.884 244.818 541.007 244.818 541.138C244.818 541.235 244.835 541.323 244.867 541.401C244.903 541.476 244.965 541.546 245.053 541.611C245.141 541.673 245.264 541.732 245.424 541.787C245.583 541.842 245.787 541.898 246.034 541.953C246.467 542.051 246.824 542.168 247.104 542.305C247.383 542.441 247.592 542.609 247.729 542.808C247.865 543.006 247.934 543.247 247.934 543.53C247.934 543.761 247.885 543.973 247.787 544.165C247.693 544.357 247.554 544.523 247.372 544.663C247.193 544.8 246.978 544.907 246.728 544.985C246.48 545.06 246.202 545.098 245.893 545.098C245.427 545.098 245.033 545.015 244.711 544.849C244.389 544.683 244.145 544.468 243.979 544.204C243.812 543.94 243.729 543.662 243.729 543.369H244.638C244.651 543.617 244.722 543.813 244.853 543.96C244.983 544.103 245.142 544.206 245.331 544.268C245.52 544.326 245.707 544.355 245.893 544.355C246.14 544.355 246.347 544.323 246.513 544.258C246.682 544.193 246.811 544.103 246.898 543.989C246.986 543.875 247.03 543.745 247.03 543.599ZM250.102 539.717V545H249.193V539.717H250.102ZM249.125 538.315C249.125 538.169 249.169 538.045 249.257 537.944C249.348 537.843 249.481 537.793 249.657 537.793C249.83 537.793 249.962 537.843 250.053 537.944C250.147 538.045 250.194 538.169 250.194 538.315C250.194 538.455 250.147 538.576 250.053 538.677C249.962 538.774 249.83 538.823 249.657 538.823C249.481 538.823 249.348 538.774 249.257 538.677C249.169 538.576 249.125 538.455 249.125 538.315ZM254.975 539.717H255.795V544.888C255.795 545.353 255.701 545.75 255.512 546.079C255.323 546.408 255.059 546.657 254.721 546.826C254.385 546.999 253.998 547.085 253.559 547.085C253.376 547.085 253.161 547.056 252.914 546.997C252.67 546.942 252.429 546.846 252.191 546.709C251.957 546.576 251.76 546.395 251.601 546.167L252.074 545.63C252.296 545.897 252.527 546.082 252.768 546.187C253.012 546.291 253.253 546.343 253.49 546.343C253.777 546.343 254.024 546.289 254.232 546.182C254.441 546.074 254.602 545.915 254.716 545.703C254.833 545.495 254.892 545.238 254.892 544.932V540.879L254.975 539.717ZM251.337 542.417V542.314C251.337 541.911 251.384 541.545 251.479 541.216C251.576 540.884 251.715 540.599 251.894 540.361C252.076 540.124 252.296 539.941 252.553 539.814C252.81 539.684 253.1 539.619 253.422 539.619C253.754 539.619 254.044 539.678 254.291 539.795C254.542 539.909 254.753 540.076 254.926 540.298C255.102 540.516 255.24 540.78 255.341 541.089C255.442 541.398 255.512 541.748 255.551 542.139V542.588C255.515 542.975 255.445 543.324 255.341 543.633C255.24 543.942 255.102 544.206 254.926 544.424C254.753 544.642 254.542 544.81 254.291 544.927C254.04 545.041 253.747 545.098 253.412 545.098C253.096 545.098 252.81 545.031 252.553 544.897C252.299 544.764 252.081 544.577 251.898 544.336C251.716 544.095 251.576 543.812 251.479 543.486C251.384 543.158 251.337 542.801 251.337 542.417ZM252.24 542.314V542.417C252.24 542.681 252.266 542.928 252.318 543.159C252.374 543.39 252.457 543.594 252.567 543.77C252.681 543.945 252.826 544.084 253.002 544.185C253.178 544.282 253.388 544.331 253.632 544.331C253.931 544.331 254.179 544.268 254.374 544.141C254.569 544.014 254.724 543.846 254.838 543.638C254.955 543.429 255.046 543.203 255.111 542.959V541.782C255.076 541.603 255.02 541.431 254.945 541.265C254.874 541.095 254.779 540.946 254.662 540.815C254.548 540.682 254.407 540.576 254.237 540.498C254.068 540.42 253.869 540.381 253.642 540.381C253.394 540.381 253.181 540.433 253.002 540.537C252.826 540.638 252.681 540.778 252.567 540.957C252.457 541.133 252.374 541.338 252.318 541.572C252.266 541.803 252.24 542.051 252.24 542.314ZM258.07 540.845V545H257.167V539.717H258.021L258.07 540.845ZM257.855 542.158L257.479 542.144C257.483 541.782 257.536 541.449 257.641 541.143C257.745 540.833 257.891 540.565 258.08 540.337C258.269 540.109 258.493 539.933 258.754 539.81C259.018 539.683 259.309 539.619 259.628 539.619C259.888 539.619 260.123 539.655 260.331 539.727C260.539 539.795 260.717 539.906 260.863 540.059C261.013 540.212 261.127 540.41 261.205 540.654C261.283 540.895 261.322 541.19 261.322 541.538V545H260.414V541.528C260.414 541.252 260.373 541.03 260.292 540.864C260.211 540.695 260.092 540.573 259.936 540.498C259.779 540.42 259.587 540.381 259.359 540.381C259.135 540.381 258.93 540.428 258.744 540.522C258.562 540.617 258.404 540.747 258.271 540.913C258.14 541.079 258.038 541.27 257.963 541.484C257.891 541.696 257.855 541.921 257.855 542.158ZM265.927 543.779V539.717H266.835V545H265.971L265.927 543.779ZM266.098 542.666L266.474 542.656C266.474 543.008 266.436 543.333 266.361 543.633C266.29 543.929 266.173 544.186 266.01 544.404C265.847 544.622 265.634 544.793 265.37 544.917C265.106 545.037 264.786 545.098 264.408 545.098C264.151 545.098 263.915 545.06 263.7 544.985C263.489 544.91 263.306 544.795 263.153 544.639C263 544.482 262.882 544.279 262.797 544.028C262.715 543.778 262.675 543.477 262.675 543.125V539.717H263.578V543.135C263.578 543.372 263.604 543.569 263.656 543.726C263.712 543.879 263.785 544.001 263.876 544.092C263.97 544.18 264.075 544.242 264.188 544.277C264.306 544.313 264.426 544.331 264.55 544.331C264.934 544.331 265.238 544.258 265.463 544.111C265.688 543.962 265.849 543.761 265.946 543.511C266.047 543.257 266.098 542.975 266.098 542.666ZM269.115 540.732V547.031H268.207V539.717H269.037L269.115 540.732ZM272.675 542.314V542.417C272.675 542.801 272.629 543.158 272.538 543.486C272.447 543.812 272.313 544.095 272.138 544.336C271.965 544.577 271.752 544.764 271.498 544.897C271.244 545.031 270.953 545.098 270.624 545.098C270.289 545.098 269.993 545.042 269.735 544.932C269.478 544.821 269.26 544.66 269.081 544.448C268.902 544.237 268.759 543.983 268.651 543.687C268.547 543.39 268.476 543.057 268.437 542.686V542.139C268.476 541.748 268.549 541.398 268.656 541.089C268.764 540.78 268.905 540.516 269.081 540.298C269.26 540.076 269.477 539.909 269.73 539.795C269.984 539.678 270.277 539.619 270.609 539.619C270.941 539.619 271.236 539.684 271.493 539.814C271.75 539.941 271.967 540.124 272.143 540.361C272.318 540.599 272.45 540.884 272.538 541.216C272.629 541.545 272.675 541.911 272.675 542.314ZM271.767 542.417V542.314C271.767 542.051 271.739 541.803 271.684 541.572C271.628 541.338 271.542 541.133 271.425 540.957C271.311 540.778 271.164 540.638 270.985 540.537C270.806 540.433 270.593 540.381 270.346 540.381C270.118 540.381 269.919 540.42 269.75 540.498C269.584 540.576 269.442 540.682 269.325 540.815C269.208 540.946 269.112 541.095 269.037 541.265C268.965 541.431 268.912 541.603 268.876 541.782V543.047C268.941 543.275 269.032 543.49 269.149 543.691C269.267 543.89 269.423 544.051 269.618 544.175C269.813 544.295 270.059 544.355 270.355 544.355C270.6 544.355 270.81 544.305 270.985 544.204C271.164 544.1 271.311 543.958 271.425 543.779C271.542 543.6 271.628 543.395 271.684 543.164C271.739 542.93 271.767 542.681 271.767 542.417ZM273.842 544.521C273.842 544.368 273.889 544.24 273.983 544.136C274.081 544.028 274.221 543.975 274.403 543.975C274.586 543.975 274.724 544.028 274.818 544.136C274.916 544.24 274.965 544.368 274.965 544.521C274.965 544.671 274.916 544.798 274.818 544.902C274.724 545.007 274.586 545.059 274.403 545.059C274.221 545.059 274.081 545.007 273.983 544.902C273.889 544.798 273.842 544.671 273.842 544.521ZM276.488 539.717H277.396V545.63C277.396 545.952 277.344 546.226 277.24 546.45C277.139 546.675 276.986 546.844 276.781 546.958C276.579 547.075 276.324 547.134 276.015 547.134C275.933 547.134 275.839 547.126 275.731 547.109C275.621 547.093 275.528 547.074 275.453 547.051L275.458 546.323C275.52 546.336 275.59 546.346 275.668 546.353C275.746 546.362 275.814 546.367 275.873 546.367C276.007 546.367 276.119 546.343 276.21 546.294C276.301 546.245 276.369 546.167 276.415 546.06C276.464 545.952 276.488 545.809 276.488 545.63V539.717ZM276.396 538.315C276.396 538.169 276.441 538.045 276.532 537.944C276.623 537.843 276.755 537.793 276.928 537.793C277.104 537.793 277.237 537.843 277.328 537.944C277.419 538.045 277.465 538.169 277.465 538.315C277.465 538.455 277.419 538.576 277.328 538.677C277.237 538.774 277.104 538.823 276.928 538.823C276.755 538.823 276.623 538.774 276.532 538.677C276.441 538.576 276.396 538.455 276.396 538.315ZM281.972 544.097V541.377C281.972 541.169 281.929 540.988 281.845 540.835C281.763 540.679 281.64 540.558 281.474 540.474C281.308 540.389 281.103 540.347 280.858 540.347C280.631 540.347 280.43 540.386 280.258 540.464C280.089 540.542 279.955 540.645 279.857 540.771C279.763 540.898 279.716 541.035 279.716 541.182H278.812C278.812 540.993 278.861 540.806 278.959 540.62C279.057 540.435 279.197 540.267 279.379 540.117C279.564 539.964 279.786 539.844 280.043 539.756C280.303 539.665 280.593 539.619 280.912 539.619C281.296 539.619 281.635 539.684 281.928 539.814C282.224 539.945 282.455 540.142 282.621 540.405C282.79 540.666 282.875 540.993 282.875 541.387V543.848C282.875 544.023 282.89 544.211 282.919 544.409C282.951 544.608 282.999 544.779 283.061 544.922V545H282.118C282.073 544.896 282.037 544.757 282.011 544.585C281.985 544.409 281.972 544.246 281.972 544.097ZM282.128 541.797L282.138 542.432H281.225C280.967 542.432 280.738 542.453 280.536 542.495C280.334 542.534 280.165 542.594 280.028 542.676C279.892 542.757 279.787 542.86 279.716 542.983C279.644 543.104 279.608 543.245 279.608 543.408C279.608 543.574 279.646 543.726 279.721 543.862C279.796 543.999 279.908 544.108 280.058 544.189C280.211 544.268 280.398 544.307 280.619 544.307C280.896 544.307 281.14 544.248 281.352 544.131C281.563 544.014 281.731 543.87 281.854 543.701C281.981 543.532 282.05 543.368 282.06 543.208L282.445 543.643C282.423 543.779 282.361 543.931 282.26 544.097C282.159 544.263 282.024 544.422 281.854 544.575C281.688 544.725 281.49 544.85 281.259 544.951C281.031 545.049 280.774 545.098 280.487 545.098C280.129 545.098 279.815 545.028 279.545 544.888C279.278 544.748 279.07 544.561 278.92 544.326C278.773 544.089 278.7 543.823 278.7 543.53C278.7 543.247 278.756 542.998 278.866 542.783C278.977 542.565 279.136 542.384 279.345 542.241C279.553 542.095 279.804 541.984 280.097 541.909C280.39 541.834 280.717 541.797 281.078 541.797H282.128ZM285.824 544.185L287.27 539.717H288.192L286.293 545H285.688L285.824 544.185ZM284.618 539.717L286.107 544.209L286.21 545H285.604L283.69 539.717H284.618ZM292.099 544.097V541.377C292.099 541.169 292.056 540.988 291.972 540.835C291.89 540.679 291.767 540.558 291.601 540.474C291.435 540.389 291.229 540.347 290.985 540.347C290.757 540.347 290.557 540.386 290.385 540.464C290.215 540.542 290.082 540.645 289.984 540.771C289.89 540.898 289.843 541.035 289.843 541.182H288.939C288.939 540.993 288.988 540.806 289.086 540.62C289.184 540.435 289.324 540.267 289.506 540.117C289.691 539.964 289.913 539.844 290.17 539.756C290.43 539.665 290.72 539.619 291.039 539.619C291.423 539.619 291.762 539.684 292.055 539.814C292.351 539.945 292.582 540.142 292.748 540.405C292.917 540.666 293.002 540.993 293.002 541.387V543.848C293.002 544.023 293.017 544.211 293.046 544.409C293.078 544.608 293.126 544.779 293.188 544.922V545H292.245C292.2 544.896 292.164 544.757 292.138 544.585C292.112 544.409 292.099 544.246 292.099 544.097ZM292.255 541.797L292.265 542.432H291.352C291.094 542.432 290.865 542.453 290.663 542.495C290.461 542.534 290.292 542.594 290.155 542.676C290.019 542.757 289.914 542.86 289.843 542.983C289.771 543.104 289.735 543.245 289.735 543.408C289.735 543.574 289.773 543.726 289.848 543.862C289.923 543.999 290.035 544.108 290.185 544.189C290.338 544.268 290.525 544.307 290.746 544.307C291.023 544.307 291.267 544.248 291.479 544.131C291.69 544.014 291.858 543.87 291.981 543.701C292.108 543.532 292.177 543.368 292.187 543.208L292.572 543.643C292.549 543.779 292.488 543.931 292.387 544.097C292.286 544.263 292.151 544.422 291.981 544.575C291.815 544.725 291.617 544.85 291.386 544.951C291.158 545.049 290.901 545.098 290.614 545.098C290.256 545.098 289.942 545.028 289.672 544.888C289.405 544.748 289.197 544.561 289.047 544.326C288.9 544.089 288.827 543.823 288.827 543.53C288.827 543.247 288.882 542.998 288.993 542.783C289.104 542.565 289.263 542.384 289.472 542.241C289.68 542.095 289.931 541.984 290.224 541.909C290.517 541.834 290.844 541.797 291.205 541.797H292.255Z" fill="#4000C7"/>
<path d="M276.746 515.016L270.938 509.252C270.776 509.091 270.558 509 270.328 509H258.864C258.386 509 258 509.383 258 509.857V532.143C258 532.617 258.386 533 258.864 533H276.136C276.614 533 277 532.617 277 532.143V515.624C277 515.396 276.908 515.177 276.746 515.016ZM275.008 516.018H269.929V510.977L275.008 516.018ZM275.057 531.071H259.943V510.929H268.094V516.714C268.094 517.013 268.213 517.299 268.426 517.51C268.638 517.721 268.927 517.839 269.227 517.839H275.057V531.071ZM267.284 523.839H262.318C262.199 523.839 262.102 523.936 262.102 524.054V525.339C262.102 525.457 262.199 525.554 262.318 525.554H267.284C267.403 525.554 267.5 525.457 267.5 525.339V524.054C267.5 523.936 267.403 523.839 267.284 523.839ZM262.102 520.411V521.696C262.102 521.814 262.199 521.911 262.318 521.911H272.682C272.801 521.911 272.898 521.814 272.898 521.696V520.411C272.898 520.293 272.801 520.196 272.682 520.196H262.318C262.199 520.196 262.102 520.293 262.102 520.411Z" fill="#4000C7"/>
<line x1="155" y1="187.5" x2="259" y2="187.5" stroke="#4000C7"/>
<path d="M250.083 151.006H250.762C251.188 150.999 251.523 150.887 251.768 150.669C252.012 150.451 252.134 150.156 252.134 149.785C252.134 148.952 251.719 148.535 250.889 148.535C250.498 148.535 250.186 148.647 249.951 148.872C249.72 149.093 249.604 149.388 249.604 149.756H248.701C248.701 149.193 248.906 148.726 249.316 148.354C249.73 147.98 250.254 147.793 250.889 147.793C251.559 147.793 252.085 147.97 252.466 148.325C252.847 148.68 253.037 149.173 253.037 149.805C253.037 150.114 252.936 150.413 252.734 150.703C252.536 150.993 252.264 151.209 251.919 151.353C252.31 151.476 252.611 151.681 252.822 151.968C253.037 152.254 253.145 152.604 253.145 153.018C253.145 153.656 252.936 154.162 252.52 154.536C252.103 154.91 251.561 155.098 250.894 155.098C250.226 155.098 249.683 154.917 249.263 154.556C248.846 154.194 248.638 153.717 248.638 153.125H249.546C249.546 153.499 249.668 153.799 249.912 154.023C250.156 154.248 250.483 154.36 250.894 154.36C251.33 154.36 251.663 154.246 251.895 154.019C252.126 153.791 252.241 153.464 252.241 153.037C252.241 152.624 252.114 152.306 251.86 152.085C251.606 151.864 251.24 151.75 250.762 151.743H250.083V151.006ZM256.597 154.36C256.919 154.36 257.201 154.263 257.441 154.067C257.682 153.872 257.816 153.628 257.842 153.335H258.696C258.68 153.638 258.576 153.926 258.384 154.199C258.192 154.473 257.935 154.691 257.612 154.854C257.293 155.016 256.955 155.098 256.597 155.098C255.877 155.098 255.304 154.858 254.878 154.38C254.455 153.898 254.243 153.241 254.243 152.407V152.256C254.243 151.742 254.338 151.284 254.526 150.884C254.715 150.483 254.985 150.173 255.337 149.951C255.692 149.73 256.11 149.619 256.592 149.619C257.184 149.619 257.676 149.797 258.066 150.151C258.46 150.506 258.67 150.967 258.696 151.533H257.842C257.816 151.191 257.686 150.911 257.451 150.693C257.22 150.472 256.934 150.361 256.592 150.361C256.133 150.361 255.776 150.527 255.522 150.859C255.272 151.188 255.146 151.665 255.146 152.29V152.461C255.146 153.07 255.272 153.538 255.522 153.867C255.773 154.196 256.131 154.36 256.597 154.36ZM261.904 155.098C261.188 155.098 260.605 154.863 260.156 154.395C259.707 153.923 259.482 153.293 259.482 152.505V152.339C259.482 151.815 259.582 151.348 259.78 150.938C259.982 150.524 260.262 150.202 260.62 149.971C260.981 149.736 261.372 149.619 261.792 149.619C262.479 149.619 263.013 149.845 263.394 150.298C263.774 150.75 263.965 151.398 263.965 152.241V152.617H260.386C260.399 153.138 260.55 153.56 260.84 153.882C261.133 154.201 261.504 154.36 261.953 154.36C262.272 154.36 262.542 154.295 262.764 154.165C262.985 154.035 263.179 153.862 263.345 153.647L263.896 154.077C263.454 154.757 262.79 155.098 261.904 155.098ZM261.792 150.361C261.427 150.361 261.121 150.495 260.874 150.762C260.627 151.025 260.474 151.396 260.415 151.875H263.062V151.807C263.035 151.348 262.912 150.993 262.69 150.742C262.469 150.488 262.17 150.361 261.792 150.361ZM266.235 151.006H266.914C267.34 150.999 267.676 150.887 267.92 150.669C268.164 150.451 268.286 150.156 268.286 149.785C268.286 148.952 267.871 148.535 267.041 148.535C266.65 148.535 266.338 148.647 266.104 148.872C265.872 149.093 265.757 149.388 265.757 149.756H264.854C264.854 149.193 265.059 148.726 265.469 148.354C265.882 147.98 266.406 147.793 267.041 147.793C267.712 147.793 268.237 147.97 268.618 148.325C268.999 148.68 269.189 149.173 269.189 149.805C269.189 150.114 269.089 150.413 268.887 150.703C268.688 150.993 268.416 151.209 268.071 151.353C268.462 151.476 268.763 151.681 268.975 151.968C269.189 152.254 269.297 152.604 269.297 153.018C269.297 153.656 269.089 154.162 268.672 154.536C268.255 154.91 267.713 155.098 267.046 155.098C266.379 155.098 265.835 154.917 265.415 154.556C264.998 154.194 264.79 153.717 264.79 153.125H265.698C265.698 153.499 265.82 153.799 266.064 154.023C266.309 154.248 266.636 154.36 267.046 154.36C267.482 154.36 267.816 154.246 268.047 154.019C268.278 153.791 268.394 153.464 268.394 153.037C268.394 152.624 268.267 152.306 268.013 152.085C267.759 151.864 267.393 151.75 266.914 151.743H266.235V151.006ZM273.999 151.875C273.81 152.1 273.584 152.28 273.32 152.417C273.06 152.554 272.773 152.622 272.461 152.622C272.051 152.622 271.693 152.521 271.387 152.319C271.084 152.118 270.85 151.834 270.684 151.47C270.518 151.102 270.435 150.697 270.435 150.254C270.435 149.779 270.524 149.351 270.703 148.97C270.885 148.589 271.143 148.298 271.475 148.096C271.807 147.894 272.194 147.793 272.637 147.793C273.34 147.793 273.893 148.057 274.297 148.584C274.704 149.108 274.907 149.824 274.907 150.732V150.996C274.907 152.38 274.634 153.39 274.087 154.028C273.54 154.663 272.715 154.989 271.611 155.005H271.436V154.243H271.626C272.371 154.23 272.944 154.036 273.345 153.662C273.745 153.285 273.963 152.689 273.999 151.875ZM272.607 151.875C272.91 151.875 273.188 151.782 273.442 151.597C273.7 151.411 273.887 151.182 274.004 150.908V150.547C274.004 149.954 273.875 149.473 273.618 149.102C273.361 148.73 273.035 148.545 272.642 148.545C272.244 148.545 271.925 148.698 271.685 149.004C271.444 149.307 271.323 149.707 271.323 150.205C271.323 150.69 271.439 151.09 271.67 151.406C271.904 151.719 272.217 151.875 272.607 151.875ZM279.966 152.612H280.952V153.35H279.966V155H279.058V153.35H275.82V152.817L279.004 147.891H279.966V152.612ZM276.846 152.612H279.058V149.126L278.95 149.321L276.846 152.612ZM281.641 152.314C281.641 151.504 281.833 150.853 282.217 150.361C282.601 149.867 283.104 149.619 283.726 149.619C284.344 149.619 284.834 149.831 285.195 150.254V147.5H286.099V155H285.269L285.225 154.434C284.863 154.876 284.36 155.098 283.716 155.098C283.104 155.098 282.604 154.847 282.217 154.346C281.833 153.844 281.641 153.19 281.641 152.383V152.314ZM282.544 152.417C282.544 153.016 282.668 153.485 282.915 153.823C283.162 154.162 283.504 154.331 283.94 154.331C284.513 154.331 284.932 154.074 285.195 153.56V151.133C284.925 150.635 284.51 150.386 283.95 150.386C283.507 150.386 283.162 150.557 282.915 150.898C282.668 151.24 282.544 151.746 282.544 152.417ZM245.692 163.15C244.122 162.87 242.412 161.55 242.412 160.06V159.37H241.552V160.06C241.552 161.55 239.852 162.87 238.282 163.15L238.622 163.83C240.002 163.54 241.402 162.61 241.982 161.33C242.562 162.61 243.972 163.54 245.342 163.83L245.692 163.15ZM242.392 165.9V163.72H241.572V165.9H237.952V166.57H246.092V165.9H242.392ZM253.711 163.48H254.541V158.78H253.711V159.69H251.951V160.34H253.711V161.3H251.951V161.95H253.711V163.48ZM252.391 162.69C251.101 162.25 250.191 161.14 250.191 159.94V159H249.381V159.94C249.381 161.19 248.481 162.39 247.151 162.88L247.571 163.5C248.611 163.12 249.421 162.3 249.801 161.28C250.191 162.21 250.971 162.96 251.971 163.33L252.391 162.69ZM249.591 166.98V166.03H254.541V163.92H248.761V164.55H253.731V165.42H248.781V167.62H254.881V166.98H249.591ZM259.311 159.73V160.41H262.601C262.411 162.53 261.181 164.25 258.891 165.4L259.341 166.04C262.241 164.59 263.411 162.28 263.411 159.73H259.311ZM267.171 162.41H265.731V158.77H264.911V167.74H265.731V163.09H267.171V162.41ZM274.57 158.78V163.59H275.39V158.78H274.57ZM269.61 164.03V167.62H275.39V164.03H274.58V165.13H270.42V164.03H269.61ZM270.42 165.77H274.58V166.96H270.42V165.77ZM270.57 159.2C269.22 159.2 268.24 160.04 268.24 161.26C268.24 162.5 269.22 163.33 270.57 163.33C271.93 163.33 272.92 162.5 272.92 161.26C272.92 160.04 271.93 159.2 270.57 159.2ZM270.57 159.88C271.48 159.88 272.12 160.45 272.12 161.26C272.12 162.08 271.48 162.65 270.57 162.65C269.68 162.65 269.04 162.08 269.04 161.26C269.04 160.45 269.68 159.88 270.57 159.88ZM287.83 163.21H286.5C286.75 161.92 286.75 160.97 286.75 160.13V159.35H280.73V160.01H285.95V160.13C285.95 160.97 285.95 161.92 285.67 163.21H279.72V163.88H283.34V167.75H284.17V163.88H287.83V163.21ZM293.949 161.16V161.83H295.459V163.04H293.949V163.71H295.459V165.61H296.289V158.78H295.459V161.16H293.949ZM293.949 159.87H291.889V158.76H291.069V159.87H288.929V160.53H293.949V159.87ZM290.219 162.73C290.219 162.1 290.729 161.67 291.469 161.67C292.209 161.67 292.719 162.1 292.719 162.73C292.719 163.37 292.209 163.81 291.469 163.81C290.729 163.81 290.219 163.37 290.219 162.73ZM293.499 162.73C293.499 161.71 292.659 161.03 291.469 161.03C290.279 161.03 289.439 161.71 289.439 162.73C289.439 163.76 290.279 164.45 291.469 164.45C292.659 164.45 293.499 163.76 293.499 162.73ZM291.349 166.87V165.03H290.529V167.54H296.499V166.87H291.349Z" fill="black"/>
<path d="M133.466 155H128.808V154.351L131.269 151.616C131.633 151.203 131.884 150.868 132.021 150.61C132.16 150.35 132.23 150.081 132.23 149.805C132.23 149.434 132.118 149.129 131.894 148.892C131.669 148.654 131.369 148.535 130.995 148.535C130.546 148.535 130.196 148.664 129.945 148.921C129.698 149.175 129.574 149.53 129.574 149.985H128.671C128.671 149.331 128.881 148.802 129.301 148.398C129.724 147.995 130.289 147.793 130.995 147.793C131.656 147.793 132.178 147.967 132.562 148.315C132.947 148.66 133.139 149.121 133.139 149.697C133.139 150.397 132.693 151.23 131.801 152.197L129.896 154.263H133.466V155ZM136.635 154.36C136.957 154.36 137.239 154.263 137.479 154.067C137.72 153.872 137.854 153.628 137.88 153.335H138.734C138.718 153.638 138.614 153.926 138.422 154.199C138.23 154.473 137.973 154.691 137.65 154.854C137.331 155.016 136.993 155.098 136.635 155.098C135.915 155.098 135.342 154.858 134.916 154.38C134.493 153.898 134.281 153.241 134.281 152.407V152.256C134.281 151.742 134.376 151.284 134.564 150.884C134.753 150.483 135.023 150.173 135.375 149.951C135.73 149.73 136.148 149.619 136.63 149.619C137.222 149.619 137.714 149.797 138.104 150.151C138.498 150.506 138.708 150.967 138.734 151.533H137.88C137.854 151.191 137.724 150.911 137.489 150.693C137.258 150.472 136.972 150.361 136.63 150.361C136.171 150.361 135.814 150.527 135.561 150.859C135.31 151.188 135.185 151.665 135.185 152.29V152.461C135.185 153.07 135.31 153.538 135.561 153.867C135.811 154.196 136.169 154.36 136.635 154.36ZM143.012 155C142.96 154.896 142.917 154.71 142.885 154.443C142.465 154.88 141.964 155.098 141.381 155.098C140.86 155.098 140.432 154.951 140.097 154.658C139.765 154.362 139.599 153.988 139.599 153.535C139.599 152.985 139.807 152.559 140.224 152.256C140.644 151.95 141.233 151.797 141.991 151.797H142.87V151.382C142.87 151.066 142.776 150.815 142.587 150.63C142.398 150.441 142.12 150.347 141.752 150.347C141.43 150.347 141.16 150.428 140.941 150.591C140.723 150.754 140.614 150.951 140.614 151.182H139.706C139.706 150.918 139.799 150.664 139.984 150.42C140.173 150.173 140.427 149.977 140.746 149.834C141.068 149.691 141.422 149.619 141.806 149.619C142.414 149.619 142.891 149.772 143.236 150.078C143.581 150.381 143.76 150.799 143.773 151.333V153.765C143.773 154.25 143.835 154.635 143.959 154.922V155H143.012ZM141.513 154.312C141.796 154.312 142.064 154.238 142.318 154.092C142.572 153.945 142.756 153.755 142.87 153.521V152.437H142.162C141.055 152.437 140.502 152.76 140.502 153.408C140.502 153.691 140.596 153.913 140.785 154.072C140.974 154.232 141.216 154.312 141.513 154.312ZM149.755 155H145.097V154.351L147.558 151.616C147.922 151.203 148.173 150.868 148.31 150.61C148.45 150.35 148.52 150.081 148.52 149.805C148.52 149.434 148.407 149.129 148.183 148.892C147.958 148.654 147.659 148.535 147.284 148.535C146.835 148.535 146.485 148.664 146.234 148.921C145.987 149.175 145.863 149.53 145.863 149.985H144.96C144.96 149.331 145.17 148.802 145.59 148.398C146.013 147.995 146.578 147.793 147.284 147.793C147.945 147.793 148.467 147.967 148.852 148.315C149.236 148.66 149.428 149.121 149.428 149.697C149.428 150.397 148.982 151.23 148.09 152.197L146.186 154.263H149.755V155ZM154.257 147.886V148.652H154.091C153.388 148.665 152.828 148.874 152.411 149.277C151.994 149.681 151.754 150.249 151.688 150.981C152.063 150.552 152.574 150.337 153.222 150.337C153.84 150.337 154.333 150.555 154.701 150.991C155.072 151.427 155.258 151.991 155.258 152.681C155.258 153.413 155.058 153.999 154.657 154.438C154.26 154.878 153.726 155.098 153.056 155.098C152.375 155.098 151.824 154.837 151.4 154.316C150.977 153.792 150.766 153.118 150.766 152.295V151.948C150.766 150.64 151.044 149.64 151.601 148.95C152.16 148.257 152.992 147.902 154.096 147.886H154.257ZM153.07 151.089C152.761 151.089 152.476 151.182 152.216 151.367C151.955 151.553 151.775 151.785 151.674 152.065V152.397C151.674 152.983 151.806 153.455 152.069 153.813C152.333 154.172 152.662 154.351 153.056 154.351C153.463 154.351 153.782 154.201 154.013 153.901C154.247 153.602 154.364 153.21 154.364 152.725C154.364 152.236 154.245 151.842 154.008 151.543C153.773 151.24 153.461 151.089 153.07 151.089ZM160.141 152.612H161.127V153.35H160.141V155H159.232V153.35H155.995V152.817L159.179 147.891H160.141V152.612ZM157.021 152.612H159.232V149.126L159.125 149.321L157.021 152.612ZM163.017 155H162.113V149.717H163.017V155ZM162.04 148.315C162.04 148.169 162.084 148.045 162.172 147.944C162.263 147.843 162.396 147.793 162.572 147.793C162.748 147.793 162.882 147.843 162.973 147.944C163.064 148.045 163.109 148.169 163.109 148.315C163.109 148.462 163.064 148.584 162.973 148.682C162.882 148.779 162.748 148.828 162.572 148.828C162.396 148.828 162.263 148.779 162.172 148.682C162.084 148.584 162.04 148.462 162.04 148.315ZM123.382 159.87H121.072V158.77H120.252V159.87H117.932V160.53H123.382V159.87ZM119.282 162.7C119.282 162.07 119.842 161.67 120.662 161.67C121.472 161.67 122.032 162.07 122.032 162.7C122.032 163.32 121.472 163.72 120.662 163.72C119.842 163.72 119.282 163.32 119.282 162.7ZM121.072 164.34C122.132 164.21 122.812 163.59 122.812 162.7C122.812 161.69 121.942 161.04 120.662 161.04C119.382 161.04 118.502 161.69 118.502 162.7C118.502 163.6 119.192 164.22 120.252 164.35V165.31C119.362 165.34 118.502 165.35 117.742 165.35L117.862 166.04C119.512 166.04 121.672 166.01 123.672 165.68L123.612 165.07C122.792 165.18 121.922 165.24 121.072 165.28V164.34ZM124.182 158.77V167.74H125.002V158.77H124.182ZM131.591 164.07V164.68H133.411V165.6H134.231V158.77H133.411V164.07H131.591ZM129.761 159.74C130.611 159.74 131.191 160.12 131.191 160.69C131.191 161.27 130.611 161.65 129.761 161.65C128.911 161.65 128.331 161.27 128.331 160.69C128.331 160.12 128.911 159.74 129.761 159.74ZM129.761 162.26C131.071 162.26 131.971 161.65 131.971 160.69C131.971 159.75 131.071 159.13 129.761 159.13C128.451 159.13 127.551 159.75 127.551 160.69C127.551 161.65 128.451 162.26 129.761 162.26ZM129.441 165.28H130.261V163.51C131.071 163.46 131.901 163.37 132.691 163.25L132.621 162.66C130.721 162.9 128.501 162.92 126.841 162.92L126.951 163.6C127.691 163.6 128.551 163.59 129.441 163.55V165.28ZM128.941 166.87V164.93H128.121V167.54H134.461V166.87H128.941ZM136.571 159.73V160.41H139.861C139.671 162.53 138.441 164.25 136.151 165.4L136.601 166.04C139.501 164.59 140.671 162.28 140.671 159.73H136.571ZM144.431 162.41H142.991V158.77H142.171V167.74H142.991V163.09H144.431V162.41ZM151.83 158.78V163.59H152.65V158.78H151.83ZM146.87 164.03V167.62H152.65V164.03H151.84V165.13H147.68V164.03H146.87ZM147.68 165.77H151.84V166.96H147.68V165.77ZM147.83 159.2C146.48 159.2 145.5 160.04 145.5 161.26C145.5 162.5 146.48 163.33 147.83 163.33C149.19 163.33 150.18 162.5 150.18 161.26C150.18 160.04 149.19 159.2 147.83 159.2ZM147.83 159.88C148.74 159.88 149.38 160.45 149.38 161.26C149.38 162.08 148.74 162.65 147.83 162.65C146.94 162.65 146.3 162.08 146.3 161.26C146.3 160.45 146.94 159.88 147.83 159.88ZM165.089 163.21H163.759C164.009 161.92 164.009 160.97 164.009 160.13V159.35H157.989V160.01H163.209V160.13C163.209 160.97 163.209 161.92 162.929 163.21H156.979V163.88H160.599V167.75H161.429V163.88H165.089V163.21ZM171.209 161.16V161.83H172.719V163.04H171.209V163.71H172.719V165.61H173.549V158.78H172.719V161.16H171.209ZM171.209 159.87H169.149V158.76H168.329V159.87H166.189V160.53H171.209V159.87ZM167.479 162.73C167.479 162.1 167.989 161.67 168.729 161.67C169.469 161.67 169.979 162.1 169.979 162.73C169.979 163.37 169.469 163.81 168.729 163.81C167.989 163.81 167.479 163.37 167.479 162.73ZM170.759 162.73C170.759 161.71 169.919 161.03 168.729 161.03C167.539 161.03 166.699 161.71 166.699 162.73C166.699 163.76 167.539 164.45 168.729 164.45C169.919 164.45 170.759 163.76 170.759 162.73ZM168.609 166.87V165.03H167.789V167.54H173.759V166.87H168.609Z" fill="black"/>
</svg>
