<svg width="1152" height="587" viewBox="0 0 1152 587" fill="none" xmlns="http://www.w3.org/2000/svg">
<path d="M0 0H1152V587H0V0Z" fill="white" fill-opacity="0.01"/>
<rect x="400.031" y="352.209" width="18" height="41" rx="5" transform="rotate(-64.2277 400.031 352.209)" fill="black"/>
<path d="M396.739 340.626L405.675 341.094L402.662 347.333L396.739 340.626Z" fill="black"/>
<path d="M413.791 346.22L413.535 346.812C414.137 346.546 414.764 346.57 415.415 346.885C416.147 347.238 416.51 347.759 416.503 348.448C416.799 348.28 417.122 348.186 417.475 348.165C417.83 348.146 418.198 348.228 418.578 348.412C419.726 348.966 420.016 349.856 419.449 351.081L417.756 354.587L416.861 354.155L418.528 350.702C418.709 350.328 418.758 350.008 418.676 349.741C418.595 349.472 418.353 349.24 417.95 349.045C417.618 348.885 417.294 348.852 416.978 348.946C416.664 349.037 416.408 349.241 416.211 349.559L414.534 353.032L413.635 352.598L415.29 349.168C415.658 348.407 415.469 347.847 414.724 347.487C414.137 347.204 413.615 347.26 413.158 347.656L411.313 351.477L410.418 351.045L412.945 345.811L413.791 346.22ZM422.341 356.801C422.339 356.673 422.386 356.469 422.481 356.189C421.857 356.42 421.256 356.397 420.679 356.118C420.163 355.869 419.809 355.519 419.617 355.069C419.43 354.616 419.444 354.166 419.661 353.718C419.924 353.173 420.334 352.85 420.892 352.75C421.454 352.647 422.111 352.778 422.862 353.14L423.733 353.561L423.931 353.15C424.082 352.837 424.108 352.543 424.01 352.269C423.913 351.992 423.683 351.765 423.319 351.589C422.999 351.435 422.693 351.387 422.399 351.443C422.105 351.5 421.903 351.643 421.792 351.872L420.893 351.438C421.019 351.177 421.232 350.97 421.533 350.816C421.838 350.662 422.183 350.59 422.567 350.6C422.955 350.613 423.339 350.711 423.72 350.894C424.323 351.185 424.722 351.565 424.917 352.033C425.114 352.498 425.092 352.998 424.849 353.533L423.686 355.942C423.454 356.422 423.331 356.834 423.317 357.177L423.279 357.254L422.341 356.801ZM421.185 355.402C421.466 355.538 421.767 355.594 422.088 355.57C422.41 355.546 422.683 355.446 422.908 355.268L423.427 354.194L422.725 353.856C421.629 353.326 420.926 353.382 420.616 354.024C420.481 354.305 420.468 354.569 420.579 354.817C420.69 355.066 420.892 355.261 421.185 355.402ZM425.47 358.312L424.576 357.88L427.102 352.647L427.997 353.079L425.47 358.312ZM427.7 351.224C427.77 351.078 427.873 350.977 428.008 350.919C428.147 350.863 428.303 350.877 428.477 350.961C428.651 351.045 428.759 351.158 428.801 351.302C428.843 351.446 428.829 351.59 428.759 351.735C428.689 351.88 428.586 351.979 428.449 352.032C428.312 352.086 428.156 352.07 427.982 351.986C427.808 351.902 427.699 351.79 427.655 351.649C427.615 351.511 427.63 351.369 427.7 351.224ZM430.28 354.181L429.992 354.853C430.634 354.543 431.278 354.544 431.923 354.855C433.029 355.389 433.286 356.282 432.693 357.535L431.023 360.993L430.128 360.561L431.8 357.098C431.979 356.719 432.027 356.398 431.943 356.135C431.863 355.874 431.643 355.656 431.285 355.484C430.995 355.344 430.703 355.298 430.409 355.347C430.115 355.396 429.846 355.516 429.602 355.709L427.802 359.438L426.907 359.006L429.434 353.772L430.28 354.181Z" fill="white"/>
<path d="M368.729 305.258V306H364.075V305.351L366.404 302.758C366.691 302.439 366.912 302.169 367.068 301.947C367.228 301.723 367.339 301.522 367.4 301.347C367.465 301.168 367.498 300.985 367.498 300.8C367.498 300.565 367.449 300.354 367.352 300.165C367.257 299.973 367.117 299.82 366.932 299.706C366.746 299.592 366.521 299.535 366.258 299.535C365.942 299.535 365.678 299.597 365.467 299.721C365.258 299.841 365.102 300.01 364.998 300.229C364.894 300.447 364.842 300.697 364.842 300.98H363.938C363.938 300.58 364.026 300.214 364.202 299.882C364.378 299.55 364.638 299.286 364.983 299.091C365.328 298.892 365.753 298.793 366.258 298.793C366.707 298.793 367.091 298.873 367.41 299.032C367.729 299.188 367.973 299.41 368.143 299.696C368.315 299.979 368.401 300.312 368.401 300.692C368.401 300.901 368.366 301.112 368.294 301.327C368.226 301.539 368.13 301.75 368.006 301.962C367.885 302.174 367.744 302.382 367.581 302.587C367.422 302.792 367.251 302.994 367.068 303.192L365.164 305.258H368.729ZM372.908 305.097V302.377C372.908 302.169 372.866 301.988 372.781 301.835C372.7 301.679 372.576 301.558 372.41 301.474C372.244 301.389 372.039 301.347 371.795 301.347C371.567 301.347 371.367 301.386 371.194 301.464C371.025 301.542 370.892 301.645 370.794 301.771C370.7 301.898 370.652 302.035 370.652 302.182H369.749C369.749 301.993 369.798 301.806 369.896 301.62C369.993 301.435 370.133 301.267 370.315 301.117C370.501 300.964 370.722 300.844 370.979 300.756C371.24 300.665 371.53 300.619 371.849 300.619C372.233 300.619 372.571 300.684 372.864 300.814C373.16 300.945 373.392 301.142 373.558 301.405C373.727 301.666 373.812 301.993 373.812 302.387V304.848C373.812 305.023 373.826 305.211 373.855 305.409C373.888 305.608 373.935 305.779 373.997 305.922V306H373.055C373.009 305.896 372.973 305.757 372.947 305.585C372.921 305.409 372.908 305.246 372.908 305.097ZM373.064 302.797L373.074 303.432H372.161C371.904 303.432 371.674 303.453 371.473 303.495C371.271 303.534 371.102 303.594 370.965 303.676C370.828 303.757 370.724 303.86 370.652 303.983C370.581 304.104 370.545 304.245 370.545 304.408C370.545 304.574 370.582 304.726 370.657 304.862C370.732 304.999 370.844 305.108 370.994 305.189C371.147 305.268 371.334 305.307 371.556 305.307C371.832 305.307 372.076 305.248 372.288 305.131C372.5 305.014 372.667 304.87 372.791 304.701C372.918 304.532 372.986 304.368 372.996 304.208L373.382 304.643C373.359 304.779 373.297 304.931 373.196 305.097C373.095 305.263 372.96 305.422 372.791 305.575C372.625 305.725 372.426 305.85 372.195 305.951C371.967 306.049 371.71 306.098 371.424 306.098C371.066 306.098 370.752 306.028 370.481 305.888C370.215 305.748 370.006 305.561 369.856 305.326C369.71 305.089 369.637 304.823 369.637 304.53C369.637 304.247 369.692 303.998 369.803 303.783C369.913 303.565 370.073 303.384 370.281 303.241C370.49 303.095 370.74 302.984 371.033 302.909C371.326 302.834 371.653 302.797 372.015 302.797H373.064ZM379.939 303.607V304.35H374.803V303.817L377.986 298.891H378.724L377.933 300.316L375.828 303.607H379.939ZM378.948 298.891V306H378.045V298.891H378.948ZM381.902 302.616L381.18 302.431L381.536 298.891H385.184V299.726H382.303L382.088 301.659C382.218 301.584 382.382 301.514 382.581 301.449C382.783 301.384 383.014 301.352 383.274 301.352C383.603 301.352 383.898 301.409 384.158 301.522C384.419 301.633 384.64 301.793 384.822 302.001C385.008 302.209 385.149 302.46 385.247 302.753C385.345 303.046 385.394 303.373 385.394 303.734C385.394 304.076 385.346 304.39 385.252 304.677C385.161 304.963 385.022 305.214 384.837 305.429C384.651 305.64 384.417 305.805 384.134 305.922C383.854 306.039 383.523 306.098 383.143 306.098C382.856 306.098 382.584 306.059 382.327 305.98C382.073 305.899 381.845 305.777 381.644 305.614C381.445 305.448 381.282 305.243 381.155 304.999C381.032 304.752 380.953 304.462 380.921 304.13H381.78C381.819 304.397 381.897 304.621 382.015 304.804C382.132 304.986 382.285 305.124 382.474 305.219C382.666 305.31 382.889 305.355 383.143 305.355C383.357 305.355 383.548 305.318 383.714 305.243C383.88 305.168 384.02 305.061 384.134 304.921C384.248 304.781 384.334 304.612 384.393 304.413C384.454 304.215 384.485 303.992 384.485 303.744C384.485 303.52 384.454 303.311 384.393 303.119C384.331 302.927 384.238 302.759 384.114 302.616C383.994 302.473 383.846 302.362 383.67 302.284C383.494 302.203 383.292 302.162 383.064 302.162C382.762 302.162 382.532 302.203 382.376 302.284C382.223 302.366 382.065 302.476 381.902 302.616ZM387.703 302.001H388.348C388.663 302.001 388.924 301.949 389.129 301.845C389.337 301.737 389.492 301.592 389.593 301.41C389.697 301.225 389.749 301.016 389.749 300.785C389.749 300.512 389.703 300.282 389.612 300.097C389.521 299.911 389.384 299.771 389.202 299.677C389.02 299.582 388.789 299.535 388.509 299.535C388.255 299.535 388.03 299.586 387.835 299.687C387.643 299.784 387.492 299.924 387.381 300.106C387.273 300.289 387.22 300.504 387.22 300.751H386.316C386.316 300.39 386.408 300.061 386.59 299.765C386.772 299.468 387.028 299.232 387.356 299.057C387.688 298.881 388.073 298.793 388.509 298.793C388.938 298.793 389.314 298.869 389.637 299.022C389.959 299.172 390.21 299.397 390.389 299.696C390.568 299.993 390.657 300.362 390.657 300.805C390.657 300.984 390.615 301.176 390.53 301.381C390.449 301.583 390.32 301.771 390.145 301.947C389.972 302.123 389.747 302.268 389.471 302.382C389.194 302.493 388.862 302.548 388.475 302.548H387.703V302.001ZM387.703 302.743V302.201H388.475C388.927 302.201 389.301 302.255 389.598 302.362C389.894 302.47 390.127 302.613 390.296 302.792C390.468 302.971 390.589 303.168 390.657 303.383C390.729 303.594 390.765 303.806 390.765 304.018C390.765 304.35 390.708 304.644 390.594 304.901C390.483 305.159 390.325 305.377 390.12 305.556C389.918 305.735 389.681 305.87 389.407 305.961C389.134 306.052 388.836 306.098 388.514 306.098C388.204 306.098 387.913 306.054 387.64 305.966C387.369 305.878 387.13 305.751 386.922 305.585C386.714 305.416 386.551 305.209 386.434 304.965C386.316 304.717 386.258 304.436 386.258 304.12H387.161C387.161 304.368 387.215 304.584 387.322 304.77C387.433 304.955 387.589 305.1 387.791 305.204C387.996 305.305 388.237 305.355 388.514 305.355C388.79 305.355 389.028 305.308 389.227 305.214C389.428 305.116 389.583 304.97 389.69 304.774C389.801 304.579 389.856 304.333 389.856 304.037C389.856 303.741 389.795 303.498 389.671 303.31C389.547 303.118 389.371 302.976 389.144 302.885C388.919 302.79 388.654 302.743 388.348 302.743H387.703ZM393.152 302.616L392.43 302.431L392.786 298.891H396.434V299.726H393.553L393.338 301.659C393.468 301.584 393.632 301.514 393.831 301.449C394.033 301.384 394.264 301.352 394.524 301.352C394.853 301.352 395.148 301.409 395.408 301.522C395.669 301.633 395.89 301.793 396.072 302.001C396.258 302.209 396.399 302.46 396.497 302.753C396.595 303.046 396.644 303.373 396.644 303.734C396.644 304.076 396.596 304.39 396.502 304.677C396.411 304.963 396.272 305.214 396.087 305.429C395.901 305.64 395.667 305.805 395.384 305.922C395.104 306.039 394.773 306.098 394.393 306.098C394.106 306.098 393.834 306.059 393.577 305.98C393.323 305.899 393.095 305.777 392.894 305.614C392.695 305.448 392.532 305.243 392.405 304.999C392.282 304.752 392.203 304.462 392.171 304.13H393.03C393.069 304.397 393.147 304.621 393.265 304.804C393.382 304.986 393.535 305.124 393.724 305.219C393.916 305.31 394.139 305.355 394.393 305.355C394.607 305.355 394.798 305.318 394.964 305.243C395.13 305.168 395.27 305.061 395.384 304.921C395.498 304.781 395.584 304.612 395.643 304.413C395.704 304.215 395.735 303.992 395.735 303.744C395.735 303.52 395.704 303.311 395.643 303.119C395.581 302.927 395.488 302.759 395.364 302.616C395.244 302.473 395.096 302.362 394.92 302.284C394.744 302.203 394.542 302.162 394.314 302.162C394.012 302.162 393.782 302.203 393.626 302.284C393.473 302.366 393.315 302.476 393.152 302.616ZM399.08 306H398.177V300.16C398.177 299.779 398.245 299.459 398.382 299.198C398.522 298.935 398.722 298.736 398.982 298.603C399.243 298.466 399.552 298.397 399.91 298.397C400.014 298.397 400.118 298.404 400.223 298.417C400.33 298.43 400.434 298.45 400.535 298.476L400.486 299.213C400.418 299.197 400.34 299.185 400.252 299.179C400.167 299.172 400.083 299.169 399.998 299.169C399.806 299.169 399.64 299.208 399.5 299.286C399.363 299.361 399.259 299.472 399.188 299.618C399.116 299.765 399.08 299.945 399.08 300.16V306ZM400.203 300.717V301.41H397.342V300.717H400.203ZM350.999 312.717V318H350.091V312.717H350.999ZM350.022 311.315C350.022 311.169 350.066 311.045 350.154 310.944C350.245 310.843 350.379 310.793 350.555 310.793C350.727 310.793 350.859 310.843 350.95 310.944C351.045 311.045 351.092 311.169 351.092 311.315C351.092 311.455 351.045 311.576 350.95 311.677C350.859 311.774 350.727 311.823 350.555 311.823C350.379 311.823 350.245 311.774 350.154 311.677C350.066 311.576 350.022 311.455 350.022 311.315ZM353.353 313.845V318H352.449V312.717H353.304L353.353 313.845ZM353.138 315.158L352.762 315.144C352.765 314.782 352.819 314.449 352.923 314.143C353.027 313.833 353.174 313.565 353.362 313.337C353.551 313.109 353.776 312.933 354.036 312.81C354.3 312.683 354.591 312.619 354.91 312.619C355.171 312.619 355.405 312.655 355.613 312.727C355.822 312.795 355.999 312.906 356.146 313.059C356.295 313.212 356.409 313.41 356.487 313.654C356.565 313.895 356.604 314.19 356.604 314.538V318H355.696V314.528C355.696 314.252 355.656 314.03 355.574 313.864C355.493 313.695 355.374 313.573 355.218 313.498C355.062 313.42 354.869 313.381 354.642 313.381C354.417 313.381 354.212 313.428 354.026 313.522C353.844 313.617 353.686 313.747 353.553 313.913C353.423 314.079 353.32 314.27 353.245 314.484C353.174 314.696 353.138 314.921 353.138 315.158ZM361.307 316.975V310.5H362.215V318H361.385L361.307 316.975ZM357.752 315.417V315.314C357.752 314.911 357.801 314.545 357.898 314.216C357.999 313.884 358.141 313.599 358.323 313.361C358.509 313.124 358.729 312.941 358.982 312.814C359.24 312.684 359.526 312.619 359.842 312.619C360.174 312.619 360.464 312.678 360.711 312.795C360.962 312.909 361.173 313.076 361.346 313.298C361.521 313.516 361.66 313.78 361.761 314.089C361.862 314.398 361.932 314.748 361.971 315.139V315.588C361.935 315.975 361.865 316.324 361.761 316.633C361.66 316.942 361.521 317.206 361.346 317.424C361.173 317.642 360.962 317.81 360.711 317.927C360.46 318.041 360.167 318.098 359.832 318.098C359.523 318.098 359.24 318.031 358.982 317.897C358.729 317.764 358.509 317.577 358.323 317.336C358.141 317.095 357.999 316.812 357.898 316.486C357.801 316.158 357.752 315.801 357.752 315.417ZM358.66 315.314V315.417C358.66 315.681 358.686 315.928 358.738 316.159C358.794 316.39 358.878 316.594 358.992 316.77C359.106 316.945 359.251 317.084 359.427 317.185C359.603 317.282 359.812 317.331 360.057 317.331C360.356 317.331 360.602 317.268 360.794 317.141C360.989 317.014 361.146 316.846 361.263 316.638C361.38 316.429 361.471 316.203 361.536 315.959V314.782C361.497 314.603 361.44 314.431 361.365 314.265C361.294 314.095 361.199 313.946 361.082 313.815C360.968 313.682 360.826 313.576 360.657 313.498C360.491 313.42 360.294 313.381 360.066 313.381C359.819 313.381 359.606 313.433 359.427 313.537C359.251 313.638 359.106 313.778 358.992 313.957C358.878 314.133 358.794 314.338 358.738 314.572C358.686 314.803 358.66 315.051 358.66 315.314ZM365.813 318.098C365.446 318.098 365.112 318.036 364.812 317.912C364.516 317.785 364.261 317.608 364.046 317.38C363.834 317.152 363.672 316.882 363.558 316.569C363.444 316.257 363.387 315.915 363.387 315.544V315.339C363.387 314.909 363.45 314.527 363.577 314.191C363.704 313.853 363.877 313.566 364.095 313.332C364.313 313.098 364.56 312.92 364.837 312.8C365.114 312.679 365.4 312.619 365.696 312.619C366.074 312.619 366.399 312.684 366.673 312.814C366.95 312.945 367.176 313.127 367.352 313.361C367.527 313.592 367.658 313.866 367.742 314.182C367.827 314.494 367.869 314.836 367.869 315.207V315.612H363.924V314.875H366.966V314.807C366.953 314.572 366.904 314.344 366.819 314.123C366.738 313.902 366.608 313.719 366.429 313.576C366.25 313.433 366.006 313.361 365.696 313.361C365.491 313.361 365.302 313.405 365.13 313.493C364.957 313.578 364.809 313.705 364.686 313.874C364.562 314.043 364.466 314.25 364.397 314.494C364.329 314.738 364.295 315.02 364.295 315.339V315.544C364.295 315.795 364.329 316.031 364.397 316.252C364.469 316.47 364.572 316.662 364.705 316.828C364.842 316.994 365.006 317.124 365.198 317.219C365.394 317.313 365.615 317.36 365.862 317.36C366.181 317.36 366.451 317.295 366.673 317.165C366.894 317.035 367.088 316.861 367.254 316.643L367.801 317.077C367.687 317.25 367.542 317.414 367.366 317.57C367.19 317.727 366.974 317.854 366.717 317.951C366.463 318.049 366.162 318.098 365.813 318.098ZM369.534 312.717L370.691 314.641L371.863 312.717H372.923L371.194 315.324L372.977 318H371.932L370.711 316.018L369.49 318H368.44L370.218 315.324L368.494 312.717H369.534ZM373.899 317.521C373.899 317.368 373.947 317.24 374.041 317.136C374.139 317.028 374.279 316.975 374.461 316.975C374.643 316.975 374.782 317.028 374.876 317.136C374.974 317.24 375.022 317.368 375.022 317.521C375.022 317.671 374.974 317.798 374.876 317.902C374.782 318.007 374.643 318.059 374.461 318.059C374.279 318.059 374.139 318.007 374.041 317.902C373.947 317.798 373.899 317.671 373.899 317.521ZM376.546 312.717H377.454V318.63C377.454 318.952 377.402 319.226 377.298 319.45C377.197 319.675 377.044 319.844 376.839 319.958C376.637 320.075 376.382 320.134 376.072 320.134C375.991 320.134 375.896 320.126 375.789 320.109C375.678 320.093 375.586 320.074 375.511 320.051L375.516 319.323C375.577 319.336 375.647 319.346 375.726 319.353C375.804 319.362 375.872 319.367 375.931 319.367C376.064 319.367 376.176 319.343 376.268 319.294C376.359 319.245 376.427 319.167 376.473 319.06C376.521 318.952 376.546 318.809 376.546 318.63V312.717ZM376.453 311.315C376.453 311.169 376.499 311.045 376.59 310.944C376.681 310.843 376.813 310.793 376.985 310.793C377.161 310.793 377.295 310.843 377.386 310.944C377.477 311.045 377.522 311.169 377.522 311.315C377.522 311.455 377.477 311.576 377.386 311.677C377.295 311.774 377.161 311.823 376.985 311.823C376.813 311.823 376.681 311.774 376.59 311.677C376.499 311.576 376.453 311.455 376.453 311.315ZM382.029 317.097V314.377C382.029 314.169 381.987 313.988 381.902 313.835C381.821 313.679 381.697 313.558 381.531 313.474C381.365 313.389 381.16 313.347 380.916 313.347C380.688 313.347 380.488 313.386 380.315 313.464C380.146 313.542 380.013 313.645 379.915 313.771C379.821 313.898 379.773 314.035 379.773 314.182H378.87C378.87 313.993 378.919 313.806 379.017 313.62C379.114 313.435 379.254 313.267 379.437 313.117C379.622 312.964 379.843 312.844 380.101 312.756C380.361 312.665 380.651 312.619 380.97 312.619C381.354 312.619 381.692 312.684 381.985 312.814C382.282 312.945 382.513 313.142 382.679 313.405C382.848 313.666 382.933 313.993 382.933 314.387V316.848C382.933 317.023 382.947 317.211 382.977 317.409C383.009 317.608 383.056 317.779 383.118 317.922V318H382.176C382.13 317.896 382.094 317.757 382.068 317.585C382.042 317.409 382.029 317.246 382.029 317.097ZM382.186 314.797L382.195 315.432H381.282C381.025 315.432 380.796 315.453 380.594 315.495C380.392 315.534 380.223 315.594 380.086 315.676C379.949 315.757 379.845 315.86 379.773 315.983C379.702 316.104 379.666 316.245 379.666 316.408C379.666 316.574 379.703 316.726 379.778 316.862C379.853 316.999 379.965 317.108 380.115 317.189C380.268 317.268 380.455 317.307 380.677 317.307C380.953 317.307 381.198 317.248 381.409 317.131C381.621 317.014 381.788 316.87 381.912 316.701C382.039 316.532 382.107 316.368 382.117 316.208L382.503 316.643C382.48 316.779 382.418 316.931 382.317 317.097C382.216 317.263 382.081 317.422 381.912 317.575C381.746 317.725 381.548 317.85 381.316 317.951C381.089 318.049 380.831 318.098 380.545 318.098C380.187 318.098 379.873 318.028 379.603 317.888C379.336 317.748 379.127 317.561 378.978 317.326C378.831 317.089 378.758 316.823 378.758 316.53C378.758 316.247 378.813 315.998 378.924 315.783C379.035 315.565 379.194 315.384 379.402 315.241C379.611 315.095 379.861 314.984 380.154 314.909C380.447 314.834 380.774 314.797 381.136 314.797H382.186ZM385.882 317.185L387.327 312.717H388.25L386.351 318H385.745L385.882 317.185ZM384.676 312.717L386.165 317.209L386.268 318H385.662L383.748 312.717H384.676ZM392.156 317.097V314.377C392.156 314.169 392.114 313.988 392.029 313.835C391.948 313.679 391.824 313.558 391.658 313.474C391.492 313.389 391.287 313.347 391.043 313.347C390.815 313.347 390.615 313.386 390.442 313.464C390.273 313.542 390.14 313.645 390.042 313.771C389.948 313.898 389.9 314.035 389.9 314.182H388.997C388.997 313.993 389.046 313.806 389.144 313.62C389.241 313.435 389.381 313.267 389.563 313.117C389.749 312.964 389.97 312.844 390.228 312.756C390.488 312.665 390.778 312.619 391.097 312.619C391.481 312.619 391.819 312.684 392.112 312.814C392.409 312.945 392.64 313.142 392.806 313.405C392.975 313.666 393.06 313.993 393.06 314.387V316.848C393.06 317.023 393.074 317.211 393.104 317.409C393.136 317.608 393.183 317.779 393.245 317.922V318H392.303C392.257 317.896 392.221 317.757 392.195 317.585C392.169 317.409 392.156 317.246 392.156 317.097ZM392.312 314.797L392.322 315.432H391.409C391.152 315.432 390.923 315.453 390.721 315.495C390.519 315.534 390.35 315.594 390.213 315.676C390.076 315.757 389.972 315.86 389.9 315.983C389.829 316.104 389.793 316.245 389.793 316.408C389.793 316.574 389.83 316.726 389.905 316.862C389.98 316.999 390.092 317.108 390.242 317.189C390.395 317.268 390.582 317.307 390.804 317.307C391.08 317.307 391.325 317.248 391.536 317.131C391.748 317.014 391.915 316.87 392.039 316.701C392.166 316.532 392.234 316.368 392.244 316.208L392.63 316.643C392.607 316.779 392.545 316.931 392.444 317.097C392.343 317.263 392.208 317.422 392.039 317.575C391.873 317.725 391.674 317.85 391.443 317.951C391.215 318.049 390.958 318.098 390.672 318.098C390.314 318.098 390 318.028 389.729 317.888C389.463 317.748 389.254 317.561 389.104 317.326C388.958 317.089 388.885 316.823 388.885 316.53C388.885 316.247 388.94 315.998 389.051 315.783C389.161 315.565 389.321 315.384 389.529 315.241C389.738 315.095 389.988 314.984 390.281 314.909C390.574 314.834 390.901 314.797 391.263 314.797H392.312ZM400.422 310.06V310.56C400.422 311.85 398.832 312.93 397.182 313.18L397.512 313.85C399.392 313.53 401.152 312.29 401.152 310.56V310.06H400.422ZM400.572 310.06V310.56C400.572 312.27 402.342 313.53 404.202 313.85L404.532 313.18C402.902 312.93 401.292 311.82 401.292 310.56V310.06H400.572ZM400.422 315.34V318.78H401.242V315.34H400.422ZM396.772 314.83V315.52H404.942V314.83H396.772ZM410.792 312.08V312.77H412.832V312.08H410.792ZM412.572 309.74V315.13H413.402V309.74H412.572ZM410.432 315.4C408.562 315.4 407.412 316.03 407.412 317.09C407.412 318.16 408.562 318.77 410.432 318.77C412.292 318.77 413.442 318.16 413.442 317.09C413.442 316.03 412.292 315.4 410.432 315.4ZM410.432 316.05C411.792 316.05 412.622 316.43 412.622 317.09C412.622 317.74 411.792 318.12 410.432 318.12C409.072 318.12 408.242 317.74 408.242 317.09C408.242 316.43 409.072 316.05 410.432 316.05ZM408.272 310.65V311.38C408.272 312.68 407.342 313.89 406.002 314.38L406.432 315.04C407.932 314.48 408.952 313.05 408.952 311.38V310.65H408.272ZM408.432 310.65V311.38C408.432 312.9 409.402 314.26 410.872 314.79L411.292 314.13C409.982 313.67 409.102 312.55 409.102 311.38V310.65H408.432ZM406.252 310.4V311.08H411.082V310.4H406.252Z" fill="black"/>
<circle cx="382.5" cy="335.5" r="9.5" fill="#4000C7"/>
<line x1="302" y1="335.5" x2="382" y2="335.5" stroke="#4000C7"/>
</svg>
