<svg width="1152" height="587" viewBox="0 0 1152 587" fill="none" xmlns="http://www.w3.org/2000/svg">
<path d="M0 0H1152V587H0V0Z" fill="white" fill-opacity="0.01"/>
<circle cx="382.5" cy="335.5" r="9" fill="white" stroke="#4000C7" stroke-dasharray="2 2"/>
<rect x="339" y="291" width="88" height="27" rx="13.5" fill="#7D7D7D"/>
<path d="M359.241 301.408V302.279H361.204V303.852H359.241V304.723H361.204V307.193H362.283V298.314H361.204V301.408H359.241ZM359.241 299.731H356.563V298.288H355.497V299.731H352.715V300.589H359.241V299.731ZM354.392 303.449C354.392 302.63 355.055 302.071 356.017 302.071C356.979 302.071 357.642 302.63 357.642 303.449C357.642 304.281 356.979 304.853 356.017 304.853C355.055 304.853 354.392 304.281 354.392 303.449ZM358.656 303.449C358.656 302.123 357.564 301.239 356.017 301.239C354.47 301.239 353.378 302.123 353.378 303.449C353.378 304.788 354.47 305.685 356.017 305.685C357.564 305.685 358.656 304.788 358.656 303.449ZM355.861 308.831V306.439H354.795V309.702H362.556V308.831H355.861ZM368.093 300.55H370.212V299.679H364.804V300.55H367.066V301.46C367.066 303.826 366.195 305.815 364.531 306.751L365.181 307.557C366.39 306.855 367.209 305.594 367.599 304.008C368.015 305.386 368.821 306.517 369.965 307.154L370.589 306.335C368.938 305.477 368.093 303.592 368.093 301.46V300.55ZM373.566 298.288V303.007H372.032V298.561H371.031V309.39H372.032V303.891H373.566V309.962H374.593V298.288H373.566ZM389.4 298.314H388.334V306.842H389.4V298.314ZM386.956 304.333C385.24 303.761 384.031 302.344 384.031 300.771V300.134H386.67V299.276H380.274V300.134H382.939V300.771C382.939 302.435 381.756 303.956 379.988 304.567L380.547 305.399C381.925 304.905 383.004 303.852 383.498 302.526C384.031 303.748 385.097 304.71 386.436 305.178L386.956 304.333ZM382.965 308.831V306.036H381.899V309.702H389.751V308.831H382.965ZM399.123 302.344H400.605V305.685H401.632V298.301H400.605V301.473H399.123V298.522H398.109V305.256H399.123V302.344ZM397.641 299.692H395.223V298.392H394.17V299.692H391.726V300.537H397.654L397.641 299.692ZM393.169 303.137C393.169 302.422 393.78 301.941 394.703 301.941C395.613 301.941 396.237 302.422 396.237 303.137C396.237 303.865 395.613 304.346 394.703 304.346C393.78 304.346 393.169 303.865 393.169 303.137ZM397.186 303.137C397.186 301.941 396.172 301.148 394.703 301.148C393.234 301.148 392.207 301.941 392.207 303.137C392.207 304.359 393.234 305.139 394.703 305.139C396.172 305.139 397.186 304.359 397.186 303.137ZM397.797 309.13C396.016 309.13 394.95 308.688 394.95 307.921C394.95 307.141 396.016 306.699 397.797 306.699C399.565 306.699 400.631 307.141 400.631 307.921C400.631 308.688 399.565 309.13 397.797 309.13ZM397.797 305.88C395.366 305.88 393.897 306.608 393.897 307.921C393.897 309.221 395.366 309.949 397.797 309.949C400.228 309.949 401.697 309.221 401.697 307.921C401.697 306.608 400.228 305.88 397.797 305.88ZM404.725 303.059C406.636 302.825 408.391 301.967 409.028 300.68C409.678 301.967 411.42 302.825 413.331 303.059L413.708 302.214C411.667 301.98 409.808 300.979 409.717 299.692H413.344V298.834H404.725V299.692H408.339C408.248 300.979 406.389 301.98 404.348 302.214L404.725 303.059ZM411.927 307.895C411.927 308.675 410.835 309.13 409.015 309.13C407.182 309.13 406.103 308.675 406.103 307.895C406.103 307.115 407.182 306.673 409.015 306.673C410.835 306.673 411.927 307.115 411.927 307.895ZM414.293 304.619V303.761H403.75V304.619H408.482V305.867C406.311 305.971 405.024 306.686 405.024 307.895C405.024 309.221 406.532 309.949 409.028 309.949C411.511 309.949 413.006 309.221 413.006 307.895C413.006 306.686 411.732 305.971 409.561 305.867V304.619H414.293Z" fill="white"/>
<path d="M383 355L378.849 359.013L384.4 360.601L383 355ZM274.335 398.963L274.35 399.462L274.335 398.963ZM152.748 416.234L152.385 415.89L152.748 416.234ZM141 439L144.769 434.626L139.097 433.549L141 439ZM381.3 359.134C378.357 366.206 370.179 375.471 353.428 383.257C336.683 391.041 311.401 397.33 274.32 398.463L274.35 399.462C311.523 398.327 336.948 392.021 353.85 384.164C370.746 376.311 379.154 366.892 382.224 359.519L381.3 359.134ZM274.32 398.463C222.935 400.033 195.294 401.407 179.105 403.865C171.005 405.096 165.734 406.602 161.777 408.561C157.809 410.524 155.192 412.928 152.385 415.89L153.11 416.578C155.884 413.651 158.406 411.345 162.221 409.457C166.046 407.564 171.201 406.077 179.255 404.854C195.371 402.406 222.944 401.033 274.35 399.462L274.32 398.463ZM152.385 415.89C145.926 422.704 142.728 429.662 141.359 434.441L142.32 434.717C143.649 430.079 146.772 423.266 153.11 416.578L152.385 415.89Z" fill="#4000C7"/>
<path d="M119.438 472.717V478H118.53V472.717H119.438ZM118.462 471.315C118.462 471.169 118.506 471.045 118.594 470.944C118.685 470.843 118.818 470.793 118.994 470.793C119.167 470.793 119.299 470.843 119.39 470.944C119.484 471.045 119.531 471.169 119.531 471.315C119.531 471.455 119.484 471.576 119.39 471.677C119.299 471.774 119.167 471.823 118.994 471.823C118.818 471.823 118.685 471.774 118.594 471.677C118.506 471.576 118.462 471.455 118.462 471.315ZM121.792 473.845V478H120.889V472.717H121.743L121.792 473.845ZM121.577 475.158L121.201 475.144C121.204 474.782 121.258 474.449 121.362 474.143C121.466 473.833 121.613 473.565 121.802 473.337C121.991 473.109 122.215 472.933 122.476 472.81C122.739 472.683 123.031 472.619 123.35 472.619C123.61 472.619 123.844 472.655 124.053 472.727C124.261 472.795 124.438 472.906 124.585 473.059C124.735 473.212 124.849 473.41 124.927 473.654C125.005 473.895 125.044 474.19 125.044 474.538V478H124.136V474.528C124.136 474.252 124.095 474.03 124.014 473.864C123.932 473.695 123.813 473.573 123.657 473.498C123.501 473.42 123.309 473.381 123.081 473.381C122.856 473.381 122.651 473.428 122.466 473.522C122.284 473.617 122.126 473.747 121.992 473.913C121.862 474.079 121.759 474.27 121.685 474.484C121.613 474.696 121.577 474.921 121.577 475.158ZM129.746 476.975V470.5H130.654V478H129.824L129.746 476.975ZM126.191 475.417V475.314C126.191 474.911 126.24 474.545 126.338 474.216C126.439 473.884 126.58 473.599 126.763 473.361C126.948 473.124 127.168 472.941 127.422 472.814C127.679 472.684 127.965 472.619 128.281 472.619C128.613 472.619 128.903 472.678 129.15 472.795C129.401 472.909 129.613 473.076 129.785 473.298C129.961 473.516 130.099 473.78 130.2 474.089C130.301 474.398 130.371 474.748 130.41 475.139V475.588C130.374 475.975 130.304 476.324 130.2 476.633C130.099 476.942 129.961 477.206 129.785 477.424C129.613 477.642 129.401 477.81 129.15 477.927C128.9 478.041 128.607 478.098 128.271 478.098C127.962 478.098 127.679 478.031 127.422 477.897C127.168 477.764 126.948 477.577 126.763 477.336C126.58 477.095 126.439 476.812 126.338 476.486C126.24 476.158 126.191 475.801 126.191 475.417ZM127.1 475.314V475.417C127.1 475.681 127.126 475.928 127.178 476.159C127.233 476.39 127.318 476.594 127.432 476.77C127.546 476.945 127.69 477.084 127.866 477.185C128.042 477.282 128.252 477.331 128.496 477.331C128.796 477.331 129.041 477.268 129.233 477.141C129.429 477.014 129.585 476.846 129.702 476.638C129.819 476.429 129.91 476.203 129.976 475.959V474.782C129.937 474.603 129.88 474.431 129.805 474.265C129.733 474.095 129.639 473.946 129.521 473.815C129.408 473.682 129.266 473.576 129.097 473.498C128.931 473.42 128.734 473.381 128.506 473.381C128.258 473.381 128.045 473.433 127.866 473.537C127.69 473.638 127.546 473.778 127.432 473.957C127.318 474.133 127.233 474.338 127.178 474.572C127.126 474.803 127.1 475.051 127.1 475.314ZM134.253 478.098C133.885 478.098 133.551 478.036 133.252 477.912C132.956 477.785 132.7 477.608 132.485 477.38C132.274 477.152 132.111 476.882 131.997 476.569C131.883 476.257 131.826 475.915 131.826 475.544V475.339C131.826 474.909 131.89 474.527 132.017 474.191C132.144 473.853 132.316 473.566 132.534 473.332C132.752 473.098 133 472.92 133.276 472.8C133.553 472.679 133.84 472.619 134.136 472.619C134.513 472.619 134.839 472.684 135.112 472.814C135.389 472.945 135.615 473.127 135.791 473.361C135.967 473.592 136.097 473.866 136.182 474.182C136.266 474.494 136.309 474.836 136.309 475.207V475.612H132.363V474.875H135.405V474.807C135.392 474.572 135.343 474.344 135.259 474.123C135.177 473.902 135.047 473.719 134.868 473.576C134.689 473.433 134.445 473.361 134.136 473.361C133.931 473.361 133.742 473.405 133.569 473.493C133.397 473.578 133.249 473.705 133.125 473.874C133.001 474.043 132.905 474.25 132.837 474.494C132.769 474.738 132.734 475.02 132.734 475.339V475.544C132.734 475.795 132.769 476.031 132.837 476.252C132.909 476.47 133.011 476.662 133.145 476.828C133.281 476.994 133.446 477.124 133.638 477.219C133.833 477.313 134.054 477.36 134.302 477.36C134.621 477.36 134.891 477.295 135.112 477.165C135.334 477.035 135.527 476.861 135.693 476.643L136.24 477.077C136.126 477.25 135.981 477.414 135.806 477.57C135.63 477.727 135.413 477.854 135.156 477.951C134.902 478.049 134.601 478.098 134.253 478.098ZM137.974 472.717L139.131 474.641L140.303 472.717H141.362L139.634 475.324L141.416 478H140.371L139.15 476.018L137.93 478H136.88L138.657 475.324L136.934 472.717H137.974ZM142.339 477.521C142.339 477.368 142.386 477.24 142.48 477.136C142.578 477.028 142.718 476.975 142.9 476.975C143.083 476.975 143.221 477.028 143.315 477.136C143.413 477.24 143.462 477.368 143.462 477.521C143.462 477.671 143.413 477.798 143.315 477.902C143.221 478.007 143.083 478.059 142.9 478.059C142.718 478.059 142.578 478.007 142.48 477.902C142.386 477.798 142.339 477.671 142.339 477.521ZM144.985 472.717H145.894V478.63C145.894 478.952 145.841 479.226 145.737 479.45C145.636 479.675 145.483 479.844 145.278 479.958C145.076 480.075 144.821 480.134 144.512 480.134C144.43 480.134 144.336 480.126 144.229 480.109C144.118 480.093 144.025 480.074 143.95 480.051L143.955 479.323C144.017 479.336 144.087 479.346 144.165 479.353C144.243 479.362 144.312 479.367 144.37 479.367C144.504 479.367 144.616 479.343 144.707 479.294C144.798 479.245 144.867 479.167 144.912 479.06C144.961 478.952 144.985 478.809 144.985 478.63V472.717ZM144.893 471.315C144.893 471.169 144.938 471.045 145.029 470.944C145.12 470.843 145.252 470.793 145.425 470.793C145.601 470.793 145.734 470.843 145.825 470.944C145.916 471.045 145.962 471.169 145.962 471.315C145.962 471.455 145.916 471.576 145.825 471.677C145.734 471.774 145.601 471.823 145.425 471.823C145.252 471.823 145.12 471.774 145.029 471.677C144.938 471.576 144.893 471.455 144.893 471.315ZM150.469 477.097V474.377C150.469 474.169 150.426 473.988 150.342 473.835C150.26 473.679 150.137 473.558 149.971 473.474C149.805 473.389 149.6 473.347 149.355 473.347C149.128 473.347 148.927 473.386 148.755 473.464C148.586 473.542 148.452 473.645 148.354 473.771C148.26 473.898 148.213 474.035 148.213 474.182H147.31C147.31 473.993 147.358 473.806 147.456 473.62C147.554 473.435 147.694 473.267 147.876 473.117C148.062 472.964 148.283 472.844 148.54 472.756C148.8 472.665 149.09 472.619 149.409 472.619C149.793 472.619 150.132 472.684 150.425 472.814C150.721 472.945 150.952 473.142 151.118 473.405C151.287 473.666 151.372 473.993 151.372 474.387V476.848C151.372 477.023 151.387 477.211 151.416 477.409C151.449 477.608 151.496 477.779 151.558 477.922V478H150.615C150.57 477.896 150.534 477.757 150.508 477.585C150.482 477.409 150.469 477.246 150.469 477.097ZM150.625 474.797L150.635 475.432H149.722C149.465 475.432 149.235 475.453 149.033 475.495C148.831 475.534 148.662 475.594 148.525 475.676C148.389 475.757 148.285 475.86 148.213 475.983C148.141 476.104 148.105 476.245 148.105 476.408C148.105 476.574 148.143 476.726 148.218 476.862C148.293 476.999 148.405 477.108 148.555 477.189C148.708 477.268 148.895 477.307 149.116 477.307C149.393 477.307 149.637 477.248 149.849 477.131C150.06 477.014 150.228 476.87 150.352 476.701C150.479 476.532 150.547 476.368 150.557 476.208L150.942 476.643C150.92 476.779 150.858 476.931 150.757 477.097C150.656 477.263 150.521 477.422 150.352 477.575C150.186 477.725 149.987 477.85 149.756 477.951C149.528 478.049 149.271 478.098 148.984 478.098C148.626 478.098 148.312 478.028 148.042 477.888C147.775 477.748 147.567 477.561 147.417 477.326C147.271 477.089 147.197 476.823 147.197 476.53C147.197 476.247 147.253 475.998 147.363 475.783C147.474 475.565 147.633 475.384 147.842 475.241C148.05 475.095 148.301 474.984 148.594 474.909C148.887 474.834 149.214 474.797 149.575 474.797H150.625ZM154.321 477.185L155.767 472.717H156.689L154.79 478H154.185L154.321 477.185ZM153.115 472.717L154.604 477.209L154.707 478H154.102L152.188 472.717H153.115ZM160.596 477.097V474.377C160.596 474.169 160.553 473.988 160.469 473.835C160.387 473.679 160.264 473.558 160.098 473.474C159.932 473.389 159.727 473.347 159.482 473.347C159.255 473.347 159.054 473.386 158.882 473.464C158.713 473.542 158.579 473.645 158.481 473.771C158.387 473.898 158.34 474.035 158.34 474.182H157.437C157.437 473.993 157.485 473.806 157.583 473.62C157.681 473.435 157.821 473.267 158.003 473.117C158.188 472.964 158.41 472.844 158.667 472.756C158.927 472.665 159.217 472.619 159.536 472.619C159.92 472.619 160.259 472.684 160.552 472.814C160.848 472.945 161.079 473.142 161.245 473.405C161.414 473.666 161.499 473.993 161.499 474.387V476.848C161.499 477.023 161.514 477.211 161.543 477.409C161.576 477.608 161.623 477.779 161.685 477.922V478H160.742C160.697 477.896 160.661 477.757 160.635 477.585C160.609 477.409 160.596 477.246 160.596 477.097ZM160.752 474.797L160.762 475.432H159.849C159.591 475.432 159.362 475.453 159.16 475.495C158.958 475.534 158.789 475.594 158.652 475.676C158.516 475.757 158.411 475.86 158.34 475.983C158.268 476.104 158.232 476.245 158.232 476.408C158.232 476.574 158.27 476.726 158.345 476.862C158.42 476.999 158.532 477.108 158.682 477.189C158.835 477.268 159.022 477.307 159.243 477.307C159.52 477.307 159.764 477.248 159.976 477.131C160.187 477.014 160.355 476.87 160.479 476.701C160.605 476.532 160.674 476.368 160.684 476.208L161.069 476.643C161.047 476.779 160.985 476.931 160.884 477.097C160.783 477.263 160.648 477.422 160.479 477.575C160.312 477.725 160.114 477.85 159.883 477.951C159.655 478.049 159.398 478.098 159.111 478.098C158.753 478.098 158.439 478.028 158.169 477.888C157.902 477.748 157.694 477.561 157.544 477.326C157.397 477.089 157.324 476.823 157.324 476.53C157.324 476.247 157.38 475.998 157.49 475.783C157.601 475.565 157.76 475.384 157.969 475.241C158.177 475.095 158.428 474.984 158.721 474.909C159.014 474.834 159.341 474.797 159.702 474.797H160.752Z" fill="#4000C7"/>
<path d="M148.746 448.016L142.938 442.252C142.776 442.091 142.558 442 142.328 442H130.864C130.386 442 130 442.383 130 442.857V465.143C130 465.617 130.386 466 130.864 466H148.136C148.614 466 149 465.617 149 465.143V448.624C149 448.396 148.908 448.177 148.746 448.016ZM147.008 449.018H141.929V443.977L147.008 449.018ZM147.057 464.071H131.943V443.929H140.094V449.714C140.094 450.013 140.213 450.299 140.426 450.51C140.638 450.721 140.927 450.839 141.227 450.839H147.057V464.071ZM139.284 456.839H134.318C134.199 456.839 134.102 456.936 134.102 457.054V458.339C134.102 458.457 134.199 458.554 134.318 458.554H139.284C139.403 458.554 139.5 458.457 139.5 458.339V457.054C139.5 456.936 139.403 456.839 139.284 456.839ZM134.102 453.411V454.696C134.102 454.814 134.199 454.911 134.318 454.911H144.682C144.801 454.911 144.898 454.814 144.898 454.696V453.411C144.898 453.293 144.801 453.196 144.682 453.196H134.318C134.199 453.196 134.102 453.293 134.102 453.411Z" fill="#4000C7"/>
<rect x="319.031" y="150.209" width="18" height="41" rx="5" transform="rotate(-64.2277 319.031 150.209)" fill="black"/>
<rect x="400.031" y="352.209" width="18" height="41" rx="5" transform="rotate(-64.2277 400.031 352.209)" fill="black"/>
<path d="M315.739 138.626L324.675 139.094L321.662 145.333L315.739 138.626Z" fill="black"/>
<path d="M396.739 340.626L405.675 341.094L402.662 347.333L396.739 340.626Z" fill="black"/>
<path d="M332.791 144.22L332.535 144.812C333.137 144.546 333.764 144.57 334.415 144.885C335.147 145.238 335.51 145.759 335.503 146.448C335.799 146.28 336.122 146.186 336.475 146.165C336.83 146.146 337.198 146.228 337.578 146.412C338.726 146.966 339.016 147.856 338.449 149.081L336.756 152.587L335.861 152.155L337.528 148.702C337.709 148.328 337.758 148.008 337.676 147.741C337.595 147.472 337.353 147.24 336.95 147.045C336.618 146.885 336.294 146.852 335.978 146.946C335.664 147.037 335.408 147.241 335.211 147.559L333.534 151.032L332.635 150.598L334.29 147.168C334.658 146.407 334.469 145.847 333.724 145.487C333.137 145.204 332.615 145.26 332.158 145.656L330.313 149.477L329.418 149.045L331.945 143.811L332.791 144.22ZM341.341 154.801C341.339 154.673 341.386 154.469 341.481 154.189C340.857 154.42 340.256 154.397 339.679 154.118C339.163 153.869 338.809 153.519 338.617 153.069C338.43 152.616 338.444 152.166 338.661 151.718C338.924 151.173 339.334 150.85 339.892 150.75C340.454 150.647 341.111 150.778 341.862 151.14L342.733 151.561L342.931 151.15C343.082 150.837 343.108 150.543 343.01 150.269C342.913 149.992 342.683 149.765 342.319 149.589C341.999 149.435 341.693 149.387 341.399 149.443C341.105 149.5 340.903 149.643 340.792 149.872L339.893 149.438C340.019 149.177 340.232 148.97 340.533 148.816C340.838 148.662 341.183 148.59 341.567 148.6C341.955 148.613 342.339 148.711 342.72 148.894C343.323 149.185 343.722 149.565 343.917 150.033C344.114 150.498 344.092 150.998 343.849 151.533L342.686 153.942C342.454 154.422 342.331 154.834 342.317 155.177L342.279 155.254L341.341 154.801ZM340.185 153.402C340.466 153.538 340.767 153.594 341.088 153.57C341.41 153.546 341.683 153.446 341.908 153.268L342.427 152.194L341.725 151.856C340.629 151.326 339.926 151.382 339.616 152.024C339.481 152.305 339.468 152.569 339.579 152.817C339.69 153.066 339.892 153.261 340.185 153.402ZM344.47 156.312L343.576 155.88L346.102 150.647L346.997 151.079L344.47 156.312ZM346.7 149.224C346.77 149.078 346.873 148.977 347.008 148.919C347.147 148.863 347.303 148.877 347.477 148.961C347.651 149.045 347.759 149.158 347.801 149.302C347.843 149.446 347.829 149.59 347.759 149.735C347.689 149.88 347.586 149.979 347.449 150.032C347.312 150.086 347.156 150.07 346.982 149.986C346.808 149.902 346.699 149.79 346.655 149.649C346.615 149.511 346.63 149.369 346.7 149.224ZM349.28 152.181L348.992 152.853C349.634 152.543 350.278 152.544 350.923 152.855C352.029 153.389 352.286 154.282 351.693 155.535L350.023 158.993L349.128 158.561L350.8 155.098C350.979 154.719 351.027 154.398 350.943 154.135C350.863 153.874 350.643 153.656 350.285 153.484C349.995 153.344 349.703 153.298 349.409 153.347C349.115 153.396 348.846 153.516 348.602 153.709L346.802 157.438L345.907 157.006L348.434 151.772L349.28 152.181Z" fill="white"/>
<path d="M413.791 346.22L413.535 346.812C414.137 346.546 414.764 346.57 415.415 346.885C416.147 347.238 416.51 347.759 416.503 348.448C416.799 348.28 417.122 348.186 417.475 348.165C417.83 348.146 418.198 348.228 418.578 348.412C419.726 348.966 420.016 349.856 419.449 351.081L417.756 354.587L416.861 354.155L418.528 350.702C418.709 350.328 418.758 350.008 418.676 349.741C418.595 349.472 418.353 349.24 417.95 349.045C417.618 348.885 417.294 348.852 416.978 348.946C416.664 349.037 416.408 349.241 416.211 349.559L414.534 353.032L413.635 352.598L415.29 349.168C415.658 348.407 415.469 347.847 414.724 347.487C414.137 347.204 413.615 347.26 413.158 347.656L411.313 351.477L410.418 351.045L412.945 345.811L413.791 346.22ZM422.341 356.801C422.339 356.673 422.386 356.469 422.481 356.189C421.857 356.42 421.256 356.397 420.679 356.118C420.163 355.869 419.809 355.519 419.617 355.069C419.43 354.616 419.444 354.166 419.661 353.718C419.924 353.173 420.334 352.85 420.892 352.75C421.454 352.647 422.111 352.778 422.862 353.14L423.733 353.561L423.931 353.15C424.082 352.837 424.108 352.543 424.01 352.269C423.913 351.992 423.683 351.765 423.319 351.589C422.999 351.435 422.693 351.387 422.399 351.443C422.105 351.5 421.903 351.643 421.792 351.872L420.893 351.438C421.019 351.177 421.232 350.97 421.533 350.816C421.838 350.662 422.183 350.59 422.567 350.6C422.955 350.613 423.339 350.711 423.72 350.894C424.323 351.185 424.722 351.565 424.917 352.033C425.114 352.498 425.092 352.998 424.849 353.533L423.686 355.942C423.454 356.422 423.331 356.834 423.317 357.177L423.279 357.254L422.341 356.801ZM421.185 355.402C421.466 355.538 421.767 355.594 422.088 355.57C422.41 355.546 422.683 355.446 422.908 355.268L423.427 354.194L422.725 353.856C421.629 353.326 420.926 353.382 420.616 354.024C420.481 354.305 420.468 354.569 420.579 354.817C420.69 355.066 420.892 355.261 421.185 355.402ZM425.47 358.312L424.576 357.88L427.102 352.647L427.997 353.079L425.47 358.312ZM427.7 351.224C427.77 351.078 427.873 350.977 428.008 350.919C428.147 350.863 428.303 350.877 428.477 350.961C428.651 351.045 428.759 351.158 428.801 351.302C428.843 351.446 428.829 351.59 428.759 351.735C428.689 351.88 428.586 351.979 428.449 352.032C428.312 352.086 428.156 352.07 427.982 351.986C427.808 351.902 427.699 351.79 427.655 351.649C427.615 351.511 427.63 351.369 427.7 351.224ZM430.28 354.181L429.992 354.853C430.634 354.543 431.278 354.544 431.923 354.855C433.029 355.389 433.286 356.282 432.693 357.535L431.023 360.993L430.128 360.561L431.8 357.098C431.979 356.719 432.027 356.398 431.943 356.135C431.863 355.874 431.643 355.656 431.285 355.484C430.995 355.344 430.703 355.298 430.409 355.347C430.115 355.396 429.846 355.516 429.602 355.709L427.802 359.438L426.907 359.006L429.434 353.772L430.28 354.181Z" fill="white"/>
<circle cx="140.5" cy="133.5" r="9.5" fill="#4000C7"/>
<circle cx="140.5" cy="335.5" r="9.5" fill="#4000C7"/>
<circle cx="220.5" cy="133.5" r="9.5" fill="#4000C7"/>
<circle cx="220.5" cy="335.5" r="9.5" fill="#4000C7"/>
<circle cx="301.5" cy="133.5" r="9.5" fill="#4000C7"/>
<circle cx="301.5" cy="335.5" r="9.5" fill="#4000C7"/>
<line x1="141" y1="133.5" x2="302" y2="133.5" stroke="#4000C7"/>
<line x1="131" y1="335.5" x2="373" y2="335.5" stroke="#4000C7"/>
</svg>
