<svg width="1152" height="587" viewBox="0 0 1152 587" fill="none" xmlns="http://www.w3.org/2000/svg">
<path d="M0 0H1152V587H0V0Z" fill="white" fill-opacity="0.01"/>
<path d="M118.938 545.717V551H118.03V545.717H118.938ZM117.962 544.315C117.962 544.169 118.006 544.045 118.094 543.944C118.185 543.843 118.318 543.793 118.494 543.793C118.667 543.793 118.799 543.843 118.89 543.944C118.984 544.045 119.031 544.169 119.031 544.315C119.031 544.455 118.984 544.576 118.89 544.677C118.799 544.774 118.667 544.823 118.494 544.823C118.318 544.823 118.185 544.774 118.094 544.677C118.006 544.576 117.962 544.455 117.962 544.315ZM121.292 546.845V551H120.389V545.717H121.243L121.292 546.845ZM121.077 548.158L120.701 548.144C120.704 547.782 120.758 547.449 120.862 547.143C120.966 546.833 121.113 546.565 121.302 546.337C121.491 546.109 121.715 545.933 121.976 545.81C122.239 545.683 122.531 545.619 122.85 545.619C123.11 545.619 123.344 545.655 123.553 545.727C123.761 545.795 123.938 545.906 124.085 546.059C124.235 546.212 124.349 546.41 124.427 546.654C124.505 546.895 124.544 547.19 124.544 547.538V551H123.636V547.528C123.636 547.252 123.595 547.03 123.514 546.864C123.432 546.695 123.313 546.573 123.157 546.498C123.001 546.42 122.809 546.381 122.581 546.381C122.356 546.381 122.151 546.428 121.966 546.522C121.784 546.617 121.626 546.747 121.492 546.913C121.362 547.079 121.259 547.27 121.185 547.484C121.113 547.696 121.077 547.921 121.077 548.158ZM129.246 549.975V543.5H130.154V551H129.324L129.246 549.975ZM125.691 548.417V548.314C125.691 547.911 125.74 547.545 125.838 547.216C125.939 546.884 126.08 546.599 126.263 546.361C126.448 546.124 126.668 545.941 126.922 545.814C127.179 545.684 127.465 545.619 127.781 545.619C128.113 545.619 128.403 545.678 128.65 545.795C128.901 545.909 129.113 546.076 129.285 546.298C129.461 546.516 129.599 546.78 129.7 547.089C129.801 547.398 129.871 547.748 129.91 548.139V548.588C129.874 548.975 129.804 549.324 129.7 549.633C129.599 549.942 129.461 550.206 129.285 550.424C129.113 550.642 128.901 550.81 128.65 550.927C128.4 551.041 128.107 551.098 127.771 551.098C127.462 551.098 127.179 551.031 126.922 550.897C126.668 550.764 126.448 550.577 126.263 550.336C126.08 550.095 125.939 549.812 125.838 549.486C125.74 549.158 125.691 548.801 125.691 548.417ZM126.6 548.314V548.417C126.6 548.681 126.626 548.928 126.678 549.159C126.733 549.39 126.818 549.594 126.932 549.77C127.046 549.945 127.19 550.084 127.366 550.185C127.542 550.282 127.752 550.331 127.996 550.331C128.296 550.331 128.541 550.268 128.733 550.141C128.929 550.014 129.085 549.846 129.202 549.638C129.319 549.429 129.41 549.203 129.476 548.959V547.782C129.437 547.603 129.38 547.431 129.305 547.265C129.233 547.095 129.139 546.946 129.021 546.815C128.908 546.682 128.766 546.576 128.597 546.498C128.431 546.42 128.234 546.381 128.006 546.381C127.758 546.381 127.545 546.433 127.366 546.537C127.19 546.638 127.046 546.778 126.932 546.957C126.818 547.133 126.733 547.338 126.678 547.572C126.626 547.803 126.6 548.051 126.6 548.314ZM133.753 551.098C133.385 551.098 133.051 551.036 132.752 550.912C132.456 550.785 132.2 550.608 131.985 550.38C131.774 550.152 131.611 549.882 131.497 549.569C131.383 549.257 131.326 548.915 131.326 548.544V548.339C131.326 547.909 131.39 547.527 131.517 547.191C131.644 546.853 131.816 546.566 132.034 546.332C132.252 546.098 132.5 545.92 132.776 545.8C133.053 545.679 133.34 545.619 133.636 545.619C134.013 545.619 134.339 545.684 134.612 545.814C134.889 545.945 135.115 546.127 135.291 546.361C135.467 546.592 135.597 546.866 135.682 547.182C135.766 547.494 135.809 547.836 135.809 548.207V548.612H131.863V547.875H134.905V547.807C134.892 547.572 134.843 547.344 134.759 547.123C134.677 546.902 134.547 546.719 134.368 546.576C134.189 546.433 133.945 546.361 133.636 546.361C133.431 546.361 133.242 546.405 133.069 546.493C132.897 546.578 132.749 546.705 132.625 546.874C132.501 547.043 132.405 547.25 132.337 547.494C132.269 547.738 132.234 548.02 132.234 548.339V548.544C132.234 548.795 132.269 549.031 132.337 549.252C132.409 549.47 132.511 549.662 132.645 549.828C132.781 549.994 132.946 550.124 133.138 550.219C133.333 550.313 133.554 550.36 133.802 550.36C134.121 550.36 134.391 550.295 134.612 550.165C134.834 550.035 135.027 549.861 135.193 549.643L135.74 550.077C135.626 550.25 135.481 550.414 135.306 550.57C135.13 550.727 134.913 550.854 134.656 550.951C134.402 551.049 134.101 551.098 133.753 551.098ZM137.474 545.717L138.631 547.641L139.803 545.717H140.862L139.134 548.324L140.916 551H139.871L138.65 549.018L137.43 551H136.38L138.157 548.324L136.434 545.717H137.474ZM141.839 550.521C141.839 550.368 141.886 550.24 141.98 550.136C142.078 550.028 142.218 549.975 142.4 549.975C142.583 549.975 142.721 550.028 142.815 550.136C142.913 550.24 142.962 550.368 142.962 550.521C142.962 550.671 142.913 550.798 142.815 550.902C142.721 551.007 142.583 551.059 142.4 551.059C142.218 551.059 142.078 551.007 141.98 550.902C141.886 550.798 141.839 550.671 141.839 550.521ZM144.485 545.717H145.394V551.63C145.394 551.952 145.341 552.226 145.237 552.45C145.136 552.675 144.983 552.844 144.778 552.958C144.576 553.075 144.321 553.134 144.012 553.134C143.93 553.134 143.836 553.126 143.729 553.109C143.618 553.093 143.525 553.074 143.45 553.051L143.455 552.323C143.517 552.336 143.587 552.346 143.665 552.353C143.743 552.362 143.812 552.367 143.87 552.367C144.004 552.367 144.116 552.343 144.207 552.294C144.298 552.245 144.367 552.167 144.412 552.06C144.461 551.952 144.485 551.809 144.485 551.63V545.717ZM144.393 544.315C144.393 544.169 144.438 544.045 144.529 543.944C144.62 543.843 144.752 543.793 144.925 543.793C145.101 543.793 145.234 543.843 145.325 543.944C145.416 544.045 145.462 544.169 145.462 544.315C145.462 544.455 145.416 544.576 145.325 544.677C145.234 544.774 145.101 544.823 144.925 544.823C144.752 544.823 144.62 544.774 144.529 544.677C144.438 544.576 144.393 544.455 144.393 544.315ZM149.969 550.097V547.377C149.969 547.169 149.926 546.988 149.842 546.835C149.76 546.679 149.637 546.558 149.471 546.474C149.305 546.389 149.1 546.347 148.855 546.347C148.628 546.347 148.427 546.386 148.255 546.464C148.086 546.542 147.952 546.645 147.854 546.771C147.76 546.898 147.713 547.035 147.713 547.182H146.81C146.81 546.993 146.858 546.806 146.956 546.62C147.054 546.435 147.194 546.267 147.376 546.117C147.562 545.964 147.783 545.844 148.04 545.756C148.3 545.665 148.59 545.619 148.909 545.619C149.293 545.619 149.632 545.684 149.925 545.814C150.221 545.945 150.452 546.142 150.618 546.405C150.787 546.666 150.872 546.993 150.872 547.387V549.848C150.872 550.023 150.887 550.211 150.916 550.409C150.949 550.608 150.996 550.779 151.058 550.922V551H150.115C150.07 550.896 150.034 550.757 150.008 550.585C149.982 550.409 149.969 550.246 149.969 550.097ZM150.125 547.797L150.135 548.432H149.222C148.965 548.432 148.735 548.453 148.533 548.495C148.331 548.534 148.162 548.594 148.025 548.676C147.889 548.757 147.785 548.86 147.713 548.983C147.641 549.104 147.605 549.245 147.605 549.408C147.605 549.574 147.643 549.726 147.718 549.862C147.793 549.999 147.905 550.108 148.055 550.189C148.208 550.268 148.395 550.307 148.616 550.307C148.893 550.307 149.137 550.248 149.349 550.131C149.56 550.014 149.728 549.87 149.852 549.701C149.979 549.532 150.047 549.368 150.057 549.208L150.442 549.643C150.42 549.779 150.358 549.931 150.257 550.097C150.156 550.263 150.021 550.422 149.852 550.575C149.686 550.725 149.487 550.85 149.256 550.951C149.028 551.049 148.771 551.098 148.484 551.098C148.126 551.098 147.812 551.028 147.542 550.888C147.275 550.748 147.067 550.561 146.917 550.326C146.771 550.089 146.697 549.823 146.697 549.53C146.697 549.247 146.753 548.998 146.863 548.783C146.974 548.565 147.133 548.384 147.342 548.241C147.55 548.095 147.801 547.984 148.094 547.909C148.387 547.834 148.714 547.797 149.075 547.797H150.125ZM153.821 550.185L155.267 545.717H156.189L154.29 551H153.685L153.821 550.185ZM152.615 545.717L154.104 550.209L154.207 551H153.602L151.688 545.717H152.615ZM160.096 550.097V547.377C160.096 547.169 160.053 546.988 159.969 546.835C159.887 546.679 159.764 546.558 159.598 546.474C159.432 546.389 159.227 546.347 158.982 546.347C158.755 546.347 158.554 546.386 158.382 546.464C158.213 546.542 158.079 546.645 157.981 546.771C157.887 546.898 157.84 547.035 157.84 547.182H156.937C156.937 546.993 156.985 546.806 157.083 546.62C157.181 546.435 157.321 546.267 157.503 546.117C157.688 545.964 157.91 545.844 158.167 545.756C158.427 545.665 158.717 545.619 159.036 545.619C159.42 545.619 159.759 545.684 160.052 545.814C160.348 545.945 160.579 546.142 160.745 546.405C160.914 546.666 160.999 546.993 160.999 547.387V549.848C160.999 550.023 161.014 550.211 161.043 550.409C161.076 550.608 161.123 550.779 161.185 550.922V551H160.242C160.197 550.896 160.161 550.757 160.135 550.585C160.109 550.409 160.096 550.246 160.096 550.097ZM160.252 547.797L160.262 548.432H159.349C159.091 548.432 158.862 548.453 158.66 548.495C158.458 548.534 158.289 548.594 158.152 548.676C158.016 548.757 157.911 548.86 157.84 548.983C157.768 549.104 157.732 549.245 157.732 549.408C157.732 549.574 157.77 549.726 157.845 549.862C157.92 549.999 158.032 550.108 158.182 550.189C158.335 550.268 158.522 550.307 158.743 550.307C159.02 550.307 159.264 550.248 159.476 550.131C159.687 550.014 159.855 549.87 159.979 549.701C160.105 549.532 160.174 549.368 160.184 549.208L160.569 549.643C160.547 549.779 160.485 549.931 160.384 550.097C160.283 550.263 160.148 550.422 159.979 550.575C159.812 550.725 159.614 550.85 159.383 550.951C159.155 551.049 158.898 551.098 158.611 551.098C158.253 551.098 157.939 551.028 157.669 550.888C157.402 550.748 157.194 550.561 157.044 550.326C156.897 550.089 156.824 549.823 156.824 549.53C156.824 549.247 156.88 548.998 156.99 548.783C157.101 548.565 157.26 548.384 157.469 548.241C157.677 548.095 157.928 547.984 158.221 547.909C158.514 547.834 158.841 547.797 159.202 547.797H160.252Z" fill="#4000C7"/>
<path d="M148.746 521.016L142.938 515.252C142.776 515.091 142.558 515 142.328 515H130.864C130.386 515 130 515.383 130 515.857V538.143C130 538.617 130.386 539 130.864 539H148.136C148.614 539 149 538.617 149 538.143V521.624C149 521.396 148.908 521.177 148.746 521.016ZM147.008 522.018H141.929V516.977L147.008 522.018ZM147.057 537.071H131.943V516.929H140.094V522.714C140.094 523.013 140.213 523.299 140.426 523.51C140.638 523.721 140.927 523.839 141.227 523.839H147.057V537.071ZM139.284 529.839H134.318C134.199 529.839 134.102 529.936 134.102 530.054V531.339C134.102 531.457 134.199 531.554 134.318 531.554H139.284C139.403 531.554 139.5 531.457 139.5 531.339V530.054C139.5 529.936 139.403 529.839 139.284 529.839ZM134.102 526.411V527.696C134.102 527.814 134.199 527.911 134.318 527.911H144.682C144.801 527.911 144.898 527.814 144.898 527.696V526.411C144.898 526.293 144.801 526.196 144.682 526.196H134.318C134.199 526.196 134.102 526.293 134.102 526.411Z" fill="#4000C7"/>
<rect x="319.031" y="352.209" width="18" height="41" rx="5" transform="rotate(-64.2277 319.031 352.209)" fill="black"/>
<rect x="319.031" y="150.209" width="18" height="41" rx="5" transform="rotate(-64.2277 319.031 150.209)" fill="black"/>
<path d="M315.739 340.626L324.675 341.094L321.662 347.333L315.739 340.626Z" fill="black"/>
<path d="M315.739 138.626L324.675 139.094L321.662 145.333L315.739 138.626Z" fill="black"/>
<path d="M332.791 346.22L332.535 346.812C333.137 346.546 333.764 346.57 334.415 346.885C335.147 347.238 335.51 347.759 335.503 348.448C335.799 348.28 336.122 348.186 336.475 348.165C336.83 348.146 337.198 348.228 337.578 348.412C338.726 348.966 339.016 349.856 338.449 351.081L336.756 354.587L335.861 354.155L337.528 350.702C337.709 350.328 337.758 350.008 337.676 349.741C337.595 349.472 337.353 349.24 336.95 349.045C336.618 348.885 336.294 348.852 335.978 348.946C335.664 349.037 335.408 349.241 335.211 349.559L333.534 353.032L332.635 352.598L334.29 349.168C334.658 348.407 334.469 347.847 333.724 347.487C333.137 347.204 332.615 347.26 332.158 347.656L330.313 351.477L329.418 351.045L331.945 345.811L332.791 346.22ZM341.341 356.801C341.339 356.673 341.386 356.469 341.481 356.189C340.857 356.42 340.256 356.397 339.679 356.118C339.163 355.869 338.809 355.519 338.617 355.069C338.43 354.616 338.444 354.166 338.661 353.718C338.924 353.173 339.334 352.85 339.892 352.75C340.454 352.647 341.111 352.778 341.862 353.14L342.733 353.561L342.931 353.15C343.082 352.837 343.108 352.543 343.01 352.269C342.913 351.992 342.683 351.765 342.319 351.589C341.999 351.435 341.693 351.387 341.399 351.443C341.105 351.5 340.903 351.643 340.792 351.872L339.893 351.438C340.019 351.177 340.232 350.97 340.533 350.816C340.838 350.662 341.183 350.59 341.567 350.6C341.955 350.613 342.339 350.711 342.72 350.894C343.323 351.185 343.722 351.565 343.917 352.033C344.114 352.498 344.092 352.998 343.849 353.533L342.686 355.942C342.454 356.422 342.331 356.834 342.317 357.177L342.279 357.254L341.341 356.801ZM340.185 355.402C340.466 355.538 340.767 355.594 341.088 355.57C341.41 355.546 341.683 355.446 341.908 355.268L342.427 354.194L341.725 353.856C340.629 353.326 339.926 353.382 339.616 354.024C339.481 354.305 339.468 354.569 339.579 354.817C339.69 355.066 339.892 355.261 340.185 355.402ZM344.47 358.312L343.576 357.88L346.102 352.647L346.997 353.079L344.47 358.312ZM346.7 351.224C346.77 351.078 346.873 350.977 347.008 350.919C347.147 350.863 347.303 350.877 347.477 350.961C347.651 351.045 347.759 351.158 347.801 351.302C347.843 351.446 347.829 351.59 347.759 351.735C347.689 351.88 347.586 351.979 347.449 352.032C347.312 352.086 347.156 352.07 346.982 351.986C346.808 351.902 346.699 351.79 346.655 351.649C346.615 351.511 346.63 351.369 346.7 351.224ZM349.28 354.181L348.992 354.853C349.634 354.543 350.278 354.544 350.923 354.855C352.029 355.389 352.286 356.282 351.693 357.535L350.023 360.993L349.128 360.561L350.8 357.098C350.979 356.719 351.027 356.398 350.943 356.135C350.863 355.874 350.643 355.656 350.285 355.484C349.995 355.344 349.703 355.298 349.409 355.347C349.115 355.396 348.846 355.516 348.602 355.709L346.802 359.438L345.907 359.006L348.434 353.772L349.28 354.181Z" fill="white"/>
<path d="M332.791 144.22L332.535 144.812C333.137 144.546 333.764 144.57 334.415 144.885C335.147 145.238 335.51 145.759 335.503 146.448C335.799 146.28 336.122 146.186 336.475 146.165C336.83 146.146 337.198 146.228 337.578 146.412C338.726 146.966 339.016 147.856 338.449 149.081L336.756 152.587L335.861 152.155L337.528 148.702C337.709 148.328 337.758 148.008 337.676 147.741C337.595 147.472 337.353 147.24 336.95 147.045C336.618 146.885 336.294 146.852 335.978 146.946C335.664 147.037 335.408 147.241 335.211 147.559L333.534 151.032L332.635 150.598L334.29 147.168C334.658 146.407 334.469 145.847 333.724 145.487C333.137 145.204 332.615 145.26 332.158 145.656L330.313 149.477L329.418 149.045L331.945 143.811L332.791 144.22ZM341.341 154.801C341.339 154.673 341.386 154.469 341.481 154.189C340.857 154.42 340.256 154.397 339.679 154.118C339.163 153.869 338.809 153.519 338.617 153.069C338.43 152.616 338.444 152.166 338.661 151.718C338.924 151.173 339.334 150.85 339.892 150.75C340.454 150.647 341.111 150.778 341.862 151.14L342.733 151.561L342.931 151.15C343.082 150.837 343.108 150.543 343.01 150.269C342.913 149.992 342.683 149.765 342.319 149.589C341.999 149.435 341.693 149.387 341.399 149.443C341.105 149.5 340.903 149.643 340.792 149.872L339.893 149.438C340.019 149.177 340.232 148.97 340.533 148.816C340.838 148.662 341.183 148.59 341.567 148.6C341.955 148.613 342.339 148.711 342.72 148.894C343.323 149.185 343.722 149.565 343.917 150.033C344.114 150.498 344.092 150.998 343.849 151.533L342.686 153.942C342.454 154.422 342.331 154.834 342.317 155.177L342.279 155.254L341.341 154.801ZM340.185 153.402C340.466 153.538 340.767 153.594 341.088 153.57C341.41 153.546 341.683 153.446 341.908 153.268L342.427 152.194L341.725 151.856C340.629 151.326 339.926 151.382 339.616 152.024C339.481 152.305 339.468 152.569 339.579 152.817C339.69 153.066 339.892 153.261 340.185 153.402ZM344.47 156.312L343.576 155.88L346.102 150.647L346.997 151.079L344.47 156.312ZM346.7 149.224C346.77 149.078 346.873 148.977 347.008 148.919C347.147 148.863 347.303 148.877 347.477 148.961C347.651 149.045 347.759 149.158 347.801 149.302C347.843 149.446 347.829 149.59 347.759 149.735C347.689 149.88 347.586 149.979 347.449 150.032C347.312 150.086 347.156 150.07 346.982 149.986C346.808 149.902 346.699 149.79 346.655 149.649C346.615 149.511 346.63 149.369 346.7 149.224ZM349.28 152.181L348.992 152.853C349.634 152.543 350.278 152.544 350.923 152.855C352.029 153.389 352.286 154.282 351.693 155.535L350.023 158.993L349.128 158.561L350.8 155.098C350.979 154.719 351.027 154.398 350.943 154.135C350.863 153.874 350.643 153.656 350.285 153.484C349.995 153.344 349.703 153.298 349.409 153.347C349.115 153.396 348.846 153.516 348.602 153.709L346.802 157.438L345.907 157.006L348.434 151.772L349.28 152.181Z" fill="white"/>
<circle cx="140.5" cy="133.5" r="9.5" fill="#4000C7"/>
<circle cx="140.5" cy="335.5" r="9.5" fill="#4000C7"/>
<circle cx="220.5" cy="133.5" r="9.5" fill="#4000C7"/>
<circle cx="220.5" cy="335.5" r="9.5" fill="#4000C7"/>
<circle cx="301.5" cy="133.5" r="9.5" fill="#4000C7"/>
<circle cx="301.5" cy="335.5" r="9.5" fill="#4000C7"/>
<line x1="141" y1="133.5" x2="302" y2="133.5" stroke="#4000C7"/>
<line x1="131" y1="335.5" x2="302" y2="335.5" stroke="#4000C7"/>
</svg>
