<svg width="1152" height="587" viewBox="0 0 1152 587" fill="none" xmlns="http://www.w3.org/2000/svg">
<path d="M0 0H1152V587H0V0Z" fill="white" fill-opacity="0.01"/>
<rect x="400.031" y="150.209" width="18" height="41" rx="5" transform="rotate(-64.2277 400.031 150.209)" fill="black"/>
<path d="M396.739 138.626L405.675 139.094L402.662 145.333L396.739 138.626Z" fill="black"/>
<path d="M413.791 144.22L413.535 144.812C414.137 144.546 414.764 144.57 415.415 144.885C416.147 145.238 416.51 145.759 416.503 146.448C416.799 146.28 417.122 146.186 417.475 146.165C417.83 146.146 418.198 146.228 418.578 146.412C419.726 146.966 420.016 147.856 419.449 149.081L417.756 152.587L416.861 152.155L418.528 148.702C418.709 148.328 418.758 148.008 418.676 147.741C418.595 147.472 418.353 147.24 417.95 147.045C417.618 146.885 417.294 146.852 416.978 146.946C416.664 147.037 416.408 147.241 416.211 147.559L414.534 151.032L413.635 150.598L415.29 147.168C415.658 146.407 415.469 145.847 414.724 145.487C414.137 145.204 413.615 145.26 413.158 145.656L411.313 149.477L410.418 149.045L412.945 143.811L413.791 144.22ZM422.341 154.801C422.339 154.673 422.386 154.469 422.481 154.189C421.857 154.42 421.256 154.397 420.679 154.118C420.163 153.869 419.809 153.519 419.617 153.069C419.43 152.616 419.444 152.166 419.661 151.718C419.924 151.173 420.334 150.85 420.892 150.75C421.454 150.647 422.111 150.778 422.862 151.14L423.733 151.561L423.931 151.15C424.082 150.837 424.108 150.543 424.01 150.269C423.913 149.992 423.683 149.765 423.319 149.589C422.999 149.435 422.693 149.387 422.399 149.443C422.105 149.5 421.903 149.643 421.792 149.872L420.893 149.438C421.019 149.177 421.232 148.97 421.533 148.816C421.838 148.662 422.183 148.59 422.567 148.6C422.955 148.613 423.339 148.711 423.72 148.894C424.323 149.185 424.722 149.565 424.917 150.033C425.114 150.498 425.092 150.998 424.849 151.533L423.686 153.942C423.454 154.422 423.331 154.834 423.317 155.177L423.279 155.254L422.341 154.801ZM421.185 153.402C421.466 153.538 421.767 153.594 422.088 153.57C422.41 153.546 422.683 153.446 422.908 153.268L423.427 152.194L422.725 151.856C421.629 151.326 420.926 151.382 420.616 152.024C420.481 152.305 420.468 152.569 420.579 152.817C420.69 153.066 420.892 153.261 421.185 153.402ZM425.47 156.312L424.576 155.88L427.102 150.647L427.997 151.079L425.47 156.312ZM427.7 149.224C427.77 149.078 427.873 148.977 428.008 148.919C428.147 148.863 428.303 148.877 428.477 148.961C428.651 149.045 428.759 149.158 428.801 149.302C428.843 149.446 428.829 149.59 428.759 149.735C428.689 149.88 428.586 149.979 428.449 150.032C428.312 150.086 428.156 150.07 427.982 149.986C427.808 149.902 427.699 149.79 427.655 149.649C427.615 149.511 427.63 149.369 427.7 149.224ZM430.28 152.181L429.992 152.853C430.634 152.543 431.278 152.544 431.923 152.855C433.029 153.389 433.286 154.282 432.693 155.535L431.023 158.993L430.128 158.561L431.8 155.098C431.979 154.719 432.027 154.398 431.943 154.135C431.863 153.874 431.643 153.656 431.285 153.484C430.995 153.344 430.703 153.298 430.409 153.347C430.115 153.396 429.846 153.516 429.602 153.709L427.802 157.438L426.907 157.006L429.434 151.772L430.28 152.181Z" fill="white"/>
<path d="M366.57 96.8809H366.648V97.6475H366.57C366.092 97.6475 365.691 97.7256 365.369 97.8818C365.047 98.0348 364.791 98.2415 364.603 98.502C364.414 98.7591 364.277 99.0488 364.192 99.3711C364.111 99.6934 364.07 100.021 364.07 100.353V101.397C364.07 101.713 364.108 101.993 364.183 102.237C364.257 102.478 364.36 102.682 364.49 102.848C364.62 103.014 364.767 103.139 364.93 103.224C365.096 103.308 365.268 103.351 365.447 103.351C365.656 103.351 365.841 103.312 366.004 103.233C366.167 103.152 366.303 103.04 366.414 102.896C366.528 102.75 366.614 102.577 366.673 102.379C366.731 102.18 366.761 101.962 366.761 101.725C366.761 101.513 366.735 101.31 366.683 101.114C366.631 100.916 366.551 100.74 366.443 100.587C366.336 100.431 366.201 100.309 366.038 100.221C365.879 100.13 365.688 100.084 365.467 100.084C365.216 100.084 364.982 100.146 364.764 100.27C364.549 100.39 364.371 100.549 364.231 100.748C364.095 100.943 364.017 101.157 363.997 101.388L363.519 101.383C363.564 101.018 363.649 100.707 363.772 100.45C363.899 100.19 364.056 99.9782 364.241 99.8154C364.43 99.6494 364.64 99.529 364.871 99.4541C365.105 99.376 365.353 99.3369 365.613 99.3369C365.968 99.3369 366.274 99.4036 366.531 99.5371C366.788 99.6706 367 99.8496 367.166 100.074C367.332 100.296 367.454 100.546 367.532 100.826C367.614 101.103 367.654 101.388 367.654 101.681C367.654 102.016 367.607 102.33 367.513 102.623C367.418 102.916 367.277 103.173 367.088 103.395C366.902 103.616 366.673 103.788 366.399 103.912C366.126 104.036 365.809 104.098 365.447 104.098C365.063 104.098 364.728 104.02 364.441 103.863C364.155 103.704 363.917 103.492 363.729 103.229C363.54 102.965 363.398 102.672 363.304 102.35C363.209 102.027 363.162 101.7 363.162 101.368V100.943C363.162 100.442 363.213 99.9505 363.313 99.4688C363.414 98.987 363.589 98.5508 363.836 98.1602C364.087 97.7695 364.433 97.4587 364.876 97.2275C365.319 96.9964 365.883 96.8809 366.57 96.8809ZM368.821 96.5H369.729V102.975L369.651 104H368.821V96.5ZM373.299 101.314V101.417C373.299 101.801 373.253 102.158 373.162 102.486C373.071 102.812 372.938 103.095 372.762 103.336C372.586 103.577 372.371 103.764 372.117 103.897C371.863 104.031 371.572 104.098 371.243 104.098C370.908 104.098 370.613 104.041 370.359 103.927C370.109 103.81 369.897 103.642 369.725 103.424C369.552 103.206 369.414 102.942 369.31 102.633C369.209 102.324 369.139 101.975 369.1 101.588V101.139C369.139 100.748 369.209 100.398 369.31 100.089C369.414 99.7796 369.552 99.516 369.725 99.2979C369.897 99.0765 370.109 98.9089 370.359 98.7949C370.61 98.6777 370.901 98.6191 371.233 98.6191C371.565 98.6191 371.86 98.6842 372.117 98.8145C372.374 98.9414 372.589 99.1237 372.762 99.3613C372.938 99.599 373.071 99.8838 373.162 100.216C373.253 100.545 373.299 100.911 373.299 101.314ZM372.391 101.417V101.314C372.391 101.051 372.366 100.803 372.317 100.572C372.269 100.338 372.19 100.133 372.083 99.957C371.976 99.778 371.834 99.638 371.658 99.5371C371.482 99.4329 371.266 99.3809 371.009 99.3809C370.781 99.3809 370.582 99.4199 370.413 99.498C370.247 99.5762 370.105 99.682 369.988 99.8154C369.871 99.9456 369.775 100.095 369.7 100.265C369.629 100.431 369.575 100.603 369.539 100.782V101.959C369.591 102.187 369.676 102.407 369.793 102.618C369.913 102.826 370.073 102.997 370.271 103.131C370.473 103.264 370.722 103.331 371.019 103.331C371.263 103.331 371.471 103.282 371.644 103.185C371.819 103.084 371.961 102.945 372.068 102.77C372.179 102.594 372.26 102.39 372.312 102.159C372.365 101.928 372.391 101.681 372.391 101.417ZM379.148 101.607V102.35H374.012V101.817L377.195 96.8906H377.933L377.142 98.3164L375.037 101.607H379.148ZM378.157 96.8906V104H377.254V96.8906H378.157ZM381.287 100.001H381.932C382.247 100.001 382.508 99.9489 382.713 99.8447C382.921 99.7373 383.076 99.5924 383.177 99.4102C383.281 99.2246 383.333 99.0163 383.333 98.7852C383.333 98.5117 383.287 98.2822 383.196 98.0967C383.105 97.9111 382.968 97.7712 382.786 97.6768C382.604 97.5824 382.373 97.5352 382.093 97.5352C381.839 97.5352 381.614 97.5856 381.419 97.6865C381.227 97.7842 381.076 97.9242 380.965 98.1064C380.857 98.2887 380.804 98.5036 380.804 98.751H379.9C379.9 98.3896 379.992 98.0609 380.174 97.7646C380.356 97.4684 380.612 97.2324 380.94 97.0566C381.272 96.8809 381.657 96.793 382.093 96.793C382.522 96.793 382.898 96.8695 383.221 97.0225C383.543 97.1722 383.794 97.3968 383.973 97.6963C384.152 97.9925 384.241 98.362 384.241 98.8047C384.241 98.9837 384.199 99.1758 384.114 99.3809C384.033 99.5827 383.904 99.7715 383.729 99.9473C383.556 100.123 383.331 100.268 383.055 100.382C382.778 100.493 382.446 100.548 382.059 100.548H381.287V100.001ZM381.287 100.743V100.201H382.059C382.511 100.201 382.885 100.255 383.182 100.362C383.478 100.47 383.711 100.613 383.88 100.792C384.052 100.971 384.173 101.168 384.241 101.383C384.313 101.594 384.349 101.806 384.349 102.018C384.349 102.35 384.292 102.644 384.178 102.901C384.067 103.159 383.909 103.377 383.704 103.556C383.502 103.735 383.265 103.87 382.991 103.961C382.718 104.052 382.42 104.098 382.098 104.098C381.788 104.098 381.497 104.054 381.224 103.966C380.953 103.878 380.714 103.751 380.506 103.585C380.298 103.416 380.135 103.209 380.018 102.965C379.9 102.717 379.842 102.436 379.842 102.12H380.745C380.745 102.368 380.799 102.584 380.906 102.77C381.017 102.955 381.173 103.1 381.375 103.204C381.58 103.305 381.821 103.355 382.098 103.355C382.374 103.355 382.612 103.308 382.811 103.214C383.012 103.116 383.167 102.97 383.274 102.774C383.385 102.579 383.44 102.333 383.44 102.037C383.44 101.741 383.379 101.498 383.255 101.31C383.131 101.118 382.955 100.976 382.728 100.885C382.503 100.79 382.238 100.743 381.932 100.743H381.287ZM386.492 103.243H386.585C387.106 103.243 387.529 103.17 387.854 103.023C388.18 102.877 388.431 102.68 388.606 102.433C388.782 102.185 388.903 101.907 388.968 101.598C389.033 101.285 389.065 100.965 389.065 100.636V99.5469C389.065 99.2246 389.028 98.9382 388.953 98.6875C388.882 98.4368 388.781 98.2269 388.65 98.0576C388.523 97.8883 388.379 97.7598 388.216 97.6719C388.053 97.584 387.881 97.54 387.698 97.54C387.49 97.54 387.303 97.5824 387.137 97.667C386.974 97.7484 386.836 97.8639 386.722 98.0137C386.611 98.1634 386.526 98.3392 386.468 98.541C386.409 98.7428 386.38 98.9626 386.38 99.2002C386.38 99.4118 386.406 99.6169 386.458 99.8154C386.51 100.014 386.59 100.193 386.697 100.353C386.805 100.512 386.938 100.639 387.098 100.733C387.26 100.825 387.451 100.87 387.669 100.87C387.871 100.87 388.06 100.831 388.235 100.753C388.414 100.672 388.572 100.562 388.709 100.426C388.849 100.286 388.96 100.128 389.041 99.9521C389.126 99.7764 389.174 99.5924 389.188 99.4004H389.617C389.617 99.6706 389.563 99.9375 389.456 100.201C389.352 100.462 389.205 100.699 389.017 100.914C388.828 101.129 388.606 101.301 388.353 101.432C388.099 101.559 387.822 101.622 387.522 101.622C387.171 101.622 386.867 101.554 386.609 101.417C386.352 101.28 386.141 101.098 385.975 100.87C385.812 100.642 385.69 100.388 385.608 100.108C385.53 99.8252 385.491 99.5387 385.491 99.249C385.491 98.9105 385.538 98.5931 385.633 98.2969C385.727 98.0007 385.867 97.7402 386.053 97.5156C386.238 97.2878 386.468 97.1104 386.741 96.9834C387.018 96.8564 387.337 96.793 387.698 96.793C388.105 96.793 388.452 96.8743 388.738 97.0371C389.025 97.1999 389.257 97.418 389.437 97.6914C389.619 97.9648 389.752 98.2725 389.837 98.6143C389.922 98.9561 389.964 99.3076 389.964 99.6689V99.9961C389.964 100.364 389.939 100.738 389.891 101.119C389.845 101.497 389.756 101.858 389.622 102.203C389.492 102.548 389.301 102.857 389.051 103.131C388.8 103.401 388.473 103.616 388.069 103.775C387.669 103.932 387.174 104.01 386.585 104.01H386.492V103.243ZM392.361 100.616L391.639 100.431L391.995 96.8906H395.643V97.7256H392.762L392.547 99.6592C392.677 99.5843 392.841 99.5143 393.04 99.4492C393.242 99.3841 393.473 99.3516 393.733 99.3516C394.062 99.3516 394.357 99.4085 394.617 99.5225C394.878 99.6331 395.099 99.7926 395.281 100.001C395.467 100.209 395.608 100.46 395.706 100.753C395.804 101.046 395.853 101.373 395.853 101.734C395.853 102.076 395.805 102.39 395.711 102.677C395.62 102.963 395.481 103.214 395.296 103.429C395.11 103.64 394.876 103.805 394.593 103.922C394.313 104.039 393.982 104.098 393.602 104.098C393.315 104.098 393.043 104.059 392.786 103.98C392.532 103.899 392.304 103.777 392.103 103.614C391.904 103.448 391.741 103.243 391.614 102.999C391.491 102.752 391.412 102.462 391.38 102.13H392.239C392.278 102.397 392.356 102.621 392.474 102.804C392.591 102.986 392.744 103.124 392.933 103.219C393.125 103.31 393.348 103.355 393.602 103.355C393.816 103.355 394.007 103.318 394.173 103.243C394.339 103.168 394.479 103.061 394.593 102.921C394.707 102.781 394.793 102.612 394.852 102.413C394.913 102.215 394.944 101.992 394.944 101.744C394.944 101.52 394.913 101.311 394.852 101.119C394.79 100.927 394.697 100.759 394.573 100.616C394.453 100.473 394.305 100.362 394.129 100.284C393.953 100.203 393.751 100.162 393.523 100.162C393.221 100.162 392.991 100.203 392.835 100.284C392.682 100.366 392.524 100.476 392.361 100.616ZM399.056 103.355C399.271 103.355 399.469 103.312 399.651 103.224C399.834 103.136 399.983 103.015 400.101 102.862C400.218 102.706 400.285 102.529 400.301 102.33H401.16C401.144 102.643 401.038 102.934 400.843 103.204C400.651 103.471 400.398 103.688 400.086 103.854C399.773 104.016 399.43 104.098 399.056 104.098C398.659 104.098 398.312 104.028 398.016 103.888C397.723 103.748 397.479 103.556 397.283 103.312C397.091 103.067 396.946 102.787 396.849 102.472C396.754 102.153 396.707 101.816 396.707 101.461V101.256C396.707 100.901 396.754 100.566 396.849 100.25C396.946 99.931 397.091 99.6494 397.283 99.4053C397.479 99.1611 397.723 98.9691 398.016 98.8291C398.312 98.6891 398.659 98.6191 399.056 98.6191C399.469 98.6191 399.83 98.7038 400.14 98.873C400.449 99.0391 400.691 99.2669 400.867 99.5566C401.046 99.8431 401.144 100.169 401.16 100.533H400.301C400.285 100.315 400.223 100.118 400.115 99.9424C400.011 99.7666 399.868 99.6266 399.686 99.5225C399.507 99.415 399.297 99.3613 399.056 99.3613C398.779 99.3613 398.546 99.4167 398.357 99.5273C398.172 99.6348 398.024 99.7812 397.913 99.9668C397.806 100.149 397.728 100.353 397.679 100.577C397.633 100.799 397.61 101.025 397.61 101.256V101.461C397.61 101.692 397.633 101.92 397.679 102.145C397.724 102.369 397.801 102.573 397.908 102.755C398.019 102.937 398.167 103.084 398.353 103.194C398.541 103.302 398.776 103.355 399.056 103.355ZM350.999 110.717V116H350.091V110.717H350.999ZM350.022 109.315C350.022 109.169 350.066 109.045 350.154 108.944C350.245 108.843 350.379 108.793 350.555 108.793C350.727 108.793 350.859 108.843 350.95 108.944C351.045 109.045 351.092 109.169 351.092 109.315C351.092 109.455 351.045 109.576 350.95 109.677C350.859 109.774 350.727 109.823 350.555 109.823C350.379 109.823 350.245 109.774 350.154 109.677C350.066 109.576 350.022 109.455 350.022 109.315ZM353.353 111.845V116H352.449V110.717H353.304L353.353 111.845ZM353.138 113.158L352.762 113.144C352.765 112.782 352.819 112.449 352.923 112.143C353.027 111.833 353.174 111.565 353.362 111.337C353.551 111.109 353.776 110.933 354.036 110.81C354.3 110.683 354.591 110.619 354.91 110.619C355.171 110.619 355.405 110.655 355.613 110.727C355.822 110.795 355.999 110.906 356.146 111.059C356.295 111.212 356.409 111.41 356.487 111.654C356.565 111.895 356.604 112.19 356.604 112.538V116H355.696V112.528C355.696 112.252 355.656 112.03 355.574 111.864C355.493 111.695 355.374 111.573 355.218 111.498C355.062 111.42 354.869 111.381 354.642 111.381C354.417 111.381 354.212 111.428 354.026 111.522C353.844 111.617 353.686 111.747 353.553 111.913C353.423 112.079 353.32 112.27 353.245 112.484C353.174 112.696 353.138 112.921 353.138 113.158ZM361.307 114.975V108.5H362.215V116H361.385L361.307 114.975ZM357.752 113.417V113.314C357.752 112.911 357.801 112.545 357.898 112.216C357.999 111.884 358.141 111.599 358.323 111.361C358.509 111.124 358.729 110.941 358.982 110.814C359.24 110.684 359.526 110.619 359.842 110.619C360.174 110.619 360.464 110.678 360.711 110.795C360.962 110.909 361.173 111.076 361.346 111.298C361.521 111.516 361.66 111.78 361.761 112.089C361.862 112.398 361.932 112.748 361.971 113.139V113.588C361.935 113.975 361.865 114.324 361.761 114.633C361.66 114.942 361.521 115.206 361.346 115.424C361.173 115.642 360.962 115.81 360.711 115.927C360.46 116.041 360.167 116.098 359.832 116.098C359.523 116.098 359.24 116.031 358.982 115.897C358.729 115.764 358.509 115.577 358.323 115.336C358.141 115.095 357.999 114.812 357.898 114.486C357.801 114.158 357.752 113.801 357.752 113.417ZM358.66 113.314V113.417C358.66 113.681 358.686 113.928 358.738 114.159C358.794 114.39 358.878 114.594 358.992 114.77C359.106 114.945 359.251 115.084 359.427 115.185C359.603 115.282 359.812 115.331 360.057 115.331C360.356 115.331 360.602 115.268 360.794 115.141C360.989 115.014 361.146 114.846 361.263 114.638C361.38 114.429 361.471 114.203 361.536 113.959V112.782C361.497 112.603 361.44 112.431 361.365 112.265C361.294 112.095 361.199 111.946 361.082 111.815C360.968 111.682 360.826 111.576 360.657 111.498C360.491 111.42 360.294 111.381 360.066 111.381C359.819 111.381 359.606 111.433 359.427 111.537C359.251 111.638 359.106 111.778 358.992 111.957C358.878 112.133 358.794 112.338 358.738 112.572C358.686 112.803 358.66 113.051 358.66 113.314ZM365.813 116.098C365.446 116.098 365.112 116.036 364.812 115.912C364.516 115.785 364.261 115.608 364.046 115.38C363.834 115.152 363.672 114.882 363.558 114.569C363.444 114.257 363.387 113.915 363.387 113.544V113.339C363.387 112.909 363.45 112.527 363.577 112.191C363.704 111.853 363.877 111.566 364.095 111.332C364.313 111.098 364.56 110.92 364.837 110.8C365.114 110.679 365.4 110.619 365.696 110.619C366.074 110.619 366.399 110.684 366.673 110.814C366.95 110.945 367.176 111.127 367.352 111.361C367.527 111.592 367.658 111.866 367.742 112.182C367.827 112.494 367.869 112.836 367.869 113.207V113.612H363.924V112.875H366.966V112.807C366.953 112.572 366.904 112.344 366.819 112.123C366.738 111.902 366.608 111.719 366.429 111.576C366.25 111.433 366.006 111.361 365.696 111.361C365.491 111.361 365.302 111.405 365.13 111.493C364.957 111.578 364.809 111.705 364.686 111.874C364.562 112.043 364.466 112.25 364.397 112.494C364.329 112.738 364.295 113.02 364.295 113.339V113.544C364.295 113.795 364.329 114.031 364.397 114.252C364.469 114.47 364.572 114.662 364.705 114.828C364.842 114.994 365.006 115.124 365.198 115.219C365.394 115.313 365.615 115.36 365.862 115.36C366.181 115.36 366.451 115.295 366.673 115.165C366.894 115.035 367.088 114.861 367.254 114.643L367.801 115.077C367.687 115.25 367.542 115.414 367.366 115.57C367.19 115.727 366.974 115.854 366.717 115.951C366.463 116.049 366.162 116.098 365.813 116.098ZM369.534 110.717L370.691 112.641L371.863 110.717H372.923L371.194 113.324L372.977 116H371.932L370.711 114.018L369.49 116H368.44L370.218 113.324L368.494 110.717H369.534ZM373.899 115.521C373.899 115.368 373.947 115.24 374.041 115.136C374.139 115.028 374.279 114.975 374.461 114.975C374.643 114.975 374.782 115.028 374.876 115.136C374.974 115.24 375.022 115.368 375.022 115.521C375.022 115.671 374.974 115.798 374.876 115.902C374.782 116.007 374.643 116.059 374.461 116.059C374.279 116.059 374.139 116.007 374.041 115.902C373.947 115.798 373.899 115.671 373.899 115.521ZM376.546 110.717H377.454V116.63C377.454 116.952 377.402 117.226 377.298 117.45C377.197 117.675 377.044 117.844 376.839 117.958C376.637 118.075 376.382 118.134 376.072 118.134C375.991 118.134 375.896 118.126 375.789 118.109C375.678 118.093 375.586 118.074 375.511 118.051L375.516 117.323C375.577 117.336 375.647 117.346 375.726 117.353C375.804 117.362 375.872 117.367 375.931 117.367C376.064 117.367 376.176 117.343 376.268 117.294C376.359 117.245 376.427 117.167 376.473 117.06C376.521 116.952 376.546 116.809 376.546 116.63V110.717ZM376.453 109.315C376.453 109.169 376.499 109.045 376.59 108.944C376.681 108.843 376.813 108.793 376.985 108.793C377.161 108.793 377.295 108.843 377.386 108.944C377.477 109.045 377.522 109.169 377.522 109.315C377.522 109.455 377.477 109.576 377.386 109.677C377.295 109.774 377.161 109.823 376.985 109.823C376.813 109.823 376.681 109.774 376.59 109.677C376.499 109.576 376.453 109.455 376.453 109.315ZM382.029 115.097V112.377C382.029 112.169 381.987 111.988 381.902 111.835C381.821 111.679 381.697 111.558 381.531 111.474C381.365 111.389 381.16 111.347 380.916 111.347C380.688 111.347 380.488 111.386 380.315 111.464C380.146 111.542 380.013 111.645 379.915 111.771C379.821 111.898 379.773 112.035 379.773 112.182H378.87C378.87 111.993 378.919 111.806 379.017 111.62C379.114 111.435 379.254 111.267 379.437 111.117C379.622 110.964 379.843 110.844 380.101 110.756C380.361 110.665 380.651 110.619 380.97 110.619C381.354 110.619 381.692 110.684 381.985 110.814C382.282 110.945 382.513 111.142 382.679 111.405C382.848 111.666 382.933 111.993 382.933 112.387V114.848C382.933 115.023 382.947 115.211 382.977 115.409C383.009 115.608 383.056 115.779 383.118 115.922V116H382.176C382.13 115.896 382.094 115.757 382.068 115.585C382.042 115.409 382.029 115.246 382.029 115.097ZM382.186 112.797L382.195 113.432H381.282C381.025 113.432 380.796 113.453 380.594 113.495C380.392 113.534 380.223 113.594 380.086 113.676C379.949 113.757 379.845 113.86 379.773 113.983C379.702 114.104 379.666 114.245 379.666 114.408C379.666 114.574 379.703 114.726 379.778 114.862C379.853 114.999 379.965 115.108 380.115 115.189C380.268 115.268 380.455 115.307 380.677 115.307C380.953 115.307 381.198 115.248 381.409 115.131C381.621 115.014 381.788 114.87 381.912 114.701C382.039 114.532 382.107 114.368 382.117 114.208L382.503 114.643C382.48 114.779 382.418 114.931 382.317 115.097C382.216 115.263 382.081 115.422 381.912 115.575C381.746 115.725 381.548 115.85 381.316 115.951C381.089 116.049 380.831 116.098 380.545 116.098C380.187 116.098 379.873 116.028 379.603 115.888C379.336 115.748 379.127 115.561 378.978 115.326C378.831 115.089 378.758 114.823 378.758 114.53C378.758 114.247 378.813 113.998 378.924 113.783C379.035 113.565 379.194 113.384 379.402 113.241C379.611 113.095 379.861 112.984 380.154 112.909C380.447 112.834 380.774 112.797 381.136 112.797H382.186ZM385.882 115.185L387.327 110.717H388.25L386.351 116H385.745L385.882 115.185ZM384.676 110.717L386.165 115.209L386.268 116H385.662L383.748 110.717H384.676ZM392.156 115.097V112.377C392.156 112.169 392.114 111.988 392.029 111.835C391.948 111.679 391.824 111.558 391.658 111.474C391.492 111.389 391.287 111.347 391.043 111.347C390.815 111.347 390.615 111.386 390.442 111.464C390.273 111.542 390.14 111.645 390.042 111.771C389.948 111.898 389.9 112.035 389.9 112.182H388.997C388.997 111.993 389.046 111.806 389.144 111.62C389.241 111.435 389.381 111.267 389.563 111.117C389.749 110.964 389.97 110.844 390.228 110.756C390.488 110.665 390.778 110.619 391.097 110.619C391.481 110.619 391.819 110.684 392.112 110.814C392.409 110.945 392.64 111.142 392.806 111.405C392.975 111.666 393.06 111.993 393.06 112.387V114.848C393.06 115.023 393.074 115.211 393.104 115.409C393.136 115.608 393.183 115.779 393.245 115.922V116H392.303C392.257 115.896 392.221 115.757 392.195 115.585C392.169 115.409 392.156 115.246 392.156 115.097ZM392.312 112.797L392.322 113.432H391.409C391.152 113.432 390.923 113.453 390.721 113.495C390.519 113.534 390.35 113.594 390.213 113.676C390.076 113.757 389.972 113.86 389.9 113.983C389.829 114.104 389.793 114.245 389.793 114.408C389.793 114.574 389.83 114.726 389.905 114.862C389.98 114.999 390.092 115.108 390.242 115.189C390.395 115.268 390.582 115.307 390.804 115.307C391.08 115.307 391.325 115.248 391.536 115.131C391.748 115.014 391.915 114.87 392.039 114.701C392.166 114.532 392.234 114.368 392.244 114.208L392.63 114.643C392.607 114.779 392.545 114.931 392.444 115.097C392.343 115.263 392.208 115.422 392.039 115.575C391.873 115.725 391.674 115.85 391.443 115.951C391.215 116.049 390.958 116.098 390.672 116.098C390.314 116.098 390 116.028 389.729 115.888C389.463 115.748 389.254 115.561 389.104 115.326C388.958 115.089 388.885 114.823 388.885 114.53C388.885 114.247 388.94 113.998 389.051 113.783C389.161 113.565 389.321 113.384 389.529 113.241C389.738 113.095 389.988 112.984 390.281 112.909C390.574 112.834 390.901 112.797 391.263 112.797H392.312ZM400.422 108.06V108.56C400.422 109.85 398.832 110.93 397.182 111.18L397.512 111.85C399.392 111.53 401.152 110.29 401.152 108.56V108.06H400.422ZM400.572 108.06V108.56C400.572 110.27 402.342 111.53 404.202 111.85L404.532 111.18C402.902 110.93 401.292 109.82 401.292 108.56V108.06H400.572ZM400.422 113.34V116.78H401.242V113.34H400.422ZM396.772 112.83V113.52H404.942V112.83H396.772ZM410.792 110.08V110.77H412.832V110.08H410.792ZM412.572 107.74V113.13H413.402V107.74H412.572ZM410.432 113.4C408.562 113.4 407.412 114.03 407.412 115.09C407.412 116.16 408.562 116.77 410.432 116.77C412.292 116.77 413.442 116.16 413.442 115.09C413.442 114.03 412.292 113.4 410.432 113.4ZM410.432 114.05C411.792 114.05 412.622 114.43 412.622 115.09C412.622 115.74 411.792 116.12 410.432 116.12C409.072 116.12 408.242 115.74 408.242 115.09C408.242 114.43 409.072 114.05 410.432 114.05ZM408.272 108.65V109.38C408.272 110.68 407.342 111.89 406.002 112.38L406.432 113.04C407.932 112.48 408.952 111.05 408.952 109.38V108.65H408.272ZM408.432 108.65V109.38C408.432 110.9 409.402 112.26 410.872 112.79L411.292 112.13C409.982 111.67 409.102 110.55 409.102 109.38V108.65H408.432ZM406.252 108.4V109.08H411.082V108.4H406.252Z" fill="black"/>
<circle cx="382.5" cy="133.5" r="9.5" fill="#4000C7"/>
<line x1="305" y1="133.5" x2="391" y2="133.5" stroke="#4000C7"/>
<path d="M382.354 150.646C382.158 150.451 381.842 150.451 381.646 150.646L378.464 153.828C378.269 154.024 378.269 154.34 378.464 154.536C378.66 154.731 378.976 154.731 379.172 154.536L382 151.707L384.828 154.536C385.024 154.731 385.34 154.731 385.536 154.536C385.731 154.34 385.731 154.024 385.536 153.828L382.354 150.646ZM382.5 288V151H381.5V288H382.5Z" fill="#4000C7"/>
</svg>
