<svg width="1152" height="587" viewBox="0 0 1152 587" fill="none" xmlns="http://www.w3.org/2000/svg">
<path d="M0 0H1152V587H0V0Z" fill="white" fill-opacity="0.01"/>
<circle cx="382.5" cy="335.5" r="9" fill="white" stroke="#4000C7" stroke-dasharray="2 2"/>
<rect x="339" y="291" width="88" height="27" rx="13.5" fill="#7D7D7D"/>
<path d="M359.241 301.408V302.279H361.204V303.852H359.241V304.723H361.204V307.193H362.283V298.314H361.204V301.408H359.241ZM359.241 299.731H356.563V298.288H355.497V299.731H352.715V300.589H359.241V299.731ZM354.392 303.449C354.392 302.63 355.055 302.071 356.017 302.071C356.979 302.071 357.642 302.63 357.642 303.449C357.642 304.281 356.979 304.853 356.017 304.853C355.055 304.853 354.392 304.281 354.392 303.449ZM358.656 303.449C358.656 302.123 357.564 301.239 356.017 301.239C354.47 301.239 353.378 302.123 353.378 303.449C353.378 304.788 354.47 305.685 356.017 305.685C357.564 305.685 358.656 304.788 358.656 303.449ZM355.861 308.831V306.439H354.795V309.702H362.556V308.831H355.861ZM368.093 300.55H370.212V299.679H364.804V300.55H367.066V301.46C367.066 303.826 366.195 305.815 364.531 306.751L365.181 307.557C366.39 306.855 367.209 305.594 367.599 304.008C368.015 305.386 368.821 306.517 369.965 307.154L370.589 306.335C368.938 305.477 368.093 303.592 368.093 301.46V300.55ZM373.566 298.288V303.007H372.032V298.561H371.031V309.39H372.032V303.891H373.566V309.962H374.593V298.288H373.566ZM389.4 298.314H388.334V306.842H389.4V298.314ZM386.956 304.333C385.24 303.761 384.031 302.344 384.031 300.771V300.134H386.67V299.276H380.274V300.134H382.939V300.771C382.939 302.435 381.756 303.956 379.988 304.567L380.547 305.399C381.925 304.905 383.004 303.852 383.498 302.526C384.031 303.748 385.097 304.71 386.436 305.178L386.956 304.333ZM382.965 308.831V306.036H381.899V309.702H389.751V308.831H382.965ZM399.123 302.344H400.605V305.685H401.632V298.301H400.605V301.473H399.123V298.522H398.109V305.256H399.123V302.344ZM397.641 299.692H395.223V298.392H394.17V299.692H391.726V300.537H397.654L397.641 299.692ZM393.169 303.137C393.169 302.422 393.78 301.941 394.703 301.941C395.613 301.941 396.237 302.422 396.237 303.137C396.237 303.865 395.613 304.346 394.703 304.346C393.78 304.346 393.169 303.865 393.169 303.137ZM397.186 303.137C397.186 301.941 396.172 301.148 394.703 301.148C393.234 301.148 392.207 301.941 392.207 303.137C392.207 304.359 393.234 305.139 394.703 305.139C396.172 305.139 397.186 304.359 397.186 303.137ZM397.797 309.13C396.016 309.13 394.95 308.688 394.95 307.921C394.95 307.141 396.016 306.699 397.797 306.699C399.565 306.699 400.631 307.141 400.631 307.921C400.631 308.688 399.565 309.13 397.797 309.13ZM397.797 305.88C395.366 305.88 393.897 306.608 393.897 307.921C393.897 309.221 395.366 309.949 397.797 309.949C400.228 309.949 401.697 309.221 401.697 307.921C401.697 306.608 400.228 305.88 397.797 305.88ZM404.725 303.059C406.636 302.825 408.391 301.967 409.028 300.68C409.678 301.967 411.42 302.825 413.331 303.059L413.708 302.214C411.667 301.98 409.808 300.979 409.717 299.692H413.344V298.834H404.725V299.692H408.339C408.248 300.979 406.389 301.98 404.348 302.214L404.725 303.059ZM411.927 307.895C411.927 308.675 410.835 309.13 409.015 309.13C407.182 309.13 406.103 308.675 406.103 307.895C406.103 307.115 407.182 306.673 409.015 306.673C410.835 306.673 411.927 307.115 411.927 307.895ZM414.293 304.619V303.761H403.75V304.619H408.482V305.867C406.311 305.971 405.024 306.686 405.024 307.895C405.024 309.221 406.532 309.949 409.028 309.949C411.511 309.949 413.006 309.221 413.006 307.895C413.006 306.686 411.732 305.971 409.561 305.867V304.619H414.293Z" fill="white"/>
<path d="M383 355L378.849 359.013L384.4 360.601L383 355ZM274.335 398.963L274.35 399.462L274.335 398.963ZM152.748 416.234L152.385 415.89L152.748 416.234ZM141 439L144.769 434.626L139.097 433.549L141 439ZM381.3 359.134C378.357 366.206 370.179 375.471 353.428 383.257C336.683 391.041 311.401 397.33 274.32 398.463L274.35 399.462C311.523 398.327 336.948 392.021 353.85 384.164C370.746 376.311 379.154 366.892 382.224 359.519L381.3 359.134ZM274.32 398.463C222.935 400.033 195.294 401.407 179.105 403.865C171.005 405.096 165.734 406.602 161.777 408.561C157.809 410.524 155.192 412.928 152.385 415.89L153.11 416.578C155.884 413.651 158.406 411.345 162.221 409.457C166.046 407.564 171.201 406.077 179.255 404.854C195.371 402.406 222.944 401.033 274.35 399.462L274.32 398.463ZM152.385 415.89C145.926 422.704 142.728 429.662 141.359 434.441L142.32 434.717C143.649 430.079 146.772 423.266 153.11 416.578L152.385 415.89Z" fill="#4000C7"/>
<path d="M119.938 470.717V476H119.03V470.717H119.938ZM118.962 469.315C118.962 469.169 119.006 469.045 119.094 468.944C119.185 468.843 119.318 468.793 119.494 468.793C119.667 468.793 119.799 468.843 119.89 468.944C119.984 469.045 120.031 469.169 120.031 469.315C120.031 469.455 119.984 469.576 119.89 469.677C119.799 469.774 119.667 469.823 119.494 469.823C119.318 469.823 119.185 469.774 119.094 469.677C119.006 469.576 118.962 469.455 118.962 469.315ZM122.292 471.845V476H121.389V470.717H122.243L122.292 471.845ZM122.077 473.158L121.701 473.144C121.704 472.782 121.758 472.449 121.862 472.143C121.966 471.833 122.113 471.565 122.302 471.337C122.491 471.109 122.715 470.933 122.976 470.81C123.239 470.683 123.531 470.619 123.85 470.619C124.11 470.619 124.344 470.655 124.553 470.727C124.761 470.795 124.938 470.906 125.085 471.059C125.235 471.212 125.349 471.41 125.427 471.654C125.505 471.895 125.544 472.19 125.544 472.538V476H124.636V472.528C124.636 472.252 124.595 472.03 124.514 471.864C124.432 471.695 124.313 471.573 124.157 471.498C124.001 471.42 123.809 471.381 123.581 471.381C123.356 471.381 123.151 471.428 122.966 471.522C122.784 471.617 122.626 471.747 122.492 471.913C122.362 472.079 122.259 472.27 122.185 472.484C122.113 472.696 122.077 472.921 122.077 473.158ZM130.246 474.975V468.5H131.154V476H130.324L130.246 474.975ZM126.691 473.417V473.314C126.691 472.911 126.74 472.545 126.838 472.216C126.939 471.884 127.08 471.599 127.263 471.361C127.448 471.124 127.668 470.941 127.922 470.814C128.179 470.684 128.465 470.619 128.781 470.619C129.113 470.619 129.403 470.678 129.65 470.795C129.901 470.909 130.113 471.076 130.285 471.298C130.461 471.516 130.599 471.78 130.7 472.089C130.801 472.398 130.871 472.748 130.91 473.139V473.588C130.874 473.975 130.804 474.324 130.7 474.633C130.599 474.942 130.461 475.206 130.285 475.424C130.113 475.642 129.901 475.81 129.65 475.927C129.4 476.041 129.107 476.098 128.771 476.098C128.462 476.098 128.179 476.031 127.922 475.897C127.668 475.764 127.448 475.577 127.263 475.336C127.08 475.095 126.939 474.812 126.838 474.486C126.74 474.158 126.691 473.801 126.691 473.417ZM127.6 473.314V473.417C127.6 473.681 127.626 473.928 127.678 474.159C127.733 474.39 127.818 474.594 127.932 474.77C128.046 474.945 128.19 475.084 128.366 475.185C128.542 475.282 128.752 475.331 128.996 475.331C129.296 475.331 129.541 475.268 129.733 475.141C129.929 475.014 130.085 474.846 130.202 474.638C130.319 474.429 130.41 474.203 130.476 473.959V472.782C130.437 472.603 130.38 472.431 130.305 472.265C130.233 472.095 130.139 471.946 130.021 471.815C129.908 471.682 129.766 471.576 129.597 471.498C129.431 471.42 129.234 471.381 129.006 471.381C128.758 471.381 128.545 471.433 128.366 471.537C128.19 471.638 128.046 471.778 127.932 471.957C127.818 472.133 127.733 472.338 127.678 472.572C127.626 472.803 127.6 473.051 127.6 473.314ZM134.753 476.098C134.385 476.098 134.051 476.036 133.752 475.912C133.456 475.785 133.2 475.608 132.985 475.38C132.774 475.152 132.611 474.882 132.497 474.569C132.383 474.257 132.326 473.915 132.326 473.544V473.339C132.326 472.909 132.39 472.527 132.517 472.191C132.644 471.853 132.816 471.566 133.034 471.332C133.252 471.098 133.5 470.92 133.776 470.8C134.053 470.679 134.34 470.619 134.636 470.619C135.013 470.619 135.339 470.684 135.612 470.814C135.889 470.945 136.115 471.127 136.291 471.361C136.467 471.592 136.597 471.866 136.682 472.182C136.766 472.494 136.809 472.836 136.809 473.207V473.612H132.863V472.875H135.905V472.807C135.892 472.572 135.843 472.344 135.759 472.123C135.677 471.902 135.547 471.719 135.368 471.576C135.189 471.433 134.945 471.361 134.636 471.361C134.431 471.361 134.242 471.405 134.069 471.493C133.897 471.578 133.749 471.705 133.625 471.874C133.501 472.043 133.405 472.25 133.337 472.494C133.269 472.738 133.234 473.02 133.234 473.339V473.544C133.234 473.795 133.269 474.031 133.337 474.252C133.409 474.47 133.511 474.662 133.645 474.828C133.781 474.994 133.946 475.124 134.138 475.219C134.333 475.313 134.554 475.36 134.802 475.36C135.121 475.36 135.391 475.295 135.612 475.165C135.834 475.035 136.027 474.861 136.193 474.643L136.74 475.077C136.626 475.25 136.481 475.414 136.306 475.57C136.13 475.727 135.913 475.854 135.656 475.951C135.402 476.049 135.101 476.098 134.753 476.098ZM138.474 470.717L139.631 472.641L140.803 470.717H141.862L140.134 473.324L141.916 476H140.871L139.65 474.018L138.43 476H137.38L139.157 473.324L137.434 470.717H138.474ZM142.839 475.521C142.839 475.368 142.886 475.24 142.98 475.136C143.078 475.028 143.218 474.975 143.4 474.975C143.583 474.975 143.721 475.028 143.815 475.136C143.913 475.24 143.962 475.368 143.962 475.521C143.962 475.671 143.913 475.798 143.815 475.902C143.721 476.007 143.583 476.059 143.4 476.059C143.218 476.059 143.078 476.007 142.98 475.902C142.886 475.798 142.839 475.671 142.839 475.521ZM145.485 470.717H146.394V476.63C146.394 476.952 146.341 477.226 146.237 477.45C146.136 477.675 145.983 477.844 145.778 477.958C145.576 478.075 145.321 478.134 145.012 478.134C144.93 478.134 144.836 478.126 144.729 478.109C144.618 478.093 144.525 478.074 144.45 478.051L144.455 477.323C144.517 477.336 144.587 477.346 144.665 477.353C144.743 477.362 144.812 477.367 144.87 477.367C145.004 477.367 145.116 477.343 145.207 477.294C145.298 477.245 145.367 477.167 145.412 477.06C145.461 476.952 145.485 476.809 145.485 476.63V470.717ZM145.393 469.315C145.393 469.169 145.438 469.045 145.529 468.944C145.62 468.843 145.752 468.793 145.925 468.793C146.101 468.793 146.234 468.843 146.325 468.944C146.416 469.045 146.462 469.169 146.462 469.315C146.462 469.455 146.416 469.576 146.325 469.677C146.234 469.774 146.101 469.823 145.925 469.823C145.752 469.823 145.62 469.774 145.529 469.677C145.438 469.576 145.393 469.455 145.393 469.315ZM150.969 475.097V472.377C150.969 472.169 150.926 471.988 150.842 471.835C150.76 471.679 150.637 471.558 150.471 471.474C150.305 471.389 150.1 471.347 149.855 471.347C149.628 471.347 149.427 471.386 149.255 471.464C149.086 471.542 148.952 471.645 148.854 471.771C148.76 471.898 148.713 472.035 148.713 472.182H147.81C147.81 471.993 147.858 471.806 147.956 471.62C148.054 471.435 148.194 471.267 148.376 471.117C148.562 470.964 148.783 470.844 149.04 470.756C149.3 470.665 149.59 470.619 149.909 470.619C150.293 470.619 150.632 470.684 150.925 470.814C151.221 470.945 151.452 471.142 151.618 471.405C151.787 471.666 151.872 471.993 151.872 472.387V474.848C151.872 475.023 151.887 475.211 151.916 475.409C151.949 475.608 151.996 475.779 152.058 475.922V476H151.115C151.07 475.896 151.034 475.757 151.008 475.585C150.982 475.409 150.969 475.246 150.969 475.097ZM151.125 472.797L151.135 473.432H150.222C149.965 473.432 149.735 473.453 149.533 473.495C149.331 473.534 149.162 473.594 149.025 473.676C148.889 473.757 148.785 473.86 148.713 473.983C148.641 474.104 148.605 474.245 148.605 474.408C148.605 474.574 148.643 474.726 148.718 474.862C148.793 474.999 148.905 475.108 149.055 475.189C149.208 475.268 149.395 475.307 149.616 475.307C149.893 475.307 150.137 475.248 150.349 475.131C150.56 475.014 150.728 474.87 150.852 474.701C150.979 474.532 151.047 474.368 151.057 474.208L151.442 474.643C151.42 474.779 151.358 474.931 151.257 475.097C151.156 475.263 151.021 475.422 150.852 475.575C150.686 475.725 150.487 475.85 150.256 475.951C150.028 476.049 149.771 476.098 149.484 476.098C149.126 476.098 148.812 476.028 148.542 475.888C148.275 475.748 148.067 475.561 147.917 475.326C147.771 475.089 147.697 474.823 147.697 474.53C147.697 474.247 147.753 473.998 147.863 473.783C147.974 473.565 148.133 473.384 148.342 473.241C148.55 473.095 148.801 472.984 149.094 472.909C149.387 472.834 149.714 472.797 150.075 472.797H151.125ZM154.821 475.185L156.267 470.717H157.189L155.29 476H154.685L154.821 475.185ZM153.615 470.717L155.104 475.209L155.207 476H154.602L152.688 470.717H153.615ZM161.096 475.097V472.377C161.096 472.169 161.053 471.988 160.969 471.835C160.887 471.679 160.764 471.558 160.598 471.474C160.432 471.389 160.227 471.347 159.982 471.347C159.755 471.347 159.554 471.386 159.382 471.464C159.213 471.542 159.079 471.645 158.981 471.771C158.887 471.898 158.84 472.035 158.84 472.182H157.937C157.937 471.993 157.985 471.806 158.083 471.62C158.181 471.435 158.321 471.267 158.503 471.117C158.688 470.964 158.91 470.844 159.167 470.756C159.427 470.665 159.717 470.619 160.036 470.619C160.42 470.619 160.759 470.684 161.052 470.814C161.348 470.945 161.579 471.142 161.745 471.405C161.914 471.666 161.999 471.993 161.999 472.387V474.848C161.999 475.023 162.014 475.211 162.043 475.409C162.076 475.608 162.123 475.779 162.185 475.922V476H161.242C161.197 475.896 161.161 475.757 161.135 475.585C161.109 475.409 161.096 475.246 161.096 475.097ZM161.252 472.797L161.262 473.432H160.349C160.091 473.432 159.862 473.453 159.66 473.495C159.458 473.534 159.289 473.594 159.152 473.676C159.016 473.757 158.911 473.86 158.84 473.983C158.768 474.104 158.732 474.245 158.732 474.408C158.732 474.574 158.77 474.726 158.845 474.862C158.92 474.999 159.032 475.108 159.182 475.189C159.335 475.268 159.522 475.307 159.743 475.307C160.02 475.307 160.264 475.248 160.476 475.131C160.687 475.014 160.855 474.87 160.979 474.701C161.105 474.532 161.174 474.368 161.184 474.208L161.569 474.643C161.547 474.779 161.485 474.931 161.384 475.097C161.283 475.263 161.148 475.422 160.979 475.575C160.812 475.725 160.614 475.85 160.383 475.951C160.155 476.049 159.898 476.098 159.611 476.098C159.253 476.098 158.939 476.028 158.669 475.888C158.402 475.748 158.194 475.561 158.044 475.326C157.897 475.089 157.824 474.823 157.824 474.53C157.824 474.247 157.88 473.998 157.99 473.783C158.101 473.565 158.26 473.384 158.469 473.241C158.677 473.095 158.928 472.984 159.221 472.909C159.514 472.834 159.841 472.797 160.202 472.797H161.252Z" fill="#4000C7"/>
<path d="M148.746 448.016L142.938 442.252C142.776 442.091 142.558 442 142.328 442H130.864C130.386 442 130 442.383 130 442.857V465.143C130 465.617 130.386 466 130.864 466H148.136C148.614 466 149 465.617 149 465.143V448.624C149 448.396 148.908 448.177 148.746 448.016ZM147.008 449.018H141.929V443.977L147.008 449.018ZM147.057 464.071H131.943V443.929H140.094V449.714C140.094 450.013 140.213 450.299 140.426 450.51C140.638 450.721 140.927 450.839 141.227 450.839H147.057V464.071ZM139.284 456.839H134.318C134.199 456.839 134.102 456.936 134.102 457.054V458.339C134.102 458.457 134.199 458.554 134.318 458.554H139.284C139.403 458.554 139.5 458.457 139.5 458.339V457.054C139.5 456.936 139.403 456.839 139.284 456.839ZM134.102 453.411V454.696C134.102 454.814 134.199 454.911 134.318 454.911H144.682C144.801 454.911 144.898 454.814 144.898 454.696V453.411C144.898 453.293 144.801 453.196 144.682 453.196H134.318C134.199 453.196 134.102 453.293 134.102 453.411Z" fill="#4000C7"/>
<rect x="400.031" y="352.209" width="18" height="41" rx="5" transform="rotate(-64.2277 400.031 352.209)" fill="black"/>
<path d="M396.739 340.626L405.675 341.094L402.662 347.333L396.739 340.626Z" fill="black"/>
<path d="M413.791 346.22L413.535 346.812C414.137 346.546 414.764 346.57 415.415 346.885C416.147 347.238 416.51 347.759 416.503 348.448C416.799 348.28 417.122 348.186 417.475 348.165C417.83 348.146 418.198 348.228 418.578 348.412C419.726 348.966 420.016 349.856 419.449 351.081L417.756 354.587L416.861 354.155L418.528 350.702C418.709 350.328 418.758 350.008 418.676 349.741C418.595 349.472 418.353 349.24 417.95 349.045C417.618 348.885 417.294 348.852 416.978 348.946C416.664 349.037 416.408 349.241 416.211 349.559L414.534 353.032L413.635 352.598L415.29 349.168C415.658 348.407 415.469 347.847 414.724 347.487C414.137 347.204 413.615 347.26 413.158 347.656L411.313 351.477L410.418 351.045L412.945 345.811L413.791 346.22ZM422.341 356.801C422.339 356.673 422.386 356.469 422.481 356.189C421.857 356.42 421.256 356.397 420.679 356.118C420.163 355.869 419.809 355.519 419.617 355.069C419.43 354.616 419.444 354.166 419.661 353.718C419.924 353.173 420.334 352.85 420.892 352.75C421.454 352.647 422.111 352.778 422.862 353.14L423.733 353.561L423.931 353.15C424.082 352.837 424.108 352.543 424.01 352.269C423.913 351.992 423.683 351.765 423.319 351.589C422.999 351.435 422.693 351.387 422.399 351.443C422.105 351.5 421.903 351.643 421.792 351.872L420.893 351.438C421.019 351.177 421.232 350.97 421.533 350.816C421.838 350.662 422.183 350.59 422.567 350.6C422.955 350.613 423.339 350.711 423.72 350.894C424.323 351.185 424.722 351.565 424.917 352.033C425.114 352.498 425.092 352.998 424.849 353.533L423.686 355.942C423.454 356.422 423.331 356.834 423.317 357.177L423.279 357.254L422.341 356.801ZM421.185 355.402C421.466 355.538 421.767 355.594 422.088 355.57C422.41 355.546 422.683 355.446 422.908 355.268L423.427 354.194L422.725 353.856C421.629 353.326 420.926 353.382 420.616 354.024C420.481 354.305 420.468 354.569 420.579 354.817C420.69 355.066 420.892 355.261 421.185 355.402ZM425.47 358.312L424.576 357.88L427.102 352.647L427.997 353.079L425.47 358.312ZM427.7 351.224C427.77 351.078 427.873 350.977 428.008 350.919C428.147 350.863 428.303 350.877 428.477 350.961C428.651 351.045 428.759 351.158 428.801 351.302C428.843 351.446 428.829 351.59 428.759 351.735C428.689 351.88 428.586 351.979 428.449 352.032C428.312 352.086 428.156 352.07 427.982 351.986C427.808 351.902 427.699 351.79 427.655 351.649C427.615 351.511 427.63 351.369 427.7 351.224ZM430.28 354.181L429.992 354.853C430.634 354.543 431.278 354.544 431.923 354.855C433.029 355.389 433.286 356.282 432.693 357.535L431.023 360.993L430.128 360.561L431.8 357.098C431.979 356.719 432.027 356.398 431.943 356.135C431.863 355.874 431.643 355.656 431.285 355.484C430.995 355.344 430.703 355.298 430.409 355.347C430.115 355.396 429.846 355.516 429.602 355.709L427.802 359.438L426.907 359.006L429.434 353.772L430.28 354.181Z" fill="white"/>
<line x1="306" y1="335.5" x2="373" y2="335.5" stroke="#4000C7"/>
</svg>
