<svg width="1152" height="587" viewBox="0 0 1152 587" fill="none" xmlns="http://www.w3.org/2000/svg">
<path d="M0 0H1152V587H0V0Z" fill="white" fill-opacity="0.01"/>
<circle cx="382.5" cy="335.5" r="9" fill="white" stroke="#4000C7" stroke-dasharray="2 2"/>
<rect x="339" y="291" width="88" height="27" rx="13.5" fill="#7D7D7D"/>
<path d="M359.241 301.408V302.279H361.204V303.852H359.241V304.723H361.204V307.193H362.283V298.314H361.204V301.408H359.241ZM359.241 299.731H356.563V298.288H355.497V299.731H352.715V300.589H359.241V299.731ZM354.392 303.449C354.392 302.63 355.055 302.071 356.017 302.071C356.979 302.071 357.642 302.63 357.642 303.449C357.642 304.281 356.979 304.853 356.017 304.853C355.055 304.853 354.392 304.281 354.392 303.449ZM358.656 303.449C358.656 302.123 357.564 301.239 356.017 301.239C354.47 301.239 353.378 302.123 353.378 303.449C353.378 304.788 354.47 305.685 356.017 305.685C357.564 305.685 358.656 304.788 358.656 303.449ZM355.861 308.831V306.439H354.795V309.702H362.556V308.831H355.861ZM368.093 300.55H370.212V299.679H364.804V300.55H367.066V301.46C367.066 303.826 366.195 305.815 364.531 306.751L365.181 307.557C366.39 306.855 367.209 305.594 367.599 304.008C368.015 305.386 368.821 306.517 369.965 307.154L370.589 306.335C368.938 305.477 368.093 303.592 368.093 301.46V300.55ZM373.566 298.288V303.007H372.032V298.561H371.031V309.39H372.032V303.891H373.566V309.962H374.593V298.288H373.566ZM389.4 298.314H388.334V306.842H389.4V298.314ZM386.956 304.333C385.24 303.761 384.031 302.344 384.031 300.771V300.134H386.67V299.276H380.274V300.134H382.939V300.771C382.939 302.435 381.756 303.956 379.988 304.567L380.547 305.399C381.925 304.905 383.004 303.852 383.498 302.526C384.031 303.748 385.097 304.71 386.436 305.178L386.956 304.333ZM382.965 308.831V306.036H381.899V309.702H389.751V308.831H382.965ZM399.123 302.344H400.605V305.685H401.632V298.301H400.605V301.473H399.123V298.522H398.109V305.256H399.123V302.344ZM397.641 299.692H395.223V298.392H394.17V299.692H391.726V300.537H397.654L397.641 299.692ZM393.169 303.137C393.169 302.422 393.78 301.941 394.703 301.941C395.613 301.941 396.237 302.422 396.237 303.137C396.237 303.865 395.613 304.346 394.703 304.346C393.78 304.346 393.169 303.865 393.169 303.137ZM397.186 303.137C397.186 301.941 396.172 301.148 394.703 301.148C393.234 301.148 392.207 301.941 392.207 303.137C392.207 304.359 393.234 305.139 394.703 305.139C396.172 305.139 397.186 304.359 397.186 303.137ZM397.797 309.13C396.016 309.13 394.95 308.688 394.95 307.921C394.95 307.141 396.016 306.699 397.797 306.699C399.565 306.699 400.631 307.141 400.631 307.921C400.631 308.688 399.565 309.13 397.797 309.13ZM397.797 305.88C395.366 305.88 393.897 306.608 393.897 307.921C393.897 309.221 395.366 309.949 397.797 309.949C400.228 309.949 401.697 309.221 401.697 307.921C401.697 306.608 400.228 305.88 397.797 305.88ZM404.725 303.059C406.636 302.825 408.391 301.967 409.028 300.68C409.678 301.967 411.42 302.825 413.331 303.059L413.708 302.214C411.667 301.98 409.808 300.979 409.717 299.692H413.344V298.834H404.725V299.692H408.339C408.248 300.979 406.389 301.98 404.348 302.214L404.725 303.059ZM411.927 307.895C411.927 308.675 410.835 309.13 409.015 309.13C407.182 309.13 406.103 308.675 406.103 307.895C406.103 307.115 407.182 306.673 409.015 306.673C410.835 306.673 411.927 307.115 411.927 307.895ZM414.293 304.619V303.761H403.75V304.619H408.482V305.867C406.311 305.971 405.024 306.686 405.024 307.895C405.024 309.221 406.532 309.949 409.028 309.949C411.511 309.949 413.006 309.221 413.006 307.895C413.006 306.686 411.732 305.971 409.561 305.867V304.619H414.293Z" fill="white"/>
<path d="M383 355L378.849 359.013L384.4 360.601L383 355ZM274.335 398.963L274.35 399.462L274.335 398.963ZM152.748 416.234L152.385 415.89L152.748 416.234ZM141 439L144.769 434.626L139.097 433.549L141 439ZM381.3 359.134C378.357 366.206 370.179 375.471 353.428 383.257C336.683 391.041 311.401 397.33 274.32 398.463L274.35 399.462C311.523 398.327 336.948 392.021 353.85 384.164C370.746 376.311 379.154 366.892 382.224 359.519L381.3 359.134ZM274.32 398.463C222.935 400.033 195.294 401.407 179.105 403.865C171.005 405.096 165.734 406.602 161.777 408.561C157.809 410.524 155.192 412.928 152.385 415.89L153.11 416.578C155.884 413.651 158.406 411.345 162.221 409.457C166.046 407.564 171.201 406.077 179.255 404.854C195.371 402.406 222.944 401.033 274.35 399.462L274.32 398.463ZM152.385 415.89C145.926 422.704 142.728 429.662 141.359 434.441L142.32 434.717C143.649 430.079 146.772 423.266 153.11 416.578L152.385 415.89Z" fill="#4000C7"/>
<path d="M119.938 472.717V478H119.03V472.717H119.938ZM118.962 471.315C118.962 471.169 119.006 471.045 119.094 470.944C119.185 470.843 119.318 470.793 119.494 470.793C119.667 470.793 119.799 470.843 119.89 470.944C119.984 471.045 120.031 471.169 120.031 471.315C120.031 471.455 119.984 471.576 119.89 471.677C119.799 471.774 119.667 471.823 119.494 471.823C119.318 471.823 119.185 471.774 119.094 471.677C119.006 471.576 118.962 471.455 118.962 471.315ZM122.292 473.845V478H121.389V472.717H122.243L122.292 473.845ZM122.077 475.158L121.701 475.144C121.704 474.782 121.758 474.449 121.862 474.143C121.966 473.833 122.113 473.565 122.302 473.337C122.491 473.109 122.715 472.933 122.976 472.81C123.239 472.683 123.531 472.619 123.85 472.619C124.11 472.619 124.344 472.655 124.553 472.727C124.761 472.795 124.938 472.906 125.085 473.059C125.235 473.212 125.349 473.41 125.427 473.654C125.505 473.895 125.544 474.19 125.544 474.538V478H124.636V474.528C124.636 474.252 124.595 474.03 124.514 473.864C124.432 473.695 124.313 473.573 124.157 473.498C124.001 473.42 123.809 473.381 123.581 473.381C123.356 473.381 123.151 473.428 122.966 473.522C122.784 473.617 122.626 473.747 122.492 473.913C122.362 474.079 122.259 474.27 122.185 474.484C122.113 474.696 122.077 474.921 122.077 475.158ZM130.246 476.975V470.5H131.154V478H130.324L130.246 476.975ZM126.691 475.417V475.314C126.691 474.911 126.74 474.545 126.838 474.216C126.939 473.884 127.08 473.599 127.263 473.361C127.448 473.124 127.668 472.941 127.922 472.814C128.179 472.684 128.465 472.619 128.781 472.619C129.113 472.619 129.403 472.678 129.65 472.795C129.901 472.909 130.113 473.076 130.285 473.298C130.461 473.516 130.599 473.78 130.7 474.089C130.801 474.398 130.871 474.748 130.91 475.139V475.588C130.874 475.975 130.804 476.324 130.7 476.633C130.599 476.942 130.461 477.206 130.285 477.424C130.113 477.642 129.901 477.81 129.65 477.927C129.4 478.041 129.107 478.098 128.771 478.098C128.462 478.098 128.179 478.031 127.922 477.897C127.668 477.764 127.448 477.577 127.263 477.336C127.08 477.095 126.939 476.812 126.838 476.486C126.74 476.158 126.691 475.801 126.691 475.417ZM127.6 475.314V475.417C127.6 475.681 127.626 475.928 127.678 476.159C127.733 476.39 127.818 476.594 127.932 476.77C128.046 476.945 128.19 477.084 128.366 477.185C128.542 477.282 128.752 477.331 128.996 477.331C129.296 477.331 129.541 477.268 129.733 477.141C129.929 477.014 130.085 476.846 130.202 476.638C130.319 476.429 130.41 476.203 130.476 475.959V474.782C130.437 474.603 130.38 474.431 130.305 474.265C130.233 474.095 130.139 473.946 130.021 473.815C129.908 473.682 129.766 473.576 129.597 473.498C129.431 473.42 129.234 473.381 129.006 473.381C128.758 473.381 128.545 473.433 128.366 473.537C128.19 473.638 128.046 473.778 127.932 473.957C127.818 474.133 127.733 474.338 127.678 474.572C127.626 474.803 127.6 475.051 127.6 475.314ZM134.753 478.098C134.385 478.098 134.051 478.036 133.752 477.912C133.456 477.785 133.2 477.608 132.985 477.38C132.774 477.152 132.611 476.882 132.497 476.569C132.383 476.257 132.326 475.915 132.326 475.544V475.339C132.326 474.909 132.39 474.527 132.517 474.191C132.644 473.853 132.816 473.566 133.034 473.332C133.252 473.098 133.5 472.92 133.776 472.8C134.053 472.679 134.34 472.619 134.636 472.619C135.013 472.619 135.339 472.684 135.612 472.814C135.889 472.945 136.115 473.127 136.291 473.361C136.467 473.592 136.597 473.866 136.682 474.182C136.766 474.494 136.809 474.836 136.809 475.207V475.612H132.863V474.875H135.905V474.807C135.892 474.572 135.843 474.344 135.759 474.123C135.677 473.902 135.547 473.719 135.368 473.576C135.189 473.433 134.945 473.361 134.636 473.361C134.431 473.361 134.242 473.405 134.069 473.493C133.897 473.578 133.749 473.705 133.625 473.874C133.501 474.043 133.405 474.25 133.337 474.494C133.269 474.738 133.234 475.02 133.234 475.339V475.544C133.234 475.795 133.269 476.031 133.337 476.252C133.409 476.47 133.511 476.662 133.645 476.828C133.781 476.994 133.946 477.124 134.138 477.219C134.333 477.313 134.554 477.36 134.802 477.36C135.121 477.36 135.391 477.295 135.612 477.165C135.834 477.035 136.027 476.861 136.193 476.643L136.74 477.077C136.626 477.25 136.481 477.414 136.306 477.57C136.13 477.727 135.913 477.854 135.656 477.951C135.402 478.049 135.101 478.098 134.753 478.098ZM138.474 472.717L139.631 474.641L140.803 472.717H141.862L140.134 475.324L141.916 478H140.871L139.65 476.018L138.43 478H137.38L139.157 475.324L137.434 472.717H138.474ZM142.839 477.521C142.839 477.368 142.886 477.24 142.98 477.136C143.078 477.028 143.218 476.975 143.4 476.975C143.583 476.975 143.721 477.028 143.815 477.136C143.913 477.24 143.962 477.368 143.962 477.521C143.962 477.671 143.913 477.798 143.815 477.902C143.721 478.007 143.583 478.059 143.4 478.059C143.218 478.059 143.078 478.007 142.98 477.902C142.886 477.798 142.839 477.671 142.839 477.521ZM145.485 472.717H146.394V478.63C146.394 478.952 146.341 479.226 146.237 479.45C146.136 479.675 145.983 479.844 145.778 479.958C145.576 480.075 145.321 480.134 145.012 480.134C144.93 480.134 144.836 480.126 144.729 480.109C144.618 480.093 144.525 480.074 144.45 480.051L144.455 479.323C144.517 479.336 144.587 479.346 144.665 479.353C144.743 479.362 144.812 479.367 144.87 479.367C145.004 479.367 145.116 479.343 145.207 479.294C145.298 479.245 145.367 479.167 145.412 479.06C145.461 478.952 145.485 478.809 145.485 478.63V472.717ZM145.393 471.315C145.393 471.169 145.438 471.045 145.529 470.944C145.62 470.843 145.752 470.793 145.925 470.793C146.101 470.793 146.234 470.843 146.325 470.944C146.416 471.045 146.462 471.169 146.462 471.315C146.462 471.455 146.416 471.576 146.325 471.677C146.234 471.774 146.101 471.823 145.925 471.823C145.752 471.823 145.62 471.774 145.529 471.677C145.438 471.576 145.393 471.455 145.393 471.315ZM150.969 477.097V474.377C150.969 474.169 150.926 473.988 150.842 473.835C150.76 473.679 150.637 473.558 150.471 473.474C150.305 473.389 150.1 473.347 149.855 473.347C149.628 473.347 149.427 473.386 149.255 473.464C149.086 473.542 148.952 473.645 148.854 473.771C148.76 473.898 148.713 474.035 148.713 474.182H147.81C147.81 473.993 147.858 473.806 147.956 473.62C148.054 473.435 148.194 473.267 148.376 473.117C148.562 472.964 148.783 472.844 149.04 472.756C149.3 472.665 149.59 472.619 149.909 472.619C150.293 472.619 150.632 472.684 150.925 472.814C151.221 472.945 151.452 473.142 151.618 473.405C151.787 473.666 151.872 473.993 151.872 474.387V476.848C151.872 477.023 151.887 477.211 151.916 477.409C151.949 477.608 151.996 477.779 152.058 477.922V478H151.115C151.07 477.896 151.034 477.757 151.008 477.585C150.982 477.409 150.969 477.246 150.969 477.097ZM151.125 474.797L151.135 475.432H150.222C149.965 475.432 149.735 475.453 149.533 475.495C149.331 475.534 149.162 475.594 149.025 475.676C148.889 475.757 148.785 475.86 148.713 475.983C148.641 476.104 148.605 476.245 148.605 476.408C148.605 476.574 148.643 476.726 148.718 476.862C148.793 476.999 148.905 477.108 149.055 477.189C149.208 477.268 149.395 477.307 149.616 477.307C149.893 477.307 150.137 477.248 150.349 477.131C150.56 477.014 150.728 476.87 150.852 476.701C150.979 476.532 151.047 476.368 151.057 476.208L151.442 476.643C151.42 476.779 151.358 476.931 151.257 477.097C151.156 477.263 151.021 477.422 150.852 477.575C150.686 477.725 150.487 477.85 150.256 477.951C150.028 478.049 149.771 478.098 149.484 478.098C149.126 478.098 148.812 478.028 148.542 477.888C148.275 477.748 148.067 477.561 147.917 477.326C147.771 477.089 147.697 476.823 147.697 476.53C147.697 476.247 147.753 475.998 147.863 475.783C147.974 475.565 148.133 475.384 148.342 475.241C148.55 475.095 148.801 474.984 149.094 474.909C149.387 474.834 149.714 474.797 150.075 474.797H151.125ZM154.821 477.185L156.267 472.717H157.189L155.29 478H154.685L154.821 477.185ZM153.615 472.717L155.104 477.209L155.207 478H154.602L152.688 472.717H153.615ZM161.096 477.097V474.377C161.096 474.169 161.053 473.988 160.969 473.835C160.887 473.679 160.764 473.558 160.598 473.474C160.432 473.389 160.227 473.347 159.982 473.347C159.755 473.347 159.554 473.386 159.382 473.464C159.213 473.542 159.079 473.645 158.981 473.771C158.887 473.898 158.84 474.035 158.84 474.182H157.937C157.937 473.993 157.985 473.806 158.083 473.62C158.181 473.435 158.321 473.267 158.503 473.117C158.688 472.964 158.91 472.844 159.167 472.756C159.427 472.665 159.717 472.619 160.036 472.619C160.42 472.619 160.759 472.684 161.052 472.814C161.348 472.945 161.579 473.142 161.745 473.405C161.914 473.666 161.999 473.993 161.999 474.387V476.848C161.999 477.023 162.014 477.211 162.043 477.409C162.076 477.608 162.123 477.779 162.185 477.922V478H161.242C161.197 477.896 161.161 477.757 161.135 477.585C161.109 477.409 161.096 477.246 161.096 477.097ZM161.252 474.797L161.262 475.432H160.349C160.091 475.432 159.862 475.453 159.66 475.495C159.458 475.534 159.289 475.594 159.152 475.676C159.016 475.757 158.911 475.86 158.84 475.983C158.768 476.104 158.732 476.245 158.732 476.408C158.732 476.574 158.77 476.726 158.845 476.862C158.92 476.999 159.032 477.108 159.182 477.189C159.335 477.268 159.522 477.307 159.743 477.307C160.02 477.307 160.264 477.248 160.476 477.131C160.687 477.014 160.855 476.87 160.979 476.701C161.105 476.532 161.174 476.368 161.184 476.208L161.569 476.643C161.547 476.779 161.485 476.931 161.384 477.097C161.283 477.263 161.148 477.422 160.979 477.575C160.812 477.725 160.614 477.85 160.383 477.951C160.155 478.049 159.898 478.098 159.611 478.098C159.253 478.098 158.939 478.028 158.669 477.888C158.402 477.748 158.194 477.561 158.044 477.326C157.897 477.089 157.824 476.823 157.824 476.53C157.824 476.247 157.88 475.998 157.99 475.783C158.101 475.565 158.26 475.384 158.469 475.241C158.677 475.095 158.928 474.984 159.221 474.909C159.514 474.834 159.841 474.797 160.202 474.797H161.252Z" fill="#4000C7"/>
<path d="M148.746 448.016L142.938 442.252C142.776 442.091 142.558 442 142.328 442H130.864C130.386 442 130 442.383 130 442.857V465.143C130 465.617 130.386 466 130.864 466H148.136C148.614 466 149 465.617 149 465.143V448.624C149 448.396 148.908 448.177 148.746 448.016ZM147.008 449.018H141.929V443.977L147.008 449.018ZM147.057 464.071H131.943V443.929H140.094V449.714C140.094 450.013 140.213 450.299 140.426 450.51C140.638 450.721 140.927 450.839 141.227 450.839H147.057V464.071ZM139.284 456.839H134.318C134.199 456.839 134.102 456.936 134.102 457.054V458.339C134.102 458.457 134.199 458.554 134.318 458.554H139.284C139.403 458.554 139.5 458.457 139.5 458.339V457.054C139.5 456.936 139.403 456.839 139.284 456.839ZM134.102 453.411V454.696C134.102 454.814 134.199 454.911 134.318 454.911H144.682C144.801 454.911 144.898 454.814 144.898 454.696V453.411C144.898 453.293 144.801 453.196 144.682 453.196H134.318C134.199 453.196 134.102 453.293 134.102 453.411Z" fill="#4000C7"/>
<rect x="319.031" y="150.209" width="18" height="41" rx="5" transform="rotate(-64.2277 319.031 150.209)" fill="black"/>
<rect x="400.031" y="352.209" width="18" height="41" rx="5" transform="rotate(-64.2277 400.031 352.209)" fill="black"/>
<path d="M315.739 138.626L324.675 139.094L321.662 145.333L315.739 138.626Z" fill="black"/>
<path d="M396.739 340.626L405.675 341.094L402.662 347.333L396.739 340.626Z" fill="black"/>
<path d="M332.791 144.22L332.535 144.812C333.137 144.546 333.764 144.57 334.415 144.885C335.147 145.238 335.51 145.759 335.503 146.448C335.799 146.28 336.122 146.186 336.475 146.165C336.83 146.146 337.198 146.228 337.578 146.412C338.726 146.966 339.016 147.856 338.449 149.081L336.756 152.587L335.861 152.155L337.528 148.702C337.709 148.328 337.758 148.008 337.676 147.741C337.595 147.472 337.353 147.24 336.95 147.045C336.618 146.885 336.294 146.852 335.978 146.946C335.664 147.037 335.408 147.241 335.211 147.559L333.534 151.032L332.635 150.598L334.29 147.168C334.658 146.407 334.469 145.847 333.724 145.487C333.137 145.204 332.615 145.26 332.158 145.656L330.313 149.477L329.418 149.045L331.945 143.811L332.791 144.22ZM341.341 154.801C341.339 154.673 341.386 154.469 341.481 154.189C340.857 154.42 340.256 154.397 339.679 154.118C339.163 153.869 338.809 153.519 338.617 153.069C338.43 152.616 338.444 152.166 338.661 151.718C338.924 151.173 339.334 150.85 339.892 150.75C340.454 150.647 341.111 150.778 341.862 151.14L342.733 151.561L342.931 151.15C343.082 150.837 343.108 150.543 343.01 150.269C342.913 149.992 342.683 149.765 342.319 149.589C341.999 149.435 341.693 149.387 341.399 149.443C341.105 149.5 340.903 149.643 340.792 149.872L339.893 149.438C340.019 149.177 340.232 148.97 340.533 148.816C340.838 148.662 341.183 148.59 341.567 148.6C341.955 148.613 342.339 148.711 342.72 148.894C343.323 149.185 343.722 149.565 343.917 150.033C344.114 150.498 344.092 150.998 343.849 151.533L342.686 153.942C342.454 154.422 342.331 154.834 342.317 155.177L342.279 155.254L341.341 154.801ZM340.185 153.402C340.466 153.538 340.767 153.594 341.088 153.57C341.41 153.546 341.683 153.446 341.908 153.268L342.427 152.194L341.725 151.856C340.629 151.326 339.926 151.382 339.616 152.024C339.481 152.305 339.468 152.569 339.579 152.817C339.69 153.066 339.892 153.261 340.185 153.402ZM344.47 156.312L343.576 155.88L346.102 150.647L346.997 151.079L344.47 156.312ZM346.7 149.224C346.77 149.078 346.873 148.977 347.008 148.919C347.147 148.863 347.303 148.877 347.477 148.961C347.651 149.045 347.759 149.158 347.801 149.302C347.843 149.446 347.829 149.59 347.759 149.735C347.689 149.88 347.586 149.979 347.449 150.032C347.312 150.086 347.156 150.07 346.982 149.986C346.808 149.902 346.699 149.79 346.655 149.649C346.615 149.511 346.63 149.369 346.7 149.224ZM349.28 152.181L348.992 152.853C349.634 152.543 350.278 152.544 350.923 152.855C352.029 153.389 352.286 154.282 351.693 155.535L350.023 158.993L349.128 158.561L350.8 155.098C350.979 154.719 351.027 154.398 350.943 154.135C350.863 153.874 350.643 153.656 350.285 153.484C349.995 153.344 349.703 153.298 349.409 153.347C349.115 153.396 348.846 153.516 348.602 153.709L346.802 157.438L345.907 157.006L348.434 151.772L349.28 152.181Z" fill="white"/>
<path d="M413.791 346.22L413.535 346.812C414.137 346.546 414.764 346.57 415.415 346.885C416.147 347.238 416.51 347.759 416.503 348.448C416.799 348.28 417.122 348.186 417.475 348.165C417.83 348.146 418.198 348.228 418.578 348.412C419.726 348.966 420.016 349.856 419.449 351.081L417.756 354.587L416.861 354.155L418.528 350.702C418.709 350.328 418.758 350.008 418.676 349.741C418.595 349.472 418.353 349.24 417.95 349.045C417.618 348.885 417.294 348.852 416.978 348.946C416.664 349.037 416.408 349.241 416.211 349.559L414.534 353.032L413.635 352.598L415.29 349.168C415.658 348.407 415.469 347.847 414.724 347.487C414.137 347.204 413.615 347.26 413.158 347.656L411.313 351.477L410.418 351.045L412.945 345.811L413.791 346.22ZM422.341 356.801C422.339 356.673 422.386 356.469 422.481 356.189C421.857 356.42 421.256 356.397 420.679 356.118C420.163 355.869 419.809 355.519 419.617 355.069C419.43 354.616 419.444 354.166 419.661 353.718C419.924 353.173 420.334 352.85 420.892 352.75C421.454 352.647 422.111 352.778 422.862 353.14L423.733 353.561L423.931 353.15C424.082 352.837 424.108 352.543 424.01 352.269C423.913 351.992 423.683 351.765 423.319 351.589C422.999 351.435 422.693 351.387 422.399 351.443C422.105 351.5 421.903 351.643 421.792 351.872L420.893 351.438C421.019 351.177 421.232 350.97 421.533 350.816C421.838 350.662 422.183 350.59 422.567 350.6C422.955 350.613 423.339 350.711 423.72 350.894C424.323 351.185 424.722 351.565 424.917 352.033C425.114 352.498 425.092 352.998 424.849 353.533L423.686 355.942C423.454 356.422 423.331 356.834 423.317 357.177L423.279 357.254L422.341 356.801ZM421.185 355.402C421.466 355.538 421.767 355.594 422.088 355.57C422.41 355.546 422.683 355.446 422.908 355.268L423.427 354.194L422.725 353.856C421.629 353.326 420.926 353.382 420.616 354.024C420.481 354.305 420.468 354.569 420.579 354.817C420.69 355.066 420.892 355.261 421.185 355.402ZM425.47 358.312L424.576 357.88L427.102 352.647L427.997 353.079L425.47 358.312ZM427.7 351.224C427.77 351.078 427.873 350.977 428.008 350.919C428.147 350.863 428.303 350.877 428.477 350.961C428.651 351.045 428.759 351.158 428.801 351.302C428.843 351.446 428.829 351.59 428.759 351.735C428.689 351.88 428.586 351.979 428.449 352.032C428.312 352.086 428.156 352.07 427.982 351.986C427.808 351.902 427.699 351.79 427.655 351.649C427.615 351.511 427.63 351.369 427.7 351.224ZM430.28 354.181L429.992 354.853C430.634 354.543 431.278 354.544 431.923 354.855C433.029 355.389 433.286 356.282 432.693 357.535L431.023 360.993L430.128 360.561L431.8 357.098C431.979 356.719 432.027 356.398 431.943 356.135C431.863 355.874 431.643 355.656 431.285 355.484C430.995 355.344 430.703 355.298 430.409 355.347C430.115 355.396 429.846 355.516 429.602 355.709L427.802 359.438L426.907 359.006L429.434 353.772L430.28 354.181Z" fill="white"/>
<circle cx="140.5" cy="133.5" r="9.5" fill="#4000C7"/>
<circle cx="140.5" cy="335.5" r="9.5" fill="#4000C7"/>
<circle cx="220.5" cy="133.5" r="9.5" fill="#4000C7"/>
<circle cx="220.5" cy="335.5" r="9.5" fill="#4000C7"/>
<circle cx="301.5" cy="133.5" r="9.5" fill="#4000C7"/>
<circle cx="301.5" cy="335.5" r="9.5" fill="#4000C7"/>
<line x1="144" y1="133.5" x2="302" y2="133.5" stroke="#4000C7"/>
<line x1="131" y1="335.5" x2="373" y2="335.5" stroke="#4000C7"/>
</svg>
