<svg width="1152" height="587" viewBox="0 0 1152 587" fill="none" xmlns="http://www.w3.org/2000/svg">
<path d="M0 0H1152V587H0V0Z" fill="white" fill-opacity="0.01"/>
<rect x="400.031" y="352.209" width="18" height="41" rx="5" transform="rotate(-64.2277 400.031 352.209)" fill="black"/>
<path d="M396.739 340.626L405.675 341.094L402.662 347.333L396.739 340.626Z" fill="black"/>
<path d="M413.791 346.22L413.535 346.812C414.137 346.546 414.764 346.57 415.415 346.885C416.147 347.238 416.51 347.759 416.503 348.448C416.799 348.28 417.122 348.186 417.475 348.165C417.83 348.146 418.198 348.228 418.578 348.412C419.726 348.966 420.016 349.856 419.449 351.081L417.756 354.587L416.861 354.155L418.528 350.702C418.709 350.328 418.758 350.008 418.676 349.741C418.595 349.472 418.353 349.24 417.95 349.045C417.618 348.885 417.294 348.852 416.978 348.946C416.664 349.037 416.408 349.241 416.211 349.559L414.534 353.032L413.635 352.598L415.29 349.168C415.658 348.407 415.469 347.847 414.724 347.487C414.137 347.204 413.615 347.26 413.158 347.656L411.313 351.477L410.418 351.045L412.945 345.811L413.791 346.22ZM422.341 356.801C422.339 356.673 422.386 356.469 422.481 356.189C421.857 356.42 421.256 356.397 420.679 356.118C420.163 355.869 419.809 355.519 419.617 355.069C419.43 354.616 419.444 354.166 419.661 353.718C419.924 353.173 420.334 352.85 420.892 352.75C421.454 352.647 422.111 352.778 422.862 353.14L423.733 353.561L423.931 353.15C424.082 352.837 424.108 352.543 424.01 352.269C423.913 351.992 423.683 351.765 423.319 351.589C422.999 351.435 422.693 351.387 422.399 351.443C422.105 351.5 421.903 351.643 421.792 351.872L420.893 351.438C421.019 351.177 421.232 350.97 421.533 350.816C421.838 350.662 422.183 350.59 422.567 350.6C422.955 350.613 423.339 350.711 423.72 350.894C424.323 351.185 424.722 351.565 424.917 352.033C425.114 352.498 425.092 352.998 424.849 353.533L423.686 355.942C423.454 356.422 423.331 356.834 423.317 357.177L423.279 357.254L422.341 356.801ZM421.185 355.402C421.466 355.538 421.767 355.594 422.088 355.57C422.41 355.546 422.683 355.446 422.908 355.268L423.427 354.194L422.725 353.856C421.629 353.326 420.926 353.382 420.616 354.024C420.481 354.305 420.468 354.569 420.579 354.817C420.69 355.066 420.892 355.261 421.185 355.402ZM425.47 358.312L424.576 357.88L427.102 352.647L427.997 353.079L425.47 358.312ZM427.7 351.224C427.77 351.078 427.873 350.977 428.008 350.919C428.147 350.863 428.303 350.877 428.477 350.961C428.651 351.045 428.759 351.158 428.801 351.302C428.843 351.446 428.829 351.59 428.759 351.735C428.689 351.88 428.586 351.979 428.449 352.032C428.312 352.086 428.156 352.07 427.982 351.986C427.808 351.902 427.699 351.79 427.655 351.649C427.615 351.511 427.63 351.369 427.7 351.224ZM430.28 354.181L429.992 354.853C430.634 354.543 431.278 354.544 431.923 354.855C433.029 355.389 433.286 356.282 432.693 357.535L431.023 360.993L430.128 360.561L431.8 357.098C431.979 356.719 432.027 356.398 431.943 356.135C431.863 355.874 431.643 355.656 431.285 355.484C430.995 355.344 430.703 355.298 430.409 355.347C430.115 355.396 429.846 355.516 429.602 355.709L427.802 359.438L426.907 359.006L429.434 353.772L430.28 354.181Z" fill="white"/>
<path d="M366.57 298.881H366.648V299.647H366.57C366.092 299.647 365.691 299.726 365.369 299.882C365.047 300.035 364.791 300.242 364.603 300.502C364.414 300.759 364.277 301.049 364.192 301.371C364.111 301.693 364.07 302.021 364.07 302.353V303.397C364.07 303.713 364.108 303.993 364.183 304.237C364.257 304.478 364.36 304.682 364.49 304.848C364.62 305.014 364.767 305.139 364.93 305.224C365.096 305.308 365.268 305.351 365.447 305.351C365.656 305.351 365.841 305.312 366.004 305.233C366.167 305.152 366.303 305.04 366.414 304.896C366.528 304.75 366.614 304.577 366.673 304.379C366.731 304.18 366.761 303.962 366.761 303.725C366.761 303.513 366.735 303.31 366.683 303.114C366.631 302.916 366.551 302.74 366.443 302.587C366.336 302.431 366.201 302.309 366.038 302.221C365.879 302.13 365.688 302.084 365.467 302.084C365.216 302.084 364.982 302.146 364.764 302.27C364.549 302.39 364.371 302.549 364.231 302.748C364.095 302.943 364.017 303.157 363.997 303.388L363.519 303.383C363.564 303.018 363.649 302.707 363.772 302.45C363.899 302.19 364.056 301.978 364.241 301.815C364.43 301.649 364.64 301.529 364.871 301.454C365.105 301.376 365.353 301.337 365.613 301.337C365.968 301.337 366.274 301.404 366.531 301.537C366.788 301.671 367 301.85 367.166 302.074C367.332 302.296 367.454 302.546 367.532 302.826C367.614 303.103 367.654 303.388 367.654 303.681C367.654 304.016 367.607 304.33 367.513 304.623C367.418 304.916 367.277 305.173 367.088 305.395C366.902 305.616 366.673 305.788 366.399 305.912C366.126 306.036 365.809 306.098 365.447 306.098C365.063 306.098 364.728 306.02 364.441 305.863C364.155 305.704 363.917 305.492 363.729 305.229C363.54 304.965 363.398 304.672 363.304 304.35C363.209 304.027 363.162 303.7 363.162 303.368V302.943C363.162 302.442 363.213 301.951 363.313 301.469C363.414 300.987 363.589 300.551 363.836 300.16C364.087 299.77 364.433 299.459 364.876 299.228C365.319 298.996 365.883 298.881 366.57 298.881ZM368.821 298.5H369.729V304.975L369.651 306H368.821V298.5ZM373.299 303.314V303.417C373.299 303.801 373.253 304.158 373.162 304.486C373.071 304.812 372.938 305.095 372.762 305.336C372.586 305.577 372.371 305.764 372.117 305.897C371.863 306.031 371.572 306.098 371.243 306.098C370.908 306.098 370.613 306.041 370.359 305.927C370.109 305.81 369.897 305.642 369.725 305.424C369.552 305.206 369.414 304.942 369.31 304.633C369.209 304.324 369.139 303.975 369.1 303.588V303.139C369.139 302.748 369.209 302.398 369.31 302.089C369.414 301.78 369.552 301.516 369.725 301.298C369.897 301.076 370.109 300.909 370.359 300.795C370.61 300.678 370.901 300.619 371.233 300.619C371.565 300.619 371.86 300.684 372.117 300.814C372.374 300.941 372.589 301.124 372.762 301.361C372.938 301.599 373.071 301.884 373.162 302.216C373.253 302.545 373.299 302.911 373.299 303.314ZM372.391 303.417V303.314C372.391 303.051 372.366 302.803 372.317 302.572C372.269 302.338 372.19 302.133 372.083 301.957C371.976 301.778 371.834 301.638 371.658 301.537C371.482 301.433 371.266 301.381 371.009 301.381C370.781 301.381 370.582 301.42 370.413 301.498C370.247 301.576 370.105 301.682 369.988 301.815C369.871 301.946 369.775 302.095 369.7 302.265C369.629 302.431 369.575 302.603 369.539 302.782V303.959C369.591 304.187 369.676 304.407 369.793 304.618C369.913 304.826 370.073 304.997 370.271 305.131C370.473 305.264 370.722 305.331 371.019 305.331C371.263 305.331 371.471 305.282 371.644 305.185C371.819 305.084 371.961 304.945 372.068 304.77C372.179 304.594 372.26 304.39 372.312 304.159C372.365 303.928 372.391 303.681 372.391 303.417ZM379.148 303.607V304.35H374.012V303.817L377.195 298.891H377.933L377.142 300.316L375.037 303.607H379.148ZM378.157 298.891V306H377.254V298.891H378.157ZM381.287 302.001H381.932C382.247 302.001 382.508 301.949 382.713 301.845C382.921 301.737 383.076 301.592 383.177 301.41C383.281 301.225 383.333 301.016 383.333 300.785C383.333 300.512 383.287 300.282 383.196 300.097C383.105 299.911 382.968 299.771 382.786 299.677C382.604 299.582 382.373 299.535 382.093 299.535C381.839 299.535 381.614 299.586 381.419 299.687C381.227 299.784 381.076 299.924 380.965 300.106C380.857 300.289 380.804 300.504 380.804 300.751H379.9C379.9 300.39 379.992 300.061 380.174 299.765C380.356 299.468 380.612 299.232 380.94 299.057C381.272 298.881 381.657 298.793 382.093 298.793C382.522 298.793 382.898 298.869 383.221 299.022C383.543 299.172 383.794 299.397 383.973 299.696C384.152 299.993 384.241 300.362 384.241 300.805C384.241 300.984 384.199 301.176 384.114 301.381C384.033 301.583 383.904 301.771 383.729 301.947C383.556 302.123 383.331 302.268 383.055 302.382C382.778 302.493 382.446 302.548 382.059 302.548H381.287V302.001ZM381.287 302.743V302.201H382.059C382.511 302.201 382.885 302.255 383.182 302.362C383.478 302.47 383.711 302.613 383.88 302.792C384.052 302.971 384.173 303.168 384.241 303.383C384.313 303.594 384.349 303.806 384.349 304.018C384.349 304.35 384.292 304.644 384.178 304.901C384.067 305.159 383.909 305.377 383.704 305.556C383.502 305.735 383.265 305.87 382.991 305.961C382.718 306.052 382.42 306.098 382.098 306.098C381.788 306.098 381.497 306.054 381.224 305.966C380.953 305.878 380.714 305.751 380.506 305.585C380.298 305.416 380.135 305.209 380.018 304.965C379.9 304.717 379.842 304.436 379.842 304.12H380.745C380.745 304.368 380.799 304.584 380.906 304.77C381.017 304.955 381.173 305.1 381.375 305.204C381.58 305.305 381.821 305.355 382.098 305.355C382.374 305.355 382.612 305.308 382.811 305.214C383.012 305.116 383.167 304.97 383.274 304.774C383.385 304.579 383.44 304.333 383.44 304.037C383.44 303.741 383.379 303.498 383.255 303.31C383.131 303.118 382.955 302.976 382.728 302.885C382.503 302.79 382.238 302.743 381.932 302.743H381.287ZM386.492 305.243H386.585C387.106 305.243 387.529 305.17 387.854 305.023C388.18 304.877 388.431 304.68 388.606 304.433C388.782 304.185 388.903 303.907 388.968 303.598C389.033 303.285 389.065 302.965 389.065 302.636V301.547C389.065 301.225 389.028 300.938 388.953 300.688C388.882 300.437 388.781 300.227 388.65 300.058C388.523 299.888 388.379 299.76 388.216 299.672C388.053 299.584 387.881 299.54 387.698 299.54C387.49 299.54 387.303 299.582 387.137 299.667C386.974 299.748 386.836 299.864 386.722 300.014C386.611 300.163 386.526 300.339 386.468 300.541C386.409 300.743 386.38 300.963 386.38 301.2C386.38 301.412 386.406 301.617 386.458 301.815C386.51 302.014 386.59 302.193 386.697 302.353C386.805 302.512 386.938 302.639 387.098 302.733C387.26 302.825 387.451 302.87 387.669 302.87C387.871 302.87 388.06 302.831 388.235 302.753C388.414 302.672 388.572 302.562 388.709 302.426C388.849 302.286 388.96 302.128 389.041 301.952C389.126 301.776 389.174 301.592 389.188 301.4H389.617C389.617 301.671 389.563 301.938 389.456 302.201C389.352 302.462 389.205 302.699 389.017 302.914C388.828 303.129 388.606 303.301 388.353 303.432C388.099 303.559 387.822 303.622 387.522 303.622C387.171 303.622 386.867 303.554 386.609 303.417C386.352 303.28 386.141 303.098 385.975 302.87C385.812 302.642 385.69 302.388 385.608 302.108C385.53 301.825 385.491 301.539 385.491 301.249C385.491 300.91 385.538 300.593 385.633 300.297C385.727 300.001 385.867 299.74 386.053 299.516C386.238 299.288 386.468 299.11 386.741 298.983C387.018 298.856 387.337 298.793 387.698 298.793C388.105 298.793 388.452 298.874 388.738 299.037C389.025 299.2 389.257 299.418 389.437 299.691C389.619 299.965 389.752 300.272 389.837 300.614C389.922 300.956 389.964 301.308 389.964 301.669V301.996C389.964 302.364 389.939 302.738 389.891 303.119C389.845 303.497 389.756 303.858 389.622 304.203C389.492 304.548 389.301 304.857 389.051 305.131C388.8 305.401 388.473 305.616 388.069 305.775C387.669 305.932 387.174 306.01 386.585 306.01H386.492V305.243ZM392.361 302.616L391.639 302.431L391.995 298.891H395.643V299.726H392.762L392.547 301.659C392.677 301.584 392.841 301.514 393.04 301.449C393.242 301.384 393.473 301.352 393.733 301.352C394.062 301.352 394.357 301.409 394.617 301.522C394.878 301.633 395.099 301.793 395.281 302.001C395.467 302.209 395.608 302.46 395.706 302.753C395.804 303.046 395.853 303.373 395.853 303.734C395.853 304.076 395.805 304.39 395.711 304.677C395.62 304.963 395.481 305.214 395.296 305.429C395.11 305.64 394.876 305.805 394.593 305.922C394.313 306.039 393.982 306.098 393.602 306.098C393.315 306.098 393.043 306.059 392.786 305.98C392.532 305.899 392.304 305.777 392.103 305.614C391.904 305.448 391.741 305.243 391.614 304.999C391.491 304.752 391.412 304.462 391.38 304.13H392.239C392.278 304.397 392.356 304.621 392.474 304.804C392.591 304.986 392.744 305.124 392.933 305.219C393.125 305.31 393.348 305.355 393.602 305.355C393.816 305.355 394.007 305.318 394.173 305.243C394.339 305.168 394.479 305.061 394.593 304.921C394.707 304.781 394.793 304.612 394.852 304.413C394.913 304.215 394.944 303.992 394.944 303.744C394.944 303.52 394.913 303.311 394.852 303.119C394.79 302.927 394.697 302.759 394.573 302.616C394.453 302.473 394.305 302.362 394.129 302.284C393.953 302.203 393.751 302.162 393.523 302.162C393.221 302.162 392.991 302.203 392.835 302.284C392.682 302.366 392.524 302.476 392.361 302.616ZM399.056 305.355C399.271 305.355 399.469 305.312 399.651 305.224C399.834 305.136 399.983 305.015 400.101 304.862C400.218 304.706 400.285 304.529 400.301 304.33H401.16C401.144 304.643 401.038 304.934 400.843 305.204C400.651 305.471 400.398 305.688 400.086 305.854C399.773 306.016 399.43 306.098 399.056 306.098C398.659 306.098 398.312 306.028 398.016 305.888C397.723 305.748 397.479 305.556 397.283 305.312C397.091 305.067 396.946 304.787 396.849 304.472C396.754 304.153 396.707 303.816 396.707 303.461V303.256C396.707 302.901 396.754 302.566 396.849 302.25C396.946 301.931 397.091 301.649 397.283 301.405C397.479 301.161 397.723 300.969 398.016 300.829C398.312 300.689 398.659 300.619 399.056 300.619C399.469 300.619 399.83 300.704 400.14 300.873C400.449 301.039 400.691 301.267 400.867 301.557C401.046 301.843 401.144 302.169 401.16 302.533H400.301C400.285 302.315 400.223 302.118 400.115 301.942C400.011 301.767 399.868 301.627 399.686 301.522C399.507 301.415 399.297 301.361 399.056 301.361C398.779 301.361 398.546 301.417 398.357 301.527C398.172 301.635 398.024 301.781 397.913 301.967C397.806 302.149 397.728 302.353 397.679 302.577C397.633 302.799 397.61 303.025 397.61 303.256V303.461C397.61 303.692 397.633 303.92 397.679 304.145C397.724 304.369 397.801 304.573 397.908 304.755C398.019 304.937 398.167 305.084 398.353 305.194C398.541 305.302 398.776 305.355 399.056 305.355ZM350.999 312.717V318H350.091V312.717H350.999ZM350.022 311.315C350.022 311.169 350.066 311.045 350.154 310.944C350.245 310.843 350.379 310.793 350.555 310.793C350.727 310.793 350.859 310.843 350.95 310.944C351.045 311.045 351.092 311.169 351.092 311.315C351.092 311.455 351.045 311.576 350.95 311.677C350.859 311.774 350.727 311.823 350.555 311.823C350.379 311.823 350.245 311.774 350.154 311.677C350.066 311.576 350.022 311.455 350.022 311.315ZM353.353 313.845V318H352.449V312.717H353.304L353.353 313.845ZM353.138 315.158L352.762 315.144C352.765 314.782 352.819 314.449 352.923 314.143C353.027 313.833 353.174 313.565 353.362 313.337C353.551 313.109 353.776 312.933 354.036 312.81C354.3 312.683 354.591 312.619 354.91 312.619C355.171 312.619 355.405 312.655 355.613 312.727C355.822 312.795 355.999 312.906 356.146 313.059C356.295 313.212 356.409 313.41 356.487 313.654C356.565 313.895 356.604 314.19 356.604 314.538V318H355.696V314.528C355.696 314.252 355.656 314.03 355.574 313.864C355.493 313.695 355.374 313.573 355.218 313.498C355.062 313.42 354.869 313.381 354.642 313.381C354.417 313.381 354.212 313.428 354.026 313.522C353.844 313.617 353.686 313.747 353.553 313.913C353.423 314.079 353.32 314.27 353.245 314.484C353.174 314.696 353.138 314.921 353.138 315.158ZM361.307 316.975V310.5H362.215V318H361.385L361.307 316.975ZM357.752 315.417V315.314C357.752 314.911 357.801 314.545 357.898 314.216C357.999 313.884 358.141 313.599 358.323 313.361C358.509 313.124 358.729 312.941 358.982 312.814C359.24 312.684 359.526 312.619 359.842 312.619C360.174 312.619 360.464 312.678 360.711 312.795C360.962 312.909 361.173 313.076 361.346 313.298C361.521 313.516 361.66 313.78 361.761 314.089C361.862 314.398 361.932 314.748 361.971 315.139V315.588C361.935 315.975 361.865 316.324 361.761 316.633C361.66 316.942 361.521 317.206 361.346 317.424C361.173 317.642 360.962 317.81 360.711 317.927C360.46 318.041 360.167 318.098 359.832 318.098C359.523 318.098 359.24 318.031 358.982 317.897C358.729 317.764 358.509 317.577 358.323 317.336C358.141 317.095 357.999 316.812 357.898 316.486C357.801 316.158 357.752 315.801 357.752 315.417ZM358.66 315.314V315.417C358.66 315.681 358.686 315.928 358.738 316.159C358.794 316.39 358.878 316.594 358.992 316.77C359.106 316.945 359.251 317.084 359.427 317.185C359.603 317.282 359.812 317.331 360.057 317.331C360.356 317.331 360.602 317.268 360.794 317.141C360.989 317.014 361.146 316.846 361.263 316.638C361.38 316.429 361.471 316.203 361.536 315.959V314.782C361.497 314.603 361.44 314.431 361.365 314.265C361.294 314.095 361.199 313.946 361.082 313.815C360.968 313.682 360.826 313.576 360.657 313.498C360.491 313.42 360.294 313.381 360.066 313.381C359.819 313.381 359.606 313.433 359.427 313.537C359.251 313.638 359.106 313.778 358.992 313.957C358.878 314.133 358.794 314.338 358.738 314.572C358.686 314.803 358.66 315.051 358.66 315.314ZM365.813 318.098C365.446 318.098 365.112 318.036 364.812 317.912C364.516 317.785 364.261 317.608 364.046 317.38C363.834 317.152 363.672 316.882 363.558 316.569C363.444 316.257 363.387 315.915 363.387 315.544V315.339C363.387 314.909 363.45 314.527 363.577 314.191C363.704 313.853 363.877 313.566 364.095 313.332C364.313 313.098 364.56 312.92 364.837 312.8C365.114 312.679 365.4 312.619 365.696 312.619C366.074 312.619 366.399 312.684 366.673 312.814C366.95 312.945 367.176 313.127 367.352 313.361C367.527 313.592 367.658 313.866 367.742 314.182C367.827 314.494 367.869 314.836 367.869 315.207V315.612H363.924V314.875H366.966V314.807C366.953 314.572 366.904 314.344 366.819 314.123C366.738 313.902 366.608 313.719 366.429 313.576C366.25 313.433 366.006 313.361 365.696 313.361C365.491 313.361 365.302 313.405 365.13 313.493C364.957 313.578 364.809 313.705 364.686 313.874C364.562 314.043 364.466 314.25 364.397 314.494C364.329 314.738 364.295 315.02 364.295 315.339V315.544C364.295 315.795 364.329 316.031 364.397 316.252C364.469 316.47 364.572 316.662 364.705 316.828C364.842 316.994 365.006 317.124 365.198 317.219C365.394 317.313 365.615 317.36 365.862 317.36C366.181 317.36 366.451 317.295 366.673 317.165C366.894 317.035 367.088 316.861 367.254 316.643L367.801 317.077C367.687 317.25 367.542 317.414 367.366 317.57C367.19 317.727 366.974 317.854 366.717 317.951C366.463 318.049 366.162 318.098 365.813 318.098ZM369.534 312.717L370.691 314.641L371.863 312.717H372.923L371.194 315.324L372.977 318H371.932L370.711 316.018L369.49 318H368.44L370.218 315.324L368.494 312.717H369.534ZM373.899 317.521C373.899 317.368 373.947 317.24 374.041 317.136C374.139 317.028 374.279 316.975 374.461 316.975C374.643 316.975 374.782 317.028 374.876 317.136C374.974 317.24 375.022 317.368 375.022 317.521C375.022 317.671 374.974 317.798 374.876 317.902C374.782 318.007 374.643 318.059 374.461 318.059C374.279 318.059 374.139 318.007 374.041 317.902C373.947 317.798 373.899 317.671 373.899 317.521ZM376.546 312.717H377.454V318.63C377.454 318.952 377.402 319.226 377.298 319.45C377.197 319.675 377.044 319.844 376.839 319.958C376.637 320.075 376.382 320.134 376.072 320.134C375.991 320.134 375.896 320.126 375.789 320.109C375.678 320.093 375.586 320.074 375.511 320.051L375.516 319.323C375.577 319.336 375.647 319.346 375.726 319.353C375.804 319.362 375.872 319.367 375.931 319.367C376.064 319.367 376.176 319.343 376.268 319.294C376.359 319.245 376.427 319.167 376.473 319.06C376.521 318.952 376.546 318.809 376.546 318.63V312.717ZM376.453 311.315C376.453 311.169 376.499 311.045 376.59 310.944C376.681 310.843 376.813 310.793 376.985 310.793C377.161 310.793 377.295 310.843 377.386 310.944C377.477 311.045 377.522 311.169 377.522 311.315C377.522 311.455 377.477 311.576 377.386 311.677C377.295 311.774 377.161 311.823 376.985 311.823C376.813 311.823 376.681 311.774 376.59 311.677C376.499 311.576 376.453 311.455 376.453 311.315ZM382.029 317.097V314.377C382.029 314.169 381.987 313.988 381.902 313.835C381.821 313.679 381.697 313.558 381.531 313.474C381.365 313.389 381.16 313.347 380.916 313.347C380.688 313.347 380.488 313.386 380.315 313.464C380.146 313.542 380.013 313.645 379.915 313.771C379.821 313.898 379.773 314.035 379.773 314.182H378.87C378.87 313.993 378.919 313.806 379.017 313.62C379.114 313.435 379.254 313.267 379.437 313.117C379.622 312.964 379.843 312.844 380.101 312.756C380.361 312.665 380.651 312.619 380.97 312.619C381.354 312.619 381.692 312.684 381.985 312.814C382.282 312.945 382.513 313.142 382.679 313.405C382.848 313.666 382.933 313.993 382.933 314.387V316.848C382.933 317.023 382.947 317.211 382.977 317.409C383.009 317.608 383.056 317.779 383.118 317.922V318H382.176C382.13 317.896 382.094 317.757 382.068 317.585C382.042 317.409 382.029 317.246 382.029 317.097ZM382.186 314.797L382.195 315.432H381.282C381.025 315.432 380.796 315.453 380.594 315.495C380.392 315.534 380.223 315.594 380.086 315.676C379.949 315.757 379.845 315.86 379.773 315.983C379.702 316.104 379.666 316.245 379.666 316.408C379.666 316.574 379.703 316.726 379.778 316.862C379.853 316.999 379.965 317.108 380.115 317.189C380.268 317.268 380.455 317.307 380.677 317.307C380.953 317.307 381.198 317.248 381.409 317.131C381.621 317.014 381.788 316.87 381.912 316.701C382.039 316.532 382.107 316.368 382.117 316.208L382.503 316.643C382.48 316.779 382.418 316.931 382.317 317.097C382.216 317.263 382.081 317.422 381.912 317.575C381.746 317.725 381.548 317.85 381.316 317.951C381.089 318.049 380.831 318.098 380.545 318.098C380.187 318.098 379.873 318.028 379.603 317.888C379.336 317.748 379.127 317.561 378.978 317.326C378.831 317.089 378.758 316.823 378.758 316.53C378.758 316.247 378.813 315.998 378.924 315.783C379.035 315.565 379.194 315.384 379.402 315.241C379.611 315.095 379.861 314.984 380.154 314.909C380.447 314.834 380.774 314.797 381.136 314.797H382.186ZM385.882 317.185L387.327 312.717H388.25L386.351 318H385.745L385.882 317.185ZM384.676 312.717L386.165 317.209L386.268 318H385.662L383.748 312.717H384.676ZM392.156 317.097V314.377C392.156 314.169 392.114 313.988 392.029 313.835C391.948 313.679 391.824 313.558 391.658 313.474C391.492 313.389 391.287 313.347 391.043 313.347C390.815 313.347 390.615 313.386 390.442 313.464C390.273 313.542 390.14 313.645 390.042 313.771C389.948 313.898 389.9 314.035 389.9 314.182H388.997C388.997 313.993 389.046 313.806 389.144 313.62C389.241 313.435 389.381 313.267 389.563 313.117C389.749 312.964 389.97 312.844 390.228 312.756C390.488 312.665 390.778 312.619 391.097 312.619C391.481 312.619 391.819 312.684 392.112 312.814C392.409 312.945 392.64 313.142 392.806 313.405C392.975 313.666 393.06 313.993 393.06 314.387V316.848C393.06 317.023 393.074 317.211 393.104 317.409C393.136 317.608 393.183 317.779 393.245 317.922V318H392.303C392.257 317.896 392.221 317.757 392.195 317.585C392.169 317.409 392.156 317.246 392.156 317.097ZM392.312 314.797L392.322 315.432H391.409C391.152 315.432 390.923 315.453 390.721 315.495C390.519 315.534 390.35 315.594 390.213 315.676C390.076 315.757 389.972 315.86 389.9 315.983C389.829 316.104 389.793 316.245 389.793 316.408C389.793 316.574 389.83 316.726 389.905 316.862C389.98 316.999 390.092 317.108 390.242 317.189C390.395 317.268 390.582 317.307 390.804 317.307C391.08 317.307 391.325 317.248 391.536 317.131C391.748 317.014 391.915 316.87 392.039 316.701C392.166 316.532 392.234 316.368 392.244 316.208L392.63 316.643C392.607 316.779 392.545 316.931 392.444 317.097C392.343 317.263 392.208 317.422 392.039 317.575C391.873 317.725 391.674 317.85 391.443 317.951C391.215 318.049 390.958 318.098 390.672 318.098C390.314 318.098 390 318.028 389.729 317.888C389.463 317.748 389.254 317.561 389.104 317.326C388.958 317.089 388.885 316.823 388.885 316.53C388.885 316.247 388.94 315.998 389.051 315.783C389.161 315.565 389.321 315.384 389.529 315.241C389.738 315.095 389.988 314.984 390.281 314.909C390.574 314.834 390.901 314.797 391.263 314.797H392.312ZM400.422 310.06V310.56C400.422 311.85 398.832 312.93 397.182 313.18L397.512 313.85C399.392 313.53 401.152 312.29 401.152 310.56V310.06H400.422ZM400.572 310.06V310.56C400.572 312.27 402.342 313.53 404.202 313.85L404.532 313.18C402.902 312.93 401.292 311.82 401.292 310.56V310.06H400.572ZM400.422 315.34V318.78H401.242V315.34H400.422ZM396.772 314.83V315.52H404.942V314.83H396.772ZM410.792 312.08V312.77H412.832V312.08H410.792ZM412.572 309.74V315.13H413.402V309.74H412.572ZM410.432 315.4C408.562 315.4 407.412 316.03 407.412 317.09C407.412 318.16 408.562 318.77 410.432 318.77C412.292 318.77 413.442 318.16 413.442 317.09C413.442 316.03 412.292 315.4 410.432 315.4ZM410.432 316.05C411.792 316.05 412.622 316.43 412.622 317.09C412.622 317.74 411.792 318.12 410.432 318.12C409.072 318.12 408.242 317.74 408.242 317.09C408.242 316.43 409.072 316.05 410.432 316.05ZM408.272 310.65V311.38C408.272 312.68 407.342 313.89 406.002 314.38L406.432 315.04C407.932 314.48 408.952 313.05 408.952 311.38V310.65H408.272ZM408.432 310.65V311.38C408.432 312.9 409.402 314.26 410.872 314.79L411.292 314.13C409.982 313.67 409.102 312.55 409.102 311.38V310.65H408.432ZM406.252 310.4V311.08H411.082V310.4H406.252Z" fill="black"/>
<circle cx="382.5" cy="335.5" r="9.5" fill="#4000C7"/>
<line x1="302" y1="335.5" x2="382" y2="335.5" stroke="#4000C7"/>
</svg>
